<?xml version="1.0" encoding="UTF-8"?>
<svg width="1014px" height="304px" viewBox="0 0 1014 304" version="1.1" xmlns="http://www.w3.org/2000/svg" xmlns:xlink="http://www.w3.org/1999/xlink">
    <!-- Generator: Sketch 56.3 (81716) - https://sketch.com -->
    <title>AstroPayCard</title>
    <desc>Created with Sketch.</desc>
    <g id="Page-1" stroke="none" stroke-width="1" fill="none" fill-rule="evenodd">
        <g id="AstroPayCard" fill="#346275" fill-rule="nonzero">
            <g id="Group">
                <path d="M223.8,0.2 C209.2,0.9 191,3.7 177.1,7.4 C174.4,8.1 171.7,8.8 171.1,9 C164.2,10.7 147.3,17.3 138.8,21.6 C130.9,25.5 122.7,30.6 122.7,31.4 C122.7,31.7 123.4,33.9 124.2,36.3 C125,38.7 127.4,45.7 129.6,51.9 C131.8,58.1 133.7,64 134.1,65.1 C134.4,66.2 134.8,67.1 135,67.2 C135.2,67.3 137.7,65 140.7,62.2 C143.6,59.3 147.6,55.7 149.5,54.2 C161.9,44.2 179.1,35.3 196.6,30 C214.7,24.5 231.4,22.1 252.5,22.1 C272.2,22.1 285.5,23.8 302.7,28.4 C304.9,29 305.2,29 308.2,28 C309.9,27.5 315.7,25.7 321,24.1 C326.3,22.5 331.3,21 332.2,20.7 C333.1,20.5 333.9,20 334.002007,19.8 C334.2,19.4 319.4,13.6 311.7,11.1 C304.1,8.6 291.9,5.5 284.4,4.2 C283.1,4 280.5,3.5 278.7,3.2 C275.6,2.6 269.6,1.9 260.9,0.9 C257,0.3 229.4,-0.1 223.8,0.2 Z" id="Path"></path>
                <path d="M657.8,5.9 C657.4,5.9 654.4,6.2 651.3,6.5 C644.8,7 636,8 632.7,8.5 C631.5,8.7 628.7,9.2 626.7,9.6 L622.9,10.3 L622.9,107.7 L622.9,205.1 L642.3,205.1 L661.7,205.1 L661.7,169.1 L661.7,133.1 L668.4,133.3 C678.1,133.7 687.7,132.9 696.7,131 C722,125.5 739.9,111.2 747.1,90.8 C752.1,76.8 752.1,57.9 747.2,44.5 C741.2,28.2 728.9,16.6 711.3,10.5 C700.2,6.7 691,5.5 672.5,5.6 C664.8,5.8 658.2,5.8 657.8,5.9 Z M687.2,40.2 C695.1,41.6 700.8,44.3 705,48.6 C709.8,53.5 711.9,59.4 711.9,67.8 C711.9,77.2 709.6,83.6 704.3,89.1 C700.2,93.4 694,96.5 686.5,98 C681.8,99 670.2,99.5 664.6,99 L661.6,98.7 L661.6,69.4 L661.6,40 L663.8,39.8 C670.3,39.1 682.3,39.3 687.2,40.2 Z" id="Shape"></path>
                <path d="M67.9,7 C67.9,7 66.1,12.3 64,18.5 C61.9,24.8 59.7,31.2 59.1,32.8 C58.6,34.4 56.1,41.6 53.6,48.9 C51.1,56.2 48.4,64 47.7,66.3 C46.3,70.6 39.2,91.2 34.5,104.7 C33.1,109 31.4,113.7 30.9,115.3 C30.4,116.9 27.7,124.7 25,132.7 C18.8,150.7 14.5,163.5 13.8,165.6 C13.5,166.5 11,173.8 8.3,181.7 C3,197.2 0.5,204.5 0.5,204.8 C0.5,204.9 9.6,205 20.7,205 L40.9,205 L47.5,184.9 C51.2,173.9 55.5,160.9 57,156.1 L59.9,147.4 L86.9,147.4 L113.9,147.4 L117.5,157.9 C119.5,163.7 123.4,175.2 126.2,183.5 C129.1,191.8 131.8,200.1 132.4,201.8 L133.4,204.9 L154,204.9 C166.1,204.9 174.6,204.7 174.6,204.5 C174.6,204.3 173.7,201.7 172.7,198.7 C171.7,195.7 170.2,191.4 169.5,189.2 C168.8,187 166.1,179.1 163.6,171.8 C158.9,158.2 153.6,142.5 151.1,135.2 C150.4,133 147.9,125.7 145.6,119.1 C143.4,112.5 140.6,104.4 139.5,101.1 C138.4,97.8 135.7,90 133.6,83.7 C131.4,77.4 128.8,69.6 127.7,66.3 C126.6,63 123.7,54.4 121.2,47.1 C118.7,39.8 115.3,29.8 113.6,24.8 C111.9,19.9 109.8,13.8 109,11.3 L107.4,6.8 L87.7,6.7 C76.8,6.9 67.9,6.9 67.9,7 Z M95.1,87.6 C97,93.2 99.3,99.7 100.1,102.1 C100.9,104.5 102.1,108.1 102.9,110.2 L104.2,114 L87.1,114 L70,114 L70.4,112.9 C71.1,110.6 74.2,101.5 79.2,86.9 C82.1,78.6 85,69.9 85.7,67.7 L87,63.6 L89.3,70.6 C90.5,74.2 93.1,82 95.1,87.6 Z" id="Shape"></path>
                <path d="M335.4,25.7 C333.4,26.4 327,28.3 321.3,30 C315.6,31.7 310.4,33.3 309.9,33.5 C309.3,33.7 307.3,34.4 305.3,34.9 L301.7,36 L301.7,47.2 L301.7,58.4 L291.5,58.4 L281.3,58.4 L281.3,75.2 L281.3,92 L291.5,92 L301.7,92 L301.7,127.2 C301.7,165.5 301.9,169.1 303.9,177.5 C305.9,185.9 309.7,192.7 314.6,197.3 C318,200.5 320.2,202 324.7,204.1 C331.8,207.4 339.3,208.6 349.9,207.9 C356.5,207.5 362,206.5 368.3,204.3 L373,202.7 L373,197.8 C373,195.1 372.6,188.1 372.3,182.1 C372,176.1 371.6,170.9 371.6,170.3 C371.6,169.1 371.2,169.1 364.4,171.1 C358.8,172.7 358.5,172.8 352.5,172.8 C346.8,172.8 346.2,172.8 345.1,172 C343.5,170.8 342.2,168.8 341.2,165.7 C340.3,163 340.3,162.8 340.1,127.1 L340,91.3 L357.2,91.3 L374.4,91.3 L374.4,74.7 L374.4,58.1 L357.2,58.1 L340,58.1 L340,41.1 C340,27.8 339.9,24.1 339.5,24.2 C339.3,24.5 337.4,25.1 335.4,25.7 Z" id="Path"></path>
                <path d="M448.8,55.8 C439.1,56.9 430.2,60.8 423.5,66.8 L421.5,68.6 L421.3,65.2 C421.1,63.4 421,61.1 421,60.1 L421,58.4 L402.8,58.4 L384.6,58.4 L384.9,61.8 C385.9,74.2 386,84.4 386.2,142.1 L386.4,205.2 L406,205.2 L425.6,205.2 L425.7,161.6 L425.8,118 L426.7,114.7 C429.1,106.1 434.3,99.1 440.5,96.1 C442.3,95.2 444.8,94.3 446,94.1 C449.8,93.4 455.7,93.6 461,94.7 C463.7,95.3 466,95.7 466.2,95.7 C466.4,95.7 466.5,87.1 466.5,76.5 L466.5,57.3 L465,57 C457.5,55.9 451.5,55.4 448.8,55.8 Z" id="Path"></path>
                <path d="M804.7,55.8 C787.3,57.2 773.9,61.2 761.5,68.8 C759.2,70.2 757.3,71.5 757.3,71.7 C757.3,72.1 766.6,99.6 767.3,101.4 C767.5,101.8 767.8,102.1 768,102.1 C768.2,102.1 770.4,100.8 772.8,99.1 C783.4,91.8 793.2,88.7 805.9,88.6 C816.6,88.5 822.7,91.4 826,98.1 C826.9,99.9 828.4,104.9 828.4,106.2 C828.4,106.4 825.7,106.6 822.4,106.8 C796.6,108.1 776.2,115.3 763.8,127.6 C754.6,136.6 750.3,146.6 749.7,159.9 C749.4,167 749.9,171.4 751.8,177.2 C757.1,193.3 770.1,204.3 787.4,207.3 C792.6,208.2 802.6,208.1 808,207.1 C815.7,205.7 823.4,202.7 829.7,198.6 C831.5,197.4 832.5,197 832.6,197.3 C832.7,197.6 832.9,199.4 833,201.4 L833.3,205 L852,205 C862.2,205 870.6,204.9 870.6,204.7 C870.6,204.5 870.3,202.7 870,200.5 C867.8,186.9 867.7,184.4 867.5,146.8 C867.3,106.6 867.1,103.4 864.7,94.1 C859.3,73.1 844.4,60.1 822,56.5 C817.9,56 808.1,55.5 804.7,55.8 Z M829.2,146.2 C829.2,150.7 829,155.3 828.8,156.5 C828.1,160.3 825.8,164.3 822.5,167.6 C817.4,172.7 811.2,175.2 803.6,175.2 C799,175.2 796.5,174.5 793.7,172.6 C788,168.8 786.6,157.8 790.8,150.8 C791.6,149.5 792.8,147.9 793.7,147.2 C800,141.8 811.8,138.5 826.8,138 L829.1,137.9 L829.1,146.2 L829.2,146.2 Z" id="Shape"></path>
                <path d="M225.8,56.5 C208.3,59.2 194.8,68.2 187.8,81.8 C184.3,88.5 182.9,95.2 183.3,103.6 C183.5,109.6 184.3,112.8 186.4,117.5 C192.1,129.8 203,138.4 222.4,146 C232.8,150.1 236.7,152.3 239.7,155.6 C242.5,158.7 243.2,162.9 241.6,167.2 C238.3,175.9 222.9,177.7 205.9,171.4 C202.4,170.1 198.9,168.3 193.4,165.1 C189.1,162.6 188.1,162.2 188.1,163.1 C188.1,163.4 186.9,167.3 185.5,171.8 C179.6,190.1 178.3,194.4 178.3,194.8 C178.3,195.3 182.3,197.8 186.7,199.9 C193.7,203.4 201.9,205.9 211,207.4 C217,208.4 230.9,208.4 236.7,207.4 C260.3,203.5 275.6,190.4 279.9,170.4 C280.9,165.8 280.9,156.4 279.9,152 C277.7,142 273.6,135.1 265.8,128.1 C260.3,123.2 253.1,119.2 241.8,114.6 C226.7,108.6 221.8,105 221.6,100 C221.5,96.3 222,94.8 224.3,92.5 C226.8,89.9 229,89.1 234.3,88.7 C243,88.1 251.4,90.7 262,97.4 C264.3,98.8 266.4,100 266.6,100 C266.8,100 268.2,96.6 269.5,92.3 C270.8,88.1 273.2,81 274.6,76.5 C276,72 277.3,68.3 277.3,68.2 C277.3,68 269.1,63.1 267.3,62.2 C262.3,59.7 253.7,57.3 246.7,56.4 C241.2,55.8 230.3,55.9 225.8,56.5 Z" id="Path"></path>
                <path d="M524.6,56.5 C509.4,58.7 496.3,65 486.1,74.8 C478.4,82.2 473.4,89.5 469.4,99.2 C462.8,115.4 461.3,135.7 465.5,153.9 C470.4,175.1 484,192.6 502.3,201.2 C512.5,206 521.1,207.9 533.6,207.9 C545.7,207.9 553.8,206.3 564.2,201.9 C571.6,198.8 578.4,194.3 584.2,188.7 C595.8,177.6 602.2,165.5 605.5,148.4 C607.8,136.3 607.3,119.3 604.2,107.7 C598.8,87.9 586.7,72.3 569.8,63.6 C562.5,59.8 555.2,57.6 546.9,56.3 C542,55.8 529.5,55.9 524.6,56.5 Z M539,89 C549.6,90.4 556.9,96.2 562.1,107.3 C570.4,125 568.6,149.2 557.8,163.2 C553.2,169.2 546.5,173.5 539.9,174.6 C535.7,175.3 534.1,175.3 530,174.6 C521.2,173 513,166.4 508.3,157 C498.5,137.3 502.1,108.7 516.1,95.9 C520.3,92 524.7,90 530.7,89.1 C535.5,88.5 535.2,88.5 539,89 Z" id="Shape"></path>
                <path d="M868.1,59.3 C868.3,60.1 890.2,115.4 904.8,151.6 C906.6,156 910.8,166.6 914.2,175.1 C917.6,183.6 920.7,191.3 921,192.1 C921.6,193.5 921.6,193.7 920.4,196.2 C916.8,204 911.4,211.6 905.3,217.5 C898.5,224 891.5,228.2 882.3,231.2 C879.7,232 877.4,232.9 877.2,233 C877,233.2 878.1,237.5 879.7,242.8 C881.3,248 883.5,255.3 884.6,259.1 L886.6,265.8 L888.7,265.7 C894.8,265.4 903.7,262.6 911.7,258.2 C929.9,248.3 941.9,234.3 955,207.5 C958.7,199.9 965.9,183.6 967.9,178.2 C968.4,176.8 977.3,153.6 978.8,149.8 C979.2,148.7 979.9,146.8 980.4,145.7 C980.8,144.6 981.6,142.6 982,141.4 C984.2,135.6 985,133.7 985.7,131.8 C986.1,130.7 986.8,128.7 987.3,127.5 C987.8,126.3 988.6,124.1 989.1,122.8 C990.4,119.3 1002.3,88.4 1008.3,72.6 C1011.1,65.2 1013.4,59 1013.4,58.8 C1013.4,58.6 1004,58.4 992.6,58.4 C981.2,58.4 971.8,58.4 971.8,58.5 C971.8,58.6 969,66.8 965.6,76.8 C962.2,86.8 958.9,96.8 958.1,99.1 C957.4,101.3 953.7,112.2 949.9,123.2 C946.1,134.2 943,143.6 942.9,144.2 C942.6,145.5 942.1,145.7 941.8,144.6 C941.5,143.7 933.5,121.6 932.4,118.9 C932.1,118.1 931.4,116.1 930.8,114.4 C930.2,112.7 929.5,110.7 929.2,109.9 C928.9,109.1 927.9,106.4 927,104 C926.1,101.5 923.4,94.2 921,87.7 C918.6,81.2 915.9,73.8 915,71.4 C914.1,68.9 913.2,66.3 912.8,65.5 C912.5,64.7 911.8,62.9 911.3,61.4 L910.3,58.7 L889.1,58.6 L867.9,58.5 L868.1,59.3 Z" id="Path"></path>
            </g>
            <path d="M606,228 L747.7,228 L747.7,303.4 L606,303.4 L606,228 Z M648.053481,278.038949 C646.320669,278.732074 643.374889,279.309678 640.71791,279.309678 C632.862496,279.309678 628.241664,274.400044 628.241664,266.60239 C628.241664,257.93833 633.671142,253.72182 640.66015,253.72182 C643.779212,253.72182 646.262909,254.414945 648.053481,255.16583 L649.844054,248.176822 C648.284523,247.368176 644.818899,246.44401 640.255827,246.44401 C628.472706,246.44401 619,253.837341 619,267.122233 C619,278.21223 625.931248,286.587488 639.389421,286.587488 C644.125774,286.587488 647.764679,285.721082 649.38197,284.912436 L648.053481,278.038949 Z M678.26217,286.009884 C677.973368,284.450353 677.857848,281.851135 677.857848,279.136396 L677.857848,269.317128 C677.857848,262.674682 674.854307,257.129684 665.439362,257.129684 C660.298686,257.129684 656.428739,258.515934 654.464886,259.613381 L656.082177,265.2739 C657.93051,264.118692 660.991811,263.136766 663.879831,263.136766 C668.211861,263.136766 669.020506,265.2739 669.020506,266.775671 L669.020506,267.179994 C659.027957,267.122233 652.443272,270.645618 652.443272,277.981188 C652.443272,282.4865 655.851135,286.645248 661.569415,286.645248 C664.919518,286.645248 667.807538,285.43228 669.655871,283.179624 L669.829152,283.179624 L670.348996,286.009884 L678.26217,286.009884 Z M669.309308,275.728533 C669.309308,276.248376 669.251548,276.76822 669.136027,277.230303 C668.558423,279.020876 666.767851,280.464886 664.572956,280.464886 C662.609102,280.464886 661.107332,279.367438 661.107332,277.114782 C661.107332,273.706919 664.688476,272.609471 669.309308,272.667232 L669.309308,275.728533 Z M684.789096,286.009884 L693.568676,286.009884 L693.568676,271.685305 C693.568676,270.99218 693.626437,270.299055 693.741958,269.721451 C694.319562,267.006712 696.514457,265.2739 699.749039,265.2739 C700.730966,265.2739 701.481851,265.389421 702.117216,265.504942 L702.117216,257.245205 C701.481851,257.129684 701.077528,257.129684 700.268883,257.129684 C697.554144,257.129684 694.08852,258.862496 692.64451,262.963484 L692.413468,262.963484 L692.124666,257.765048 L684.558054,257.765048 C684.673575,260.190985 684.789096,262.905724 684.789096,267.064473 L684.789096,286.009884 Z M724.874813,245 L724.874813,260.306506 L724.759292,260.306506 C723.488564,258.342652 720.773825,257.129684 717.308201,257.129684 C710.550234,257.129684 704.600913,262.616922 704.658673,272.147388 C704.658673,280.926969 710.03039,286.645248 716.730597,286.645248 C720.369502,286.645248 723.777366,285.027957 725.567938,281.851135 L725.683459,281.851135 L726.087782,286.009884 L733.885436,286.009884 C733.769915,284.103791 733.654394,280.753688 733.654394,277.576866 L733.654394,245 L724.874813,245 Z M724.874813,273.418117 C724.874813,274.169002 724.817053,274.804366 724.643772,275.439731 C724.123928,277.923428 722.102314,279.65624 719.560856,279.65624 C715.921951,279.65624 713.553775,276.652699 713.553775,271.858586 C713.553775,267.411035 715.633149,263.82989 719.618617,263.82989 C722.333356,263.82989 724.239449,265.793744 724.759292,268.16192 C724.817053,268.624004 724.874813,269.259368 724.874813,269.721451 L724.874813,273.418117 Z" id="Combined-Shape"></path>
        </g>
    </g>
</svg>