<?xml version="1.0" encoding="UTF-8"?>
<svg width="149px" height="40px" viewBox="0 0 149 40" version="1.1" xmlns="http://www.w3.org/2000/svg" xmlns:xlink="http://www.w3.org/1999/xlink">
    <!-- Generator: Sketch 46.2 (44496) - http://www.bohemiancoding.com/sketch -->
    <title>banbif</title>
    <desc>Created with Sketch.</desc>
    <defs></defs>
    <g id="Footer" stroke="none" stroke-width="1" fill="none" fill-rule="evenodd">
        <g id="banbif" fill="#346275">
            <g id="logo">
                <path d="M123.486536,7.73464052 C121.214641,8.62875817 119.779346,5.45490196 120.615948,4.01960784 C120.817255,3.5124183 121.766275,2.33071895 123.439477,2.77777778 C125.779346,3.42614379 125.779346,6.84052288 123.486536,7.73464052 M124.814641,0.597385621 C121.342745,-0.328104575 119.397647,2.12679739 118.976732,3.14901961 C117.240784,6.12418301 120.218562,12.6601307 124.916601,10.8196078 C129.614641,8.97647059 129.614641,1.92287582 124.814641,0.597385621" id="Fill-1"></path>
                <path d="M103.950327,33.0028758 L95.8562092,33.0028758 L95.8562092,23.5048366 L103.950327,23.5048366 C108.086275,23.5048366 108.67451,24.5166013 108.67451,28.2734641 C108.67451,31.9362092 108.044444,33.0028758 103.950327,33.0028758 L103.950327,33.0028758 Z M95.8562092,8.3675817 L102.938562,8.3675817 C107.239216,8.3675817 107.662745,9.59895425 107.662745,12.6028758 C107.662745,15.8630065 107.019608,16.8747712 102.938562,16.8747712 L95.8562092,16.8747712 L95.8562092,8.3675817 Z M112.640523,19.8865359 C115.36732,17.9022222 115.801307,14.7414379 115.801307,11.9989542 C115.801307,4.81464052 112.067974,1.75058824 103.343791,1.75058824 L91.8849673,1.75058824 C88.7633987,1.75058824 87.9163399,2.19503268 87.9163399,5.36104575 L87.9163399,36.0172549 C87.9163399,39.1780392 88.7633987,39.6277124 91.8849673,39.6277124 L104.347712,39.6277124 C113.197386,39.6277124 116.802614,36.5113725 116.802614,28.88 C116.802614,25.2564706 116.214379,21.7505882 112.640523,19.8865359 L112.640523,19.8865359 Z" id="Fill-4"></path>
                <path d="M123.486536,12.8 L123.481307,12.8 C120.383268,12.8 119.713987,13.4457516 119.713987,16.4156863 L119.713987,36.0183007 C119.713987,38.9856209 120.383268,39.6287582 123.481307,39.6287582 L123.486536,39.6287582 C126.581961,39.6287582 127.243399,38.9856209 127.243399,36.0183007 L127.243399,16.4156863 C127.243399,13.4457516 126.581961,12.8 123.486536,12.8" id="Fill-6"></path>
                <path d="M17.1547712,33.0028758 L9.06065359,33.0028758 L9.06065359,23.5048366 L17.1547712,23.5048366 C21.290719,23.5048366 21.8789542,24.5166013 21.8789542,28.2734641 C21.8789542,31.9362092 21.2593464,33.0028758 17.1547712,33.0028758 L17.1547712,33.0028758 Z M9.06065359,8.3675817 L16.1482353,8.3675817 C20.4488889,8.3675817 20.8724183,9.59895425 20.8724183,12.6028758 C20.8724183,15.8630065 20.2135948,16.8747712 16.1482353,16.8747712 L9.06065359,16.8747712 L9.06065359,8.3675817 Z M25.8501961,19.8865359 C28.5665359,17.9022222 29.0109804,14.7414379 29.0109804,11.9989542 C29.0109804,4.81464052 25.2828758,1.75058824 16.5482353,1.75058824 L5.08941176,1.75058824 C1.96784314,1.75058824 1.1103268,2.19503268 1.1103268,5.36104575 L1.1103268,36.0172549 C1.1103268,39.1780392 1.96784314,39.6277124 5.08941176,39.6277124 L17.5573856,39.6277124 C26.4018301,39.6277124 30.0070588,36.5113725 30.0070588,28.88 C30.0070588,25.2564706 29.4188235,21.7505882 25.8501961,19.8865359 L25.8501961,19.8865359 Z" id="Fill-8"></path>
                <path d="M49.4873203,31.3254902 C46.5775163,32.5803922 44.2794771,33.4091503 42.5879739,33.4091503 C41.4768627,33.4091503 40.4284967,33.4091503 40.4284967,26.2143791 C40.4284967,18.9777778 41.5265359,18.9777778 42.5879739,18.9777778 C44.3239216,18.9777778 46.6062745,19.8169935 49.4873203,21.1111111 L49.4873203,31.3254902 Z M53.1945098,12.8026144 C50.7735948,12.8026144 49.8664052,13.2026144 49.589281,14.8444444 C46.1984314,13.4117647 43.416732,12.5594771 40.6271895,12.5594771 C34.995817,12.5594771 32.8964706,16.2614379 32.8964706,26.2143791 C32.8964706,36.1751634 34.995817,39.8875817 40.6271895,39.8875817 C43.5030065,39.8875817 46.3579085,38.9856209 49.5997386,37.5607843 C49.8899346,39.1581699 50.8206536,39.5712418 53.2206536,39.5712418 C56.3030065,39.5712418 56.9670588,38.9228758 56.9670588,35.9555556 L56.9670588,16.4183007 C56.9670588,13.4117647 56.3396078,12.8026144 53.1945098,12.8026144 L53.1945098,12.8026144 Z" id="Fill-11"></path>
                <path d="M76.8820915,12.56 C74.1003922,12.56 71.3056209,13.4122876 67.9304575,14.8449673 C67.6559477,13.2031373 66.7356863,12.8031373 64.3147712,12.8031373 C61.1801307,12.8031373 60.547451,13.4122876 60.547451,16.4188235 L60.547451,36.0188235 C60.547451,38.9835294 61.2115033,39.6318954 64.3016993,39.6318954 C67.3579085,39.6318954 68.0324183,38.9835294 68.0324183,36.0188235 L68.0324183,21.111634 C70.9134641,19.814902 73.195817,18.9783007 74.9213072,18.9783007 C75.4833987,18.9783007 76.0559477,18.9992157 76.4637908,20.0554248 C76.7644444,21.0724183 76.72,22.5835294 76.72,22.5835294 L76.72,36.0188235 C76.72,38.9835294 77.3971242,39.629281 80.5422222,39.629281 C83.6847059,39.629281 84.3566013,38.9835294 84.3566013,36.0188235 L84.3566013,22.8894118 C84.3566013,22.8894118 84.3330719,20.4554248 84.1186928,19.4750327 C83.0598693,14.5652288 80.9971242,12.56 76.8820915,12.56" id="Fill-13"></path>
                <path d="M143.023007,8.4648366 C143.579869,8.43346405 147.80732,8.83869281 147.91451,5.19163399 C147.995556,2.66352941 146.536732,1.82169935 143.517124,1.75111111 C141.940654,1.7145098 140.246536,1.69620915 138.722353,2.00993464 C136.860915,2.41777778 135.250458,3.20993464 134.521046,4.53281046 C133.948497,5.59947712 133.55634,7.01908497 133.300131,8.88836601 C133.153725,10.109281 133.059608,11.3197386 133.015163,12.8230065 C130.471373,12.8413072 129.242614,13.0661438 129.242614,15.9341176 C129.242614,18.7445752 130.534118,18.9772549 132.999477,18.9981699 L132.999477,36.0386928 C132.999477,39.0060131 133.658301,39.6491503 136.753725,39.6491503 C139.851765,39.6491503 140.526275,39.0060131 140.526275,36.0386928 L140.526275,18.9981699 L142.502745,18.9981699 C145.177255,18.9981699 146.575948,18.8517647 146.575948,15.9341176 C146.575948,12.9589542 145.263529,12.8230065 142.502745,12.8230065 L140.536732,12.8230065 C140.536732,9.90535948 140.178562,8.4648366 143.023007,8.4648366" id="Fill-15"></path>
            </g>
        </g>
    </g>
</svg>