<?xml version="1.0" encoding="UTF-8" standalone="no"?>
<svg width="190px" height="40px" viewBox="0 0 190 40" version="1.1" xmlns="http://www.w3.org/2000/svg" xmlns:xlink="http://www.w3.org/1999/xlink">
    <!-- Generator: Sketch 39.1 (31720) - http://www.bohemiancoding.com/sketch -->
    <title>bank</title>
    <desc>Created with Sketch.</desc>
    <defs></defs>
    <g id="Payments" stroke="none" stroke-width="1" fill="none" fill-rule="evenodd">
        <g id="bank" fill="#346275">
            <g>
                <path d="M39.6,17.8 L3.4,17.8 L3.4,34.9 L0.3,34.9 L0.3,40 L42.7,40 L42.7,34.9 L39.6,34.9 L39.6,17.8 L39.6,17.8 L39.6,17.8 Z M12.9,34.9 L7.6,34.9 L7.6,21.7 C7.6,20.2 8.8,19 10.3,19 C11.8,19 13,20.2 13,21.7 L13,34.9 L12.9,34.9 Z M24.2,34.9 L18.9,34.9 L18.9,21.7 C18.9,20.2 20.1,19 21.6,19 C23.1,19 24.3,20.2 24.3,21.7 L24.3,34.9 L24.2,34.9 Z M35.3,34.9 L30,34.9 L30,21.7 C30,20.2 31.2,19 32.7,19 C34.2,19 35.4,20.2 35.4,21.7 L35.3,34.9 Z M41.6,14.2 L41.6,12.7 L21.5,0 L1.4,12.7 L1.4,14.2 L0,14.2 L0,16.3 L43,16.3 L43,14.2 L41.6,14.2 L41.6,14.2 Z M21.5,5.5 C23.3,5.5 24.8,7 24.8,8.8 C24.8,10.6 23.3,12.1 21.5,12.1 C19.7,12.1 18.2,10.6 18.2,8.8 C18.2,7 19.7,5.5 21.5,5.5 Z"></path>
                <path d="M51,28.112 C51.792,28.28 53.256,28.4 55.08,28.4 C57.768,28.4 59.808,28.016 61.176,27.104 C62.448,26.264 63.384,24.992 63.384,23.264 C63.384,21.488 62.4,20.216 60.84,19.736 L60.84,19.664 C62.592,19.16 64.104,17.864 64.104,15.824 C64.104,14.456 63.312,13.424 62.232,12.872 C61.152,12.224 59.904,12.008 58.224,12.008 C56.616,12.008 55.128,12.176 53.976,12.392 L51,28.112 Z M56.952,14.816 C57.216,14.744 57.696,14.696 58.296,14.696 C59.616,14.696 60.576,15.2 60.576,16.376 C60.576,17.744 59.28,18.56 57.384,18.56 L56.232,18.56 L56.952,14.816 Z M55.704,21.08 L56.784,21.08 C58.392,21.08 59.736,21.56 59.736,23.168 C59.736,24.968 58.032,25.712 56.16,25.712 C55.656,25.712 55.248,25.688 54.84,25.64 L55.704,21.08 Z M75.672,28.304 C75.624,26.84 75.84,24.536 76.128,23.024 L77.376,16.88 C76.392,16.568 74.88,16.304 73.488,16.304 C67.704,16.304 65.088,20.528 65.088,24.488 C65.088,26.936 66.528,28.568 68.64,28.568 C70.008,28.568 71.496,27.92 72.576,25.976 L72.648,25.976 C72.576,26.816 72.504,27.608 72.48,28.304 L75.672,28.304 Z M72.936,21.728 C72.408,24.608 71.136,25.784 70.104,25.784 C69.144,25.784 68.688,24.992 68.688,23.84 C68.688,21.656 70.32,18.92 72.552,18.92 C72.888,18.92 73.224,18.968 73.488,19.016 L72.936,21.728 Z M81.672,28.304 L82.656,23.096 C83.136,20.504 84.456,19.088 85.584,19.088 C86.448,19.088 86.736,19.664 86.736,20.48 C86.736,20.912 86.688,21.392 86.616,21.8 L85.392,28.304 L88.848,28.304 L90.144,21.488 C90.24,20.912 90.336,20.024 90.336,19.496 C90.336,17.48 89.256,16.304 87.336,16.304 C85.776,16.304 84.312,16.976 83.208,18.512 L83.16,18.512 L83.4,16.568 L80.328,16.568 C80.184,17.6 79.992,18.896 79.704,20.384 L78.216,28.304 L81.672,28.304 Z M95.16,28.304 L95.88,24.512 L97.176,23.288 L99.24,28.304 L103.08,28.304 L99.816,21.392 L104.808,16.568 L100.56,16.568 L97.56,20.12 C97.224,20.552 96.864,21.008 96.504,21.464 L96.456,21.464 L98.376,11.264 L94.944,11.264 L91.728,28.304 L95.16,28.304 Z M106.68,28.304 L110.136,28.304 L112.608,15.152 L116.928,15.152 L117.504,12.128 L105.48,12.128 L104.88,15.152 L109.152,15.152 L106.68,28.304 Z M118.416,28.304 L119.232,23.936 C119.664,21.632 120.696,19.664 122.904,19.664 C123.096,19.664 123.288,19.664 123.456,19.688 L124.128,16.328 C123.912,16.304 123.696,16.304 123.48,16.304 C121.872,16.304 120.552,17.408 119.736,18.968 L119.664,18.968 C119.736,18.152 119.808,17.36 119.88,16.568 L116.88,16.568 C116.76,17.576 116.616,19.544 116.28,21.32 L114.96,28.304 L118.416,28.304 Z M134.496,28.304 C134.448,26.84 134.664,24.536 134.952,23.024 L136.2,16.88 C135.216,16.568 133.704,16.304 132.312,16.304 C126.528,16.304 123.912,20.528 123.912,24.488 C123.912,26.936 125.352,28.568 127.464,28.568 C128.832,28.568 130.32,27.92 131.4,25.976 L131.472,25.976 C131.4,26.816 131.328,27.608 131.304,28.304 L134.496,28.304 Z M131.76,21.728 C131.232,24.608 129.96,25.784 128.928,25.784 C127.968,25.784 127.512,24.992 127.512,23.84 C127.512,21.656 129.144,18.92 131.376,18.92 C131.712,18.92 132.048,18.968 132.312,19.016 L131.76,21.728 Z M140.496,28.304 L141.48,23.096 C141.96,20.504 143.28,19.088 144.408,19.088 C145.272,19.088 145.56,19.664 145.56,20.48 C145.56,20.912 145.512,21.392 145.44,21.8 L144.216,28.304 L147.672,28.304 L148.968,21.488 C149.064,20.912 149.16,20.024 149.16,19.496 C149.16,17.48 148.08,16.304 146.16,16.304 C144.6,16.304 143.136,16.976 142.032,18.512 L141.984,18.512 L142.224,16.568 L139.152,16.568 C139.008,17.6 138.816,18.896 138.528,20.384 L137.04,28.304 L140.496,28.304 Z M150.144,27.632 C150.84,28.16 152.256,28.544 153.744,28.544 C156.84,28.544 159.12,27.104 159.12,24.416 C159.12,22.784 157.776,21.848 156.504,21.2 C155.544,20.744 155.064,20.336 155.064,19.856 C155.064,19.232 155.688,18.824 156.6,18.824 C157.632,18.824 158.448,19.112 158.952,19.352 L159.768,16.904 C159.192,16.568 158.112,16.304 156.744,16.304 C153.72,16.304 151.584,17.912 151.584,20.336 C151.584,21.8 152.712,22.784 154.08,23.456 C155.16,23.984 155.544,24.392 155.544,24.968 C155.544,25.544 155.04,26.024 154.056,26.024 C152.928,26.024 151.656,25.544 150.984,25.208 L150.144,27.632 Z M164.376,28.304 L166.08,19.184 L168.384,19.184 L168.888,16.568 L166.56,16.568 L166.68,15.992 C166.896,14.816 167.592,13.832 168.696,13.832 C169.152,13.832 169.512,13.904 169.824,14.048 L170.424,11.288 C170.04,11.12 169.416,11 168.576,11 C167.424,11 166.176,11.312 165.24,12.128 C164.064,13.112 163.512,14.576 163.272,15.944 L163.152,16.568 L161.64,16.568 L161.136,19.184 L162.648,19.184 L160.944,28.304 L164.376,28.304 Z M178.008,25.136 C177.072,25.592 175.992,25.88 174.72,25.88 C173.712,25.88 172.92,25.568 172.464,24.968 C172.224,24.632 172.104,24.104 172.104,23.768 C176.808,23.888 179.712,22.808 179.712,19.808 C179.712,17.624 178.008,16.304 175.632,16.304 C171.384,16.304 168.792,20.024 168.792,23.6 C168.792,26.648 170.52,28.544 173.88,28.544 C175.176,28.544 176.88,28.328 178.248,27.632 L178.008,25.136 Z M176.472,19.832 C176.472,20.888 175.128,21.272 172.44,21.248 C172.68,20.144 173.592,18.824 175.2,18.824 C175.992,18.824 176.472,19.232 176.472,19.832 L176.472,19.832 Z M183.912,28.304 L184.728,23.936 C185.16,21.632 186.192,19.664 188.4,19.664 C188.592,19.664 188.784,19.664 188.952,19.688 L189.624,16.328 C189.408,16.304 189.192,16.304 188.976,16.304 C187.368,16.304 186.048,17.408 185.232,18.968 L185.16,18.968 C185.232,18.152 185.304,17.36 185.376,16.568 L182.376,16.568 C182.256,17.576 182.112,19.544 181.776,21.32 L180.456,28.304 L183.912,28.304 Z" id="BankTransfer"></path>
            </g>
        </g>
    </g>
</svg>