<?xml version="1.0" encoding="UTF-8"?>
<svg width="389px" height="40px" viewBox="0 0 389 40" version="1.1" xmlns="http://www.w3.org/2000/svg" xmlns:xlink="http://www.w3.org/1999/xlink">
    <!-- Generator: Sketch 46.2 (44496) - http://www.bohemiancoding.com/sketch -->
    <title>bbva</title>
    <desc>Created with Sketch.</desc>
    <defs></defs>
    <g id="Footer" stroke="none" stroke-width="1" fill="none" fill-rule="evenodd">
        <g id="bbva" fill="#346275">
            <g id="logo">
                <path d="M178.487158,35.6782737 L178.487158,35.6782737 C172.664,35.6782737 169.236632,31.5772211 169.236632,24.6635368 C169.236632,17.8340632 172.664,13.6614316 178.487158,13.6614316 C184.293474,13.6614316 187.762947,17.8340632 187.762947,24.6635368 C187.762947,31.5772211 184.293474,35.6782737 178.487158,35.6782737 L178.487158,35.6782737 Z M211.842947,10.4403789 C208.019789,10.4403789 204.209263,11.8382737 200.651368,14.3730105 L200.651368,14.1540632 C200.651368,12.0698526 200.504,10.7982737 198.575579,10.7982737 L196.752421,10.7982737 L196.752421,39.1435368 L200.651368,39.1435368 L200.651368,18.1751158 C204.373474,15.2993263 207.788211,14.0066947 210.870316,14.0066947 C214.188211,14.0066947 215.544,15.2866947 215.544,18.7182737 L215.544,39.1435368 L219.434526,39.1435368 L219.434526,18.3014316 C219.434526,13.1982737 216.849263,10.4403789 211.842947,10.4403789 L211.842947,10.4403789 Z M230.988211,32.0824842 L230.988211,13.9182737 L238.200842,13.9182737 L238.200842,10.6424842 L230.988211,10.6424842 L230.988211,3.03406316 L227.089263,3.03406316 L227.089263,10.6424842 L223.455579,10.6424842 L223.455579,13.9182737 L227.089263,13.9182737 L227.089263,32.3856421 C227.089263,36.7435368 229.417684,39.1435368 234.120842,39.1435368 C235.716632,39.1435368 237.346105,38.9456421 238.226105,38.7014316 L238.701895,38.6003789 L238.701895,35.5982737 L235.000842,35.5982737 C231.948211,35.5982737 230.988211,34.7140632 230.988211,32.0824842 L230.988211,32.0824842 Z M246.605053,3.06774737 C245.320842,3.06774737 244.217684,4.21722105 244.217684,5.59406316 C244.217684,6.89090526 245.304,7.99406316 246.605053,7.99406316 C247.927158,7.99406316 249.005053,6.89090526 249.005053,5.59406316 C249.005053,4.21722105 247.876632,3.06774737 246.605053,3.06774737 L246.605053,3.06774737 Z M246.141895,10.7982737 L244.588211,10.7982737 L244.588211,39.1435368 L248.495579,39.1435368 L248.495579,14.2214316 C248.495579,11.7961684 248.339789,10.7982737 246.141895,10.7982737 L246.141895,10.7982737 Z M270.188211,10.4403789 C266.440842,10.4403789 262.664,11.8382737 258.996632,14.3730105 L258.996632,14.1540632 C258.996632,12.0698526 258.857684,10.7982737 256.941895,10.7982737 L255.148211,10.7982737 L255.148211,39.1435368 L258.996632,39.1435368 L258.996632,18.1751158 C262.811368,15.2993263 266.133474,14.0066947 269.194526,14.0066947 C272.638737,14.0066947 273.956632,15.2866947 273.956632,18.7182737 L273.956632,39.1435368 L277.885053,39.1435368 L277.885053,18.3014316 C277.885053,13.1982737 275.181895,10.4403789 270.188211,10.4403789 L270.188211,10.4403789 Z M326.546105,10.4403789 C322.706105,10.4403789 319.021895,11.8382737 315.354526,14.3730105 L315.354526,14.1540632 C315.354526,12.0698526 315.232421,10.7982737 313.299789,10.7982737 L311.430316,10.7982737 L311.430316,39.1435368 L315.354526,39.1435368 L315.354526,18.1751158 C319.152421,15.2993263 322.508211,14.0066947 325.577684,14.0066947 C328.857684,14.0066947 330.335579,15.2866947 330.335579,18.7182737 L330.335579,39.1435368 L334.259789,39.1435368 L334.259789,18.3014316 C334.259789,13.1982737 331.556632,10.4403789 326.546105,10.4403789 L326.546105,10.4403789 Z M345.501895,32.0824842 L345.501895,13.9182737 L352.731368,13.9182737 L352.731368,10.6424842 L345.501895,10.6424842 L345.501895,3.03406316 L341.594526,3.03406316 L341.594526,10.6424842 L337.969263,10.6424842 L337.969263,13.9182737 L341.594526,13.9182737 L341.594526,32.3856421 C341.594526,36.7435368 343.948211,39.1435368 348.634526,39.1435368 C350.221895,39.1435368 351.885053,38.9456421 352.756632,38.7014316 L353.173474,38.6003789 L353.173474,35.5982737 L349.522947,35.5982737 C346.487158,35.5982737 345.501895,34.7140632 345.501895,32.0824842 L345.501895,32.0824842 Z M385.741895,1.58985263 L384.217684,1.58985263 L384.217684,39.1435368 L388.141895,39.1435368 L388.141895,4.69301053 C388.141895,2.49090526 387.935579,1.58985263 385.741895,1.58985263 L385.741895,1.58985263 Z M373.939789,31.8424842 L373.939789,31.8424842 C372.946105,32.9582737 371.901895,33.9309053 370.676632,34.5330105 C369.308211,35.3203789 367.805053,35.6488 365.733474,35.6488 C364.870316,35.6488 364.053474,35.5898526 363.312421,35.4045895 C362.845053,35.2993263 362.318737,35.0593263 361.948211,34.7140632 C361.282947,34.3898526 360.857684,33.8888 360.541895,33.1351158 C360.091368,32.4109053 359.935579,31.4803789 359.935579,30.3266947 C359.935579,29.4214316 360.091368,28.6172211 360.541895,28.0488 C360.790316,27.5393263 361.085053,27.1393263 361.602947,26.8235368 C362.179789,26.2172211 363.051368,25.9056421 364.104,25.5435368 C365.122947,25.2782737 366.293474,25.1688 367.666105,25.1688 C369.969263,25.1688 372.015579,25.4130105 373.939789,25.9519579 L373.939789,31.8424842 Z M375.586105,12.6298526 C374.819789,11.7582737 373.699789,11.1098526 372.310316,10.7645895 C371.093474,10.3351158 369.556632,10.2045895 368.028211,10.2045895 C362.672421,10.2130105 359.645053,11.8382737 357.666105,12.9666947 C359.038737,16.0361684 360.668211,15.2530105 362.672421,14.3645895 C364.129263,13.7835368 365.914526,13.4298526 367.796632,13.4298526 C368.676632,13.4298526 369.497684,13.7077474 370.419789,13.9182737 C371.034526,14.0193263 371.438737,14.1919579 371.931368,14.3898526 C372.491368,14.8951158 373.026105,15.2993263 373.337684,16.0277474 C373.741895,16.6845895 373.939789,17.4509053 373.939789,18.5372211 L373.939789,22.6003789 C371.901895,22.1877474 369.817684,22.0109053 367.426105,22.0109053 C365.855579,22.0109053 364.301895,22.1582737 362.937684,22.4319579 C361.922947,22.8235368 360.996632,23.0845895 360.066105,23.4677474 C358.857684,24.2088 357.830316,25.1645895 357.064,26.2972211 C356.293474,27.5014316 355.969263,28.9835368 355.969263,30.5582737 C355.969263,31.9730105 356.150316,33.1603789 356.701895,34.2088 C357.312421,35.7372211 358.617684,37.0593263 360.015579,37.8761684 C361.653474,38.6256421 363.312421,39.1435368 365.304,39.1435368 L365.312421,39.1435368 C367.699789,39.1435368 369.426105,38.6003789 371.059789,37.9603789 C372.129263,37.3961684 373.076632,36.7014316 373.939789,36.0361684 C373.948211,36.3940632 373.973474,36.6214316 374.007158,36.9919579 C374.053474,37.3119579 374.129263,37.5224842 374.226105,37.7203789 C374.310316,38.0109053 374.398737,38.1835368 374.546105,38.3266947 C374.891368,38.4951158 375.156632,38.5877474 375.379789,38.6424842 C375.796632,38.7182737 376.095579,38.7351158 376.398737,38.7351158 L377.864,38.7351158 L377.864,18.4024842 C377.864,17.0298526 377.501895,15.8130105 377.114526,14.7140632 C376.786105,13.9056421 376.251368,13.1603789 375.586105,12.6298526 L375.586105,12.6298526 Z M149.624,4.68037895 C150.478737,4.68037895 151.291368,4.73090526 152.007158,4.80669474 C153.535579,4.95406316 154.802947,5.32037895 155.813474,5.89722105 C155.889263,5.91406316 155.931368,5.91406316 155.952421,5.94353684 C156.087158,6.01932632 156.226105,6.09511579 156.331368,6.16669474 C156.466105,6.25090526 156.676632,6.33090526 156.832421,6.5288 C156.866105,6.5288 156.866105,6.56248421 156.866105,6.56248421 C156.992421,6.62985263 157.106105,6.68458947 157.202947,6.73090526 C157.295579,6.81090526 157.392421,6.87406316 157.468211,6.94143158 C157.771368,7.18564211 158.045053,7.52248421 158.322947,7.69511579 C158.571368,7.86774737 158.849263,8.10774737 159.169263,8.22985263 C160.162947,8.88669474 161.152421,8.88669474 162.655579,7.15195789 C162.238737,6.38985263 161.645053,5.84248421 161.194526,5.27406316 C158.584,2.74774737 155.779789,1.95616842 154.680842,1.67827368 C154.655579,1.67827368 154.647158,1.67827368 154.638737,1.66143158 L154.638737,1.67827368 C153.855579,1.51827368 152.975579,1.26564211 152.007158,1.1688 C151.266105,1.09722105 150.402947,1.05090526 149.455579,1.05090526 C141.232421,1.05090526 132.929263,6.92458947 132.929263,20.0235368 L132.929263,20.1077474 L132.929263,20.1877474 C132.929263,33.2361684 141.232421,39.1435368 149.455579,39.1435368 C150.402947,39.1435368 151.266105,39.0635368 152.007158,39.0045895 C152.975579,38.7982737 153.855579,38.6845895 154.638737,38.5203789 L154.680842,38.5203789 C155.779789,38.2298526 158.584,37.4509053 161.194526,34.9245895 C161.645053,34.3603789 162.238737,33.6740632 162.655579,33.0509053 C161.152421,31.2824842 160.162947,31.2824842 159.169263,31.9561684 C158.849263,32.0993263 158.571368,32.2677474 158.322947,32.4993263 C158.045053,32.6888 157.771368,33.0130105 157.468211,33.2235368 C157.392421,33.3119579 157.295579,33.3919579 157.202947,33.4635368 C157.106105,33.5224842 156.992421,33.5940632 156.866105,33.6361684 C156.866105,33.6361684 156.866105,33.6445895 156.832421,33.6445895 C156.676632,33.8719579 156.466105,33.9477474 156.331368,34.0530105 C156.226105,34.1077474 156.087158,34.1666947 155.952421,34.2088 C155.931368,34.2677474 155.889263,34.2677474 155.813474,34.2930105 C154.802947,34.7309053 153.535579,35.2403789 152.007158,35.3961684 C151.291368,35.4888 150.478737,35.5266947 149.624,35.5266947 C141.851368,35.5266947 137.055579,29.6361684 137.055579,20.2677474 L137.055579,20.1498526 L137.055579,19.9351158 C137.055579,10.4403789 141.851368,4.68037895 149.624,4.68037895 L149.624,4.68037895 Z M286.293474,22.1245895 L286.293474,22.1245895 C286.470316,20.8782737 286.832421,19.7877474 287.186105,18.7898526 C287.969263,16.9961684 288.979789,15.7330105 290.230316,14.8909053 C291.522947,13.9814316 293.101895,13.6024842 294.887158,13.6024842 C296.053474,13.6024842 297.148211,13.7330105 298.074526,14.0445895 C298.781895,14.2551158 299.341895,14.6719579 299.952421,15.1056421 C300.765053,15.8719579 301.379789,16.7772211 301.906105,18.0235368 C302.255579,19.1182737 302.516632,20.4024842 302.584,22.1245895 L286.293474,22.1245895 Z M304.104,14.3098526 C303.076632,12.9835368 301.611368,11.9645895 300.154526,11.2066947 C298.520842,10.6424842 296.802947,10.2340632 294.887158,10.2340632 C293.051368,10.2340632 291.350316,10.6466947 289.842947,11.2488 C287.565053,12.2719579 285.657684,14.0445895 284.276632,16.3140632 C282.992421,18.7182737 282.238737,21.4298526 282.238737,24.8277474 C282.238737,26.9161684 282.600842,28.9077474 283.093474,30.5877474 C283.981895,33.2235368 285.434526,35.3582737 287.649263,36.7351158 C289.704,38.2719579 292.352421,39.0382737 295.485053,39.0382737 C298.074526,39.0382737 300.125053,38.5709053 301.800842,38.0445895 C304.398737,37.0466947 305.847158,35.7245895 306.432421,35.0972211 C304.579789,32.4277474 303.544,33.4803789 301.455579,34.4445895 C300.272421,35.0972211 297.944,35.5603789 295.821895,35.5603789 C294.154526,35.5603789 292.773474,35.3582737 291.522947,34.9372211 C290.722947,34.5330105 289.952421,34.1077474 289.211368,33.4930105 C288.247158,32.5919579 287.459789,31.4803789 286.996632,30.0614316 C286.529263,28.6930105 286.226105,27.2024842 286.184,25.3624842 L306.478737,25.3624842 L306.478737,24.8361684 L306.478737,24.5456421 C306.478737,24.3435368 306.495579,23.9645895 306.495579,23.4382737 C306.495579,21.2403789 306.285053,19.2824842 305.640842,17.7203789 C305.304,16.3351158 304.752421,15.2740632 304.104,14.3098526 L304.104,14.3098526 Z M97.4850526,25.3877474 L97.4850526,25.3877474 L102.621895,8.27195789 L107.788211,25.3877474 L97.4850526,25.3877474 Z M106.167158,1.57722105 L98.9966316,1.57722105 L87.5018947,39.1435368 L93.3882105,39.1435368 L95.8050526,31.0130105 L109.455579,31.0130105 L111.939789,39.1435368 L122.112421,39.1435368 L110.739789,5.28669474 C109.695579,2.21301053 109.127158,1.57722105 106.167158,1.57722105 L106.167158,1.57722105 Z M44.3818947,34.0698526 L44.3818947,34.0698526 L41.6955789,34.0698526 L41.6955789,6.36458947 L46.504,6.36458947 C48.8661053,6.36458947 50.8492632,8.28458947 50.8492632,10.6803789 C50.8492632,11.3961684 50.6682105,12.1961684 49.9018947,13.3119579 L46.8029474,18.0782737 C50.0324211,18.8909053 52.2050526,21.2909053 52.2050526,26.0193263 C52.2050526,31.6024842 48.8661053,34.0698526 44.3818947,34.0698526 L44.3818947,34.0698526 Z M53.8387368,16.2045895 L55.6576842,13.4719579 C59.5566316,7.76248421 56.9082105,1.57722105 49.1945263,1.57722105 L32.8450526,1.57722105 L32.8450526,39.1435368 L48.6092632,39.1435368 C62.5418947,39.1435368 66.6682105,22.9456421 53.8387368,16.2045895 L53.8387368,16.2045895 Z M12.5924211,34.0698526 L12.5924211,34.0698526 L9.93557895,34.0698526 L9.93557895,6.36458947 L14.7061053,6.36458947 C17.064,6.36458947 19.0724211,8.28458947 19.0724211,10.6803789 C19.0724211,11.3961684 18.9545263,12.1961684 18.1082105,13.3119579 L14.9755789,18.0782737 C18.2218947,18.8909053 20.4618947,21.2909053 20.4618947,26.0193263 C20.4618947,31.6024842 17.064,34.0698526 12.5924211,34.0698526 L12.5924211,34.0698526 Z M22.0829474,16.2045895 L23.8555789,13.4719579 C27.7629474,7.76248421 25.1145263,1.57722105 17.4597895,1.57722105 L1.05136842,1.57722105 L1.05136842,39.1435368 L16.824,39.1435368 C30.7313684,39.1435368 34.9250526,22.9456421 22.0829474,16.2045895 L22.0829474,16.2045895 Z M85.944,1.57722105 L77.4682105,30.0614316 L70.3355789,6.36458947 C69.0303158,2.16248421 68.3229474,1.57722105 65.7587368,1.57722105 L59.1355789,1.57722105 L71.4134737,39.1435368 L80.4282105,39.1435368 L91.9103158,1.57722105 L85.944,1.57722105 Z M178.487158,10.2509053 C170.453474,10.2509053 165.295579,15.9856421 165.295579,24.6635368 C165.295579,33.4382737 170.453474,39.1435368 178.487158,39.1435368 C186.512421,39.1435368 191.720842,33.4382737 191.720842,24.6635368 C191.720842,15.9856421 186.512421,10.2509053 178.487158,10.2509053 L178.487158,10.2509053 Z" id="Fill-1"></path>
            </g>
        </g>
    </g>
</svg>