<?xml version="1.0" encoding="UTF-8"?>
<svg width="158px" height="40px" viewBox="0 0 158 40" version="1.1" xmlns="http://www.w3.org/2000/svg" xmlns:xlink="http://www.w3.org/1999/xlink">
    <!-- Generator: Sketch 46.2 (44496) - http://www.bohemiancoding.com/sketch -->
    <title>bcp</title>
    <desc>Created with Sketch.</desc>
    <defs></defs>
    <g id="Footer" stroke="none" stroke-width="1" fill="none" fill-rule="evenodd">
        <g id="bcp" fill="#346275">
            <g id="logo">
                <path d="M73.5388235,4.04023529 C78.4470588,0.292 85.7623529,-0.926823529 92.1270588,0.715529412 C94.5129412,1.32964706 97.1835294,2.40494118 97.6752941,4.63788235 C97.72,6.46611765 96.8211765,8.20494118 96.4847059,10.0849412 C93.4705882,7.76023529 89.1317647,6.972 85.2658824,7.54847059 C80.9835294,8.18611765 77.9458824,11.2778824 76.3458824,14.4990588 C74.5317647,18.3602353 73.6823529,22.6684706 75.3364706,26.6331765 C76.2141176,28.7084706 78.2682353,30.5884706 80.8494118,31.1767059 C84.8752941,32.2825882 89.4023529,30.9649412 92.3717647,28.5767059 C91.7458824,30.8778824 91.4752941,33.2684706 90.7082353,35.5225882 C89.9035294,37.3931765 87.4094118,38.0849412 85.3623529,38.3461176 C79.7482353,39.1908235 73.3929412,38.2778824 69.4164706,34.5531765 C65.6517647,31.0778824 64.7623529,26.0590588 64.9270588,21.5672941 C65.1835294,15.1578824 67.72,8.47552941 73.5388235,4.04023529" id="Fill-1"></path>
                <path d="M40.8870588,21.2943529 C40.1647059,23.7743529 39.6964706,26.2684706 39.1270588,28.7131765 C38.9482353,29.8355294 38.2870588,30.9790588 39.2376471,31.9014118 C42.1129412,31.8896471 45.3270588,32.0284706 47.8870588,30.6637647 C51.0305882,29.1461176 52.0164706,25.0543529 49.4635294,22.7955294 C47.0964706,21.0402353 43.7270588,21.452 40.8870588,21.2943529 M44.1364706,6.97905882 C43.5341176,9.54847059 42.8494118,12.0802353 42.4682353,14.6331765 C42.3035294,15.3625882 43.3411765,15.7155294 44.0117647,15.5249412 C46.7976471,15.7155294 49.8447059,15.3625882 51.9388235,13.6402353 C53.76,11.9955294 53.9623529,8.72729412 51.3929412,7.56964706 C49.2423529,6.43552941 46.4611765,6.93905882 44.1364706,6.97905882 M36.4705882,1.47317647 C40.4588235,0.943764706 44.6517647,0.492 48.8282353,0.586117647 C52.7058824,0.715529412 56.72,1.44023529 59.6047059,3.78141176 C62.9929412,6.47552941 63.08,11.2967059 60.3764706,14.3978824 C58.7223529,16.2143529 56.2870588,17.6331765 53.6258824,18.0402353 C55.6752941,18.8002353 57.8164706,19.9625882 58.8282353,21.7202353 C61.3058824,25.9108235 59.9270588,31.4684706 55.7576471,34.4802353 C52.4164706,37.1296471 47.8635294,38.0567059 43.5152941,38.2684706 C40.24,38.3461176 36.92,38.2778824 33.8517647,37.4261176 C32.1976471,36.9343529 30.8141176,35.8543529 30.24,34.4308235 C29.4847059,32.4778824 29.8117647,30.2661176 30.2352941,28.2449412 C32.3811765,19.3508235 34.2917647,10.4190588 36.4705882,1.47317647" id="Fill-3"></path>
                <path d="M112.132471,7.23858824 C111.308941,10.8221176 110.483059,14.3421176 109.774824,17.8221176 C109.508941,18.5468235 110.151294,19.2503529 110.908941,19.5091765 C113.061882,19.9303529 115.497176,19.528 117.546588,18.6032941 C121.254824,16.8009412 122.831294,12.4927059 121.111294,9.208 C119.356,6.53976471 115.203059,7.02682353 112.132471,7.23858824 M103.892471,1.79623529 C106.751294,1.01505882 109.866588,0.979764706 112.803059,0.749176471 C116.967765,0.704470588 121.365412,0.942117647 124.972471,2.74211765 C127.866588,4.01976471 129.544235,6.67152941 129.857176,9.28094118 C130.791294,15.1421176 127.339529,21.3091765 121.076,24.2150588 C116.916,26.1421176 111.988941,26.248 107.426588,25.9985882 C106.678353,28.9609412 106.094824,31.8291765 105.285412,34.7397647 C104.944235,36.1821176 103.699529,37.7068235 101.843059,38.2291765 C99.7654118,38.3609412 97.5771765,38.2409412 95.4877647,38.2856471 C98.3771765,26.0785882 100.951294,13.8597647 103.892471,1.79623529" id="Fill-5"></path>
                <path d="M134.090118,9.84211765 C135.339529,7.26094118 137.214824,4.50329412 140.381882,3.428 C142.012471,2.85388235 143.737176,3.59035294 144.692471,4.668 C146.727765,8.75976471 146.207765,13.3197647 144.650118,17.4327059 C141.774824,14.3409412 138.207765,11.7550588 134.090118,9.84211765" id="Fill-7"></path>
                <path d="M144.692235,4.66752941 C148.456941,6.27223529 151.113412,9.23694118 153.626353,11.9687059 C155.511059,13.9263529 156.732235,16.6181176 156.447529,19.2604706 C156.273412,21.5498824 154.838118,23.5004706 153.231059,25.2251765 C150.179294,28.7192941 146.209882,31.7428235 141.972235,34.2510588 C140.207529,35.1781176 138.115765,36.0063529 135.932235,35.5122353 C133.106353,34.8957647 131.200471,32.6651765 129.972235,30.4134118 C136.200471,27.5075294 142.045176,23.2628235 144.649882,17.4322353 C146.209882,13.3192941 146.727529,8.75929412 144.692235,4.66752941" id="Fill-9"></path>
                <path d="M4.10847059,9.84211765 C5.32258824,7.26094118 7.11788235,4.50329412 10.3531765,3.428 C11.9908235,2.85388235 13.7367059,3.59035294 14.6967059,4.668 C16.6967059,8.75976471 16.1955294,13.3197647 14.6684706,17.4327059 C11.7696471,14.3409412 8.22611765,11.7550588 4.10847059,9.84211765" id="Fill-11"></path>
                <path d="M14.6967059,4.66752941 C18.4567059,6.27223529 21.0990588,9.23694118 23.6214118,11.9687059 C25.5296471,13.9263529 26.7178824,16.6181176 26.4567059,19.2604706 C26.3061176,21.5498824 24.8425882,23.5004706 23.2449412,25.2251765 C20.1555294,28.7192941 16.1955294,31.7428235 11.9578824,34.2510588 C10.2025882,35.1781176 7.99552941,36.0063529 5.95552941,35.5122353 C3.11082353,34.8957647 1.10847059,32.6651765 0.000235294118,30.4134118 C6.19082353,27.5075294 12.0496471,23.2628235 14.6684706,17.4322353 C16.1955294,13.3192941 16.6967059,8.75929412 14.6967059,4.66752941" id="Fill-13"></path>
            </g>
        </g>
    </g>
</svg>