<?xml version="1.0" encoding="UTF-8"?>
<svg width="223px" height="40px" viewBox="0 0 223 40" version="1.1" xmlns="http://www.w3.org/2000/svg" xmlns:xlink="http://www.w3.org/1999/xlink">
    <!-- Generator: Sketch 46.2 (44496) - http://www.bohemiancoding.com/sketch -->
    <title>interbank</title>
    <desc>Created with Sketch.</desc>
    <defs></defs>
    <g id="Footer" stroke="none" stroke-width="1" fill="none" fill-rule="evenodd">
        <g id="interbank" fill="#346275">
            <g id="logo">
                <g id="Group-3" transform="translate(0.000000, 0.164324)">
                    <path d="M10.3387387,32.5811411 L30.6462462,29.0424024 L30.6462462,7.75231231 L10.3387387,11.3102703 L10.3387387,32.5811411 Z M1.07987988,38.6784384 L35.3237237,38.6784384 C38.0144144,38.6784384 40.1717718,36.6003604 40.1717718,33.9264865 L40.1717718,0.0766366366 L5.91831832,0.0766366366 C3.26366366,0.0766366366 1.07987988,2.17393393 1.07987988,4.8381982 L1.07987988,38.6784384 Z" id="Fill-1"></path>
                </g>
                <path d="M163.787628,11.6141742 C166.288529,11.4556156 169.241081,11.6502102 171.30955,13.2141742 C172.107147,13.8796396 172.844685,14.6315916 173.373213,15.6814414 C173.969009,16.9234835 174.017057,18.2448048 174.115556,19.5565165 L174.115556,26.2111712 C174.115556,29.5384985 173.082523,32.5126727 169.695135,33.9445045 C168.626066,34.4826426 167.396036,34.7084685 166.012252,34.7204805 C160.342583,34.9487087 156.027868,32.0538138 156.472312,26.8502102 C156.758198,23.0303904 160.011051,21.4087688 163.749189,21.194955 C165.495736,21.0916517 168.647688,21.4087688 169.788829,21.206967 C169.848889,20.1210811 169.567808,18.6147748 169.197838,17.7955556 C168.916757,17.0940541 168.361802,16.2964565 167.470511,16.0754354 C166.317357,15.5421021 164.688529,15.4940541 163.384024,15.5685285 C161.666306,15.6694294 160.376216,16.0057658 158.387027,17.1036637 L158.396637,15.1793393 C158.396637,14.5787387 158.466306,13.8436036 158.790631,13.2766366 C159.554595,12.1595195 162.192432,11.815976 163.787628,11.6141742 L163.787628,11.6141742 Z M169.976216,24.4045646 L169.976216,24.3132733 C168.794234,24.4478078 167.662703,24.3901502 166.658498,24.3901502 C164.722162,24.3901502 163.650691,24.5174775 162.552793,25.058018 C161.543784,25.4351952 160.962402,26.412973 160.868709,27.2466066 L160.868709,27.482042 C160.736577,29.2478078 161.635075,30.5138739 163.275916,30.8141742 L163.328769,30.8141742 L163.328769,30.8285886 C165.289129,31.0496096 166.761802,30.7925526 167.912553,30.2231832 C168.808649,29.7811411 169.474114,28.7817417 169.788829,27.5060661 C169.976216,26.5907508 169.956997,25.3463063 169.976216,24.4045646 L169.976216,24.4045646 Z M220.863904,12.4381982 L215.842883,12.4381982 L206.74018,22.794955 L216.935976,34.2832432 L221.947387,34.2832432 L211.761201,22.794955 L220.863904,12.4381982 Z M201.69033,34.3240841 L206.752192,34.3240841 L206.752192,5.40396396 L201.69033,5.40396396 L201.69033,34.3240841 Z M186.812252,11.4243844 L188.566006,11.4243844 L188.58042,11.4243844 L188.58042,11.4508108 C191.054895,11.4508108 193.349189,12.4165766 194.994835,14.0406006 C196.575616,15.6694294 197.613453,17.9589189 197.613453,20.4454054 L197.618258,20.4454054 L197.618258,34.3240841 L192.587628,34.3240841 L192.587628,20.4454054 L192.606847,20.4454054 C192.606847,19.3739339 192.16961,18.2712312 191.405646,17.6778378 C190.668108,16.9330931 189.687928,16.4045646 188.58042,16.4045646 L188.58042,16.4141742 L188.566006,16.4141742 L186.812252,16.4141742 L186.797838,16.4141742 L186.797838,16.4045646 C185.661502,16.4045646 184.690931,16.9330931 183.958198,17.6946547 C183.208649,18.2712312 182.771411,19.3739339 182.771411,20.4454054 L182.776216,20.4454054 L182.776216,34.3240841 L177.747988,34.3240841 L177.747988,20.4454054 L177.779219,20.4454054 C177.779219,17.9589189 178.773814,15.6694294 180.383423,14.0165766 C182.036276,12.3973574 184.311351,11.4508108 186.797838,11.4508108 L186.797838,11.4243844 L186.812252,11.4243844 Z M50.3077477,34.3240841 L55.4224625,34.3240841 L55.4224625,5.40396396 L50.3077477,5.40396396 L50.3077477,34.3240841 Z M68.8494895,11.4243844 L70.6945345,11.4243844 L70.6945345,11.4508108 C73.1954354,11.4508108 75.4104505,12.4165766 77.0392793,14.0406006 C78.6849249,15.6694294 79.717958,17.9589189 79.717958,20.4454054 L79.717958,34.3240841 L74.6536937,34.3240841 L74.6536937,20.4454054 L74.6777177,20.4454054 C74.6536937,19.3739339 74.2140541,18.2712312 73.5437838,17.6778378 C72.7918318,16.9330931 71.7227628,16.4045646 70.6945345,16.4045646 L70.6945345,16.4141742 L68.8494895,16.4141742 L68.8494895,16.4045646 C67.7948348,16.4045646 66.7666066,16.9330931 66.0266667,17.6946547 C65.3443844,18.2712312 64.8807207,19.3739339 64.8807207,20.4454054 L64.8999399,20.4454054 L64.8999399,34.3240841 L59.8981381,34.3240841 L59.8981381,20.4454054 C59.8981381,17.9589189 60.8687087,15.6694294 62.5263664,14.0165766 C64.1575976,12.3973574 66.3581982,11.4508108 68.8494895,11.4508108 L68.8494895,11.4243844 Z M88.5756156,5.80996997 L88.5756156,11.6598198 L96.7822222,11.6598198 L96.5684084,13.600961 C96.3978378,15.3066667 95.4705105,15.6958559 93.5654054,15.7390991 L88.5756156,15.7390991 L88.5756156,26.436997 C88.5852252,26.8021622 88.6044444,27.5541141 88.6572973,27.7799399 C89.008048,29.44 89.9425826,29.8436036 91.5137538,30.0814414 C93.0488889,30.2544144 95.5497898,30.006967 96.7461862,29.44 C96.9095495,31.2658258 96.6885285,33.6994595 95.6194595,34.1511111 C94.6200601,34.4970571 92.5467868,34.6291892 91.0909309,34.5955556 C90.4590991,34.5739339 89.711952,34.5378979 89.0176577,34.4273874 C87.8308709,34.2063664 86.1227628,33.3174775 85.3059459,32.4862462 C83.72997,30.6436036 83.6578979,28.6472072 83.5738138,26.5354955 L83.5593994,26.436997 L83.5593994,5.80996997 L88.5756156,5.80996997 Z M101.675916,21.9180781 L109.245886,21.9180781 C110.92997,21.9180781 112.895135,21.0748348 111.924565,18.7829429 L111.883724,18.7565165 C111.775616,18.5643243 111.662703,18.2111712 111.496937,18.0357958 C111.343183,17.8291892 111.122162,17.6225826 110.884324,17.279039 C109.635075,16.1234835 107.782823,15.3955556 105.774414,16.1018619 L105.774414,16.0946547 L105.666306,16.1186787 C105.361201,16.20997 105.027267,16.3252853 104.717357,16.4598198 C104.393033,16.5775375 104.16,16.8970571 103.878919,17.0724324 C102.793033,17.9469069 102.019459,19.7174775 101.675916,21.9180781 L101.675916,21.9180781 Z M109.039279,25.661021 L101.762402,25.661021 C101.812853,25.9805405 101.887327,26.1823423 102.019459,26.3913514 C102.901141,28.7072673 104.787027,29.8027628 107.054895,30.2544144 L107.0597,30.2544144 C107.355195,30.3216817 107.674715,30.3649249 107.991832,30.400961 C108.296937,30.4201802 108.630871,30.4297898 108.902342,30.4297898 C111.295135,30.4778378 113.116156,29.6922523 114.271712,29.1757357 C114.454294,30.1030631 114.298138,31.7991592 114.209249,32.4862462 C113.796036,34.5547147 109.983423,34.6772372 108.587628,34.6772372 L108.587628,34.6892492 C108.133574,34.6892492 107.681922,34.6772372 107.237477,34.6291892 C106.785826,34.60997 106.346186,34.5643243 105.923363,34.4970571 C100.085526,33.5072673 96.9095495,28.4333934 97.1714114,22.8357958 L97.1714114,22.8285886 L97.1714114,22.7637237 C97.2939339,18.0357958 99.9365766,13.8676276 104.445886,12.4381982 L104.465105,12.4381982 L104.563604,12.4165766 L104.585225,12.3973574 C108.208048,11.3667267 111.554595,12.3469069 113.774414,14.3481081 C114.187628,14.7228829 114.586426,15.1673273 114.951592,15.5541141 C115.297538,16.0754354 115.597838,16.4598198 115.847688,17.0243844 L115.871712,17.07003 C116.354595,18.1030631 116.621261,19.0375976 116.621261,19.9649249 C116.621261,21.1517117 116.256096,22.1102703 115.636276,22.9607207 C115.04048,23.7174775 114.286126,24.3348949 113.411652,24.6808408 L113.411652,24.7048649 C112.126366,25.3847447 110.521562,25.661021 109.039279,25.661021 L109.039279,25.661021 Z M128.731772,11.4243844 L130.204444,11.4243844 L130.204444,16.4141742 L128.731772,16.4141742 L128.731772,16.4045646 C127.681922,16.4045646 126.634474,16.9330931 125.884925,17.6946547 C125.207447,18.2712312 124.758198,19.3739339 124.758198,20.4454054 L124.763003,20.4454054 L124.763003,34.3240841 L119.713153,34.3240841 L119.713153,20.4454054 L119.717958,20.4454054 C119.717958,17.9589189 120.750991,15.6694294 122.394234,14.0165766 C124.044685,12.3973574 126.230871,11.4508108 128.731772,11.4508108 L128.731772,11.4243844 Z M138.050691,5.59855856 L137.995435,14.9607207 C140.683724,12.258018 143.722763,11.5589189 147.520961,12.6688288 C151.751592,13.8051652 154.202042,17.8195796 154.247688,23.2321922 C154.341381,30.2976577 149.447688,34.6291892 143.662703,34.6772372 C137.332372,34.7204805 132.964805,30.3409009 133.02967,23.8063664 L133.02967,5.59855856 L138.050691,5.59855856 Z M143.544985,15.9096697 C146.802643,15.9096697 149.378018,18.7132733 149.378018,23.1144745 C149.378018,27.6694294 146.802643,30.5523123 143.544985,30.5523123 C141.81045,30.5523123 140.275315,29.7955556 139.256697,28.4814414 C138.178018,27.04 137.858498,25.5360961 137.834474,23.7511111 C137.81045,21.6586186 138.026667,19.8375976 138.951592,18.5114715 C140.063904,16.8970571 141.743183,15.9096697 143.544985,15.9096697 L143.544985,15.9096697 Z" id="Fill-4"></path>
            </g>
        </g>
    </g>
</svg>