<?xml version="1.0" encoding="UTF-8"?>
<svg width="124px" height="40px" viewBox="0 0 124 40" version="1.1" xmlns="http://www.w3.org/2000/svg" xmlns:xlink="http://www.w3.org/1999/xlink">
    <!-- Generator: Sketch 46.2 (44496) - http://www.bohemiancoding.com/sketch -->
    <title>kasnet</title>
    <desc>Created with Sketch.</desc>
    <defs>
        <linearGradient x1="3.061617e-15%" y1="50%" x2="99.7508769%" y2="50%" id="linearGradient-1">
            <stop stop-color="#346275" stop-opacity="0" offset="0%"></stop>
            <stop stop-color="#346275" offset="50.7095026%"></stop>
            <stop stop-color="#346275" stop-opacity="0" offset="100%"></stop>
        </linearGradient>
    </defs>
    <g id="Footer" stroke="none" stroke-width="1" fill="none" fill-rule="evenodd">
        <g id="kasnet">
            <g id="logo">
                <polygon id="Fill-1" fill="#346275" points="99.6321981 0.203343653 106.312074 0.203343653 106.312074 1.81325077 101.586378 1.81325077 101.586378 3.69065015 105.905882 3.69065015 105.905882 5.13213622 101.586378 5.13213622 101.586378 7.26712074 106.398762 7.26712074 106.398762 8.87702786 99.6321981 8.87702786"></polygon>
                <polygon id="Fill-2" fill="#346275" points="83.330031 0.203343653 90.6340557 0.203343653 90.6340557 1.81325077 87.9591331 1.81325077 87.9591331 8.87702786 86 8.87702786 86 1.81325077 83.330031 1.81325077"></polygon>
                <polygon id="Fill-3" fill="#346275" points="66.7858824 0.203343653 68.7351084 0.203343653 72.48 6.03863777 72.48 0.203343653 74.327678 0.203343653 74.327678 8.87702786 72.3734985 8.87702786 68.6335604 3.04173375 68.6335604 8.87702786 66.7858824 8.87702786"></polygon>
                <polygon id="Fill-4" fill="#346275" points="50.6964706 0.203343653 57.3912074 0.203343653 57.3912074 1.81325077 52.6704644 1.81325077 52.6704644 3.69065015 56.9998762 3.69065015 56.9998762 5.13213622 52.6704644 5.13213622 52.6704644 7.26712074 57.5026625 7.26712074 57.5026625 8.87702786 50.6964706 8.87702786"></polygon>
                <path d="M37.2532508,0 C39.0910217,0 40.7900929,1.09226006 41.0130031,3.03653251 L39.1405573,3.03653251 C38.9126935,2.11764706 38.1770898,1.60495356 37.2532508,1.60495356 C35.4724458,1.60495356 34.828483,3.03653251 34.828483,4.56718266 C34.828483,6.03839009 35.4724458,7.53188854 37.2532508,7.53188854 C38.5362229,7.53188854 39.279257,6.80619195 39.3907121,5.60743034 L37.4117647,5.60743034 L37.4117647,4.20557276 L41.1814241,4.20557276 L41.1814241,8.87678019 L39.9133127,8.87678019 L39.7003096,7.96780186 C39.0340557,8.7752322 38.1102167,9.13931889 37.2532508,9.13931889 C34.4965944,9.13931889 32.8693498,7.10588235 32.8693498,4.56718266 C32.8693498,1.96408669 34.4965944,0 37.2532508,0" id="Fill-5" fill="#346275"></path>
                <polygon id="Fill-8" fill="#346275" points="15.4556037 39.7978947 7.90885449 32.6251393 5.40235294 39.7978947 0.381919505 39.7978947 6.64074303 21.8635294 11.6686068 21.8635294 9.35529412 28.4641486 20.7187616 21.8635294 28.3769659 21.8635294 12.9837771 30.4084211 23.3069969 39.7978947"></polygon>
                <path d="M53.4781424,36.392322 L44.7598762,36.392322 C41.8397523,36.392322 40.9679257,35.4437152 41.978452,32.6102786 L42.0230341,32.3774613 L45.9660681,32.0009907 L45.6118885,32.9297833 L54.6868111,32.9297833 L55.4892879,30.6486687 L47.3109598,30.6486687 C44.3933127,30.6486687 43.5512074,29.7025387 44.524582,26.8765325 L45.0570898,25.3458824 C46.0378947,22.5917028 47.286192,21.8635294 50.0874303,21.8635294 L58.0874303,21.8635294 C60.8019814,21.8635294 61.8719505,22.6536223 60.953065,25.3656966 L56.9852632,25.9006811 L57.2651393,25.0759133 L48.9456347,25.0759133 L48.2050774,27.1960372 L56.4056966,27.1960372 C59.3159133,27.1960372 60.1877399,28.0728173 59.1772136,30.9978947 L58.5332508,32.8232817 C57.5598762,35.5873684 56.2694737,36.392322 53.4781424,36.392322" id="Fill-10" fill="#346275"></path>
                <path d="M76.2335604,39.7978947 L66.8787616,29.0437152 C66.6930031,28.8579567 66.5543034,28.6226625 66.3883591,28.4542415 C66.1580186,29.2963467 65.9920743,29.8932508 65.8335604,30.2201858 L62.5196285,39.7978947 L57.9326316,39.7978947 L64.2087926,21.8635294 L67.483096,21.8635294 L76.4762848,32.1050155 C76.7908359,32.3774613 77.0905263,32.7712693 77.3654489,33.1898452 C77.635418,32.2090402 77.8434675,31.5551703 77.9995046,31.1266873 L81.2366563,21.8635294 L85.8063158,21.8635294 L79.5524458,39.7978947 L76.2335604,39.7978947 Z" id="Fill-12" fill="#346275"></path>
                <polygon id="Fill-14" fill="#346275" points="102.326687 25.0291022 91.1762229 25.0291022 90.3886068 27.2408669 96.9050155 27.2408669 95.7805573 30.4086687 89.29387 30.4086687 88.4096594 32.9275542 99.6715789 32.9275542 98.4802477 36.3925697 83.0499071 36.3925697 88.1347368 21.8637771 103.418947 21.8637771"></polygon>
                <polygon id="Fill-16" fill="#346275" points="121.076656 25.1113313 114.585015 25.1113313 110.641981 36.393065 106.480991 36.393065 110.414118 25.1113313 103.952198 25.1113313 105.079133 21.8617957 122.233313 21.8617957"></polygon>
                <path d="M19.3498452,5.54377709 L20.5065015,2.34130031 L21.6755418,5.54377709 L19.3498452,5.54377709 Z M21.5517028,0.203839009 L19.5628483,0.203839009 L16.1572755,8.87752322 L18.1164087,8.87752322 L18.8321981,6.99517028 L22.1708978,6.99517028 L22.8569659,8.87752322 L24.9126935,8.87752322 L21.5517028,0.203839009 Z" id="Fill-18" fill="#346275"></path>
                <path d="M30.7467492,30.0795046 L34.6204334,25.7946749 L35.4427245,30.0795046 L30.7467492,30.0795046 Z M37.8278638,21.8640248 L34.1325077,21.8640248 L20.6266254,36.3928173 L25.0328173,36.3928173 L27.7126935,33.3488545 L36.1164087,33.3488545 L36.7603715,36.3928173 L41.3126935,36.3928173 L37.8278638,21.8640248 Z" id="Fill-20" fill="#346275"></path>
                <polygon id="Fill-22" fill="url(#linearGradient-1)" points="0 16.8629102 122.548607 16.8629102 122.548607 13.7421672 0 13.7421672"></polygon>
            </g>
        </g>
    </g>
</svg>