<?xml version="1.0" encoding="UTF-8" standalone="no"?>
<svg width="67px" height="40px" viewBox="0 0 67 40" version="1.1" xmlns="http://www.w3.org/2000/svg" xmlns:xlink="http://www.w3.org/1999/xlink">
    <!-- Generator: Sketch 39.1 (31720) - http://www.bohemiancoding.com/sketch -->
    <title>master</title>
    <desc>Created with Sketch.</desc>
    <defs></defs>
    <g id="Payments" stroke="none" stroke-width="1" fill="none" fill-rule="evenodd">
        <g id="master" transform="translate(-62.000000, 0.000000)" fill="#346275">
            <path d="M127.119485,30.536225 C127.016033,30.4796713 126.911202,30.4507048 126.803612,30.4507048 C126.693263,30.4507048 126.588432,30.4796713 126.486359,30.536225 C126.384287,30.5927787 126.300146,30.6714021 126.243592,30.7762333 C126.18428,30.8783057 126.158072,30.9858956 126.158072,31.0962443 C126.158072,31.2065929 126.187039,31.3155622 126.243592,31.4162553 C126.302905,31.5183278 126.382908,31.6010893 126.483601,31.6576429 C126.585673,31.7141966 126.693263,31.7431631 126.80637,31.7431631 C126.916719,31.7431631 127.024309,31.7141966 127.125002,31.6576429 C127.225695,31.6010893 127.307077,31.5183278 127.363631,31.4162553 C127.421564,31.3155622 127.449151,31.2079723 127.449151,31.0962443 C127.449151,30.9845163 127.420185,30.8783057 127.363631,30.7762333 C127.304319,30.6686433 127.222936,30.5927787 127.119485,30.536225 L127.119485,30.536225 L127.119485,30.536225 Z M126.966376,31.457636 L126.905684,31.3472874 C126.857407,31.2617672 126.817405,31.2052135 126.787059,31.1831438 C126.767748,31.1693502 126.737403,31.1583154 126.698781,31.1583154 L126.633951,31.1583154 L126.633951,31.4548773 L126.520843,31.4548773 L126.520843,30.7583016 L126.760852,30.7583016 C126.843613,30.7583016 126.902926,30.7651984 126.93603,30.778992 C126.973273,30.7927855 127.004998,30.8120966 127.024309,30.8465805 C127.046379,30.8783057 127.056034,30.9127897 127.056034,30.948653 C127.056034,30.9996892 127.036723,31.0424493 127.002239,31.0824507 C126.966376,31.118314 126.916719,31.1417631 126.857407,31.1459012 C126.882235,31.1541773 126.901546,31.1679709 126.916719,31.1831438 C126.945686,31.210731 126.97879,31.2562498 127.020171,31.3197002 L127.105691,31.4562567 L126.966376,31.4562567 L126.966376,31.457636 L126.966376,31.457636 L126.966376,31.457636 Z M126.900167,31.0341732 C126.875338,31.0576223 126.832578,31.0631397 126.767748,31.0631397 L126.629813,31.0631397 L126.629813,30.856236 L126.759472,30.856236 C126.813267,30.856236 126.847751,30.8603741 126.869821,30.8686502 C126.891891,30.8769264 126.904305,30.8920993 126.918098,30.9017548 C126.929133,30.9210658 126.934651,30.9362388 126.934651,30.9583085 C126.934651,30.9914131 126.923616,31.0134828 126.900167,31.0341732 L126.900167,31.0341732 L126.900167,31.0341732 Z M126.264283,24.0104829 C126.178763,24.0546224 126.111174,24.1235903 126.062896,24.2104898 C126.014619,24.2973894 125.989791,24.3898063 125.989791,24.4794646 C125.989791,24.5718816 126.014619,24.6629192 126.060138,24.74706 C126.111174,24.8325802 126.176004,24.89741 126.261524,24.9484463 C126.347044,24.9953445 126.435323,25.0229316 126.52774,25.0229316 C126.620157,25.0229316 126.711195,24.9953445 126.793956,24.9484463 C126.879476,24.9001688 126.945686,24.8339596 126.995342,24.74706 C127.04362,24.6615398 127.06569,24.5718816 127.06569,24.4794646 C127.06569,24.3898063 127.040861,24.2973894 126.992584,24.2104898 C126.944306,24.1249696 126.876718,24.0587605 126.791197,24.0104829 C126.705677,23.9622054 126.618778,23.9387563 126.52774,23.9387563 C126.439461,23.9387563 126.349803,23.9635848 126.264283,24.0104829 L126.264283,24.0104829 L126.264283,24.0104829 Z M126.751196,24.2270421 C126.774645,24.257388 126.782921,24.2918719 126.782921,24.3291146 C126.782921,24.3801508 126.76361,24.4229109 126.727747,24.461533 C126.691884,24.5015343 126.642227,24.5180866 126.584294,24.5249834 C126.611881,24.5360183 126.629813,24.5484325 126.643606,24.5608467 C126.672573,24.5898132 126.705677,24.631194 126.745679,24.6974032 L126.831199,24.8353389 L126.693263,24.8353389 L126.631192,24.727749 C126.582914,24.6408495 126.544292,24.5856752 126.515326,24.5649848 C126.491877,24.5470531 126.46429,24.538777 126.424288,24.538777 L126.360838,24.538777 L126.360838,24.8339596 L126.244972,24.8339596 L126.244972,24.1387632 L126.486359,24.1387632 C126.567742,24.1387632 126.628433,24.14566 126.662917,24.1608329 C126.697401,24.1732472 126.727747,24.1966962 126.751196,24.2270421 L126.751196,24.2270421 L126.751196,24.2270421 Z M126.486359,24.2325596 C126.541534,24.2325596 126.576018,24.2394563 126.599467,24.2463531 C126.620157,24.2560086 126.63533,24.2670435 126.646365,24.2808371 C126.658779,24.3001481 126.664297,24.3139417 126.664297,24.3373908 C126.664297,24.3677366 126.651882,24.3939444 126.631192,24.4146348 C126.604984,24.4353252 126.562224,24.4436013 126.497394,24.4436013 L126.360838,24.4436013 L126.360838,24.2339389 L126.486359,24.2339389 L126.486359,24.2325596 L126.486359,24.2325596 L126.486359,24.2325596 Z M111.713437,21.3745301 C112.076208,21.3759094 112.11483,21.4117727 112.176901,21.4241869 C112.216902,21.7814406 111.952066,23.4614985 110.670642,23.4614985 C110.00855,23.4614985 109.83751,22.9594122 109.83751,22.6587122 C109.83751,22.0752439 110.153383,21.3745301 111.713437,21.3745301 L111.713437,21.3745301 L111.713437,21.3745301 Z M77.2046617,21.3745301 C77.5688122,21.3759094 77.6074342,21.4117727 77.668126,21.4241869 C77.7095067,21.7814406 77.4432906,23.4614985 76.1618672,23.4614985 C75.5011548,23.4614985 75.328735,22.9594122 75.328735,22.6587122 C75.328735,22.0752439 75.644608,21.3745301 77.2046617,21.3745301 L77.2046617,21.3745301 L77.2046617,21.3745301 Z M95.3983919,5.1698339 C91.8506835,1.96144752 87.1498319,0.00413871112 81.9937922,0.00413871112 C70.8885821,0.0758653199 62,9.00582812 62,19.9993103 C62,31.0355525 70.9575499,39.9931025 81.9937922,39.9931025 C87.1484525,39.9931025 91.8493041,38.0385524 95.3970125,34.8274073 C98.9461003,38.0426905 103.652469,40.0013786 108.816785,39.9999993 C119.859924,39.9958612 128.807819,31.04107 128.80506,19.9993103 C128.80506,8.94789509 119.851648,-0.00275807819 108.808509,6.37534505e-07 C103.648331,0.0013799954 98.944721,1.95730944 95.3983919,5.1698339 Z M70.1616605,25.0918995 L71.374116,17.4474982 L68.6388494,25.0918995 L67.172592,25.0918995 L66.9822406,17.4474982 L65.6870236,25.0918995 L63.6331597,25.0918995 L65.3352873,14.9536192 L68.4416012,14.9536192 L68.5505705,21.1745232 L70.6485738,14.9536192 L74.018345,14.9536192 L72.3396665,25.0918995 L70.1616605,25.0918995 L70.1616605,25.0918995 L70.1616605,25.0918995 Z M77.4239796,25.0808646 L77.4943269,24.2656641 C77.4612223,24.2698022 76.8129241,25.2436289 75.3108034,25.2436289 C74.5245694,25.2436289 73.2555602,24.8146486 73.2555602,22.9497567 C73.2555602,20.5786406 75.1894199,19.7924066 77.0308626,19.7924066 C77.3205278,19.7924066 77.9453769,19.8448222 77.9453769,19.8448222 C77.9453769,19.8448222 78.0157241,19.6999896 78.0157241,19.308252 C78.0157241,18.6640919 77.4363938,18.575813 76.6432631,18.575813 C75.2459735,18.575813 74.3231831,18.9496189 74.3231831,18.9496189 L74.6321593,17.115073 C74.6321593,17.115073 75.7521979,16.6460913 77.2101791,16.6460913 C77.9646879,16.6460913 80.1344178,16.7260941 80.1344178,19.2130763 L79.2985269,25.0753472 L77.4239796,25.0753472 L77.4239796,25.0808646 L77.4239796,25.0808646 L77.4239796,25.0808646 Z M85.3470112,22.4945686 C85.3470112,25.3236316 82.6062271,25.2022481 82.1275899,25.2022481 C80.3413215,25.2022481 79.7895783,24.9553431 79.7385421,24.9415495 L80.0226898,23.0794164 C80.0254485,23.0628641 80.9192724,23.4035655 81.9137895,23.4035655 C82.4876023,23.4035655 83.2324556,23.3470118 83.2324556,22.6614709 C83.2324556,21.6352287 80.5675362,21.8807544 80.5675362,19.4434291 C80.5675362,17.2930102 82.1648326,16.664023 83.7400593,16.664023 C84.9566529,16.664023 85.7042649,16.8309253 85.7042649,16.8309253 L85.4352901,18.7096107 C85.4352901,18.7096107 84.2807675,18.614435 83.9814469,18.614435 C83.2241794,18.614435 82.8117514,18.7799579 82.8117514,19.3096313 C82.8103721,20.3731163 85.3470112,19.8503396 85.3470112,22.4945686 L85.3470112,22.4945686 L85.3470112,22.4945686 Z M88.638159,23.2352838 C88.8271311,23.2352838 89.0409315,23.170454 89.1871435,23.170454 L88.9209274,24.9787922 C88.7071269,25.0381045 88.1015888,25.2532844 87.3250103,25.2588018 C86.333252,25.267078 85.6284002,24.7125761 85.6284002,23.4546017 C85.6284002,22.6104347 86.838097,15.654333 86.8849952,15.6088142 L89.0133444,15.6088142 L88.7967852,16.852995 L89.8588907,16.852995 L89.5871572,18.857202 L88.4602219,18.857202 L87.8615806,22.549743 C87.8160617,22.8421668 87.8974439,23.2352838 88.638159,23.2352838 L88.638159,23.2352838 L88.638159,23.2352838 Z M93.3196996,16.6171248 C95.6563318,16.6171248 96.3556663,18.3275285 96.3556663,19.7303355 C96.3556663,20.2917341 96.0742773,21.671092 96.0742773,21.671092 L91.748611,21.671092 C91.748611,21.671092 91.3485972,23.374599 93.6341932,23.374599 C94.7059543,23.374599 95.8949607,22.850443 95.8949607,22.850443 L95.5197754,24.9029275 C95.5197754,24.9029275 94.8328552,25.2532844 93.2714221,25.2532844 C91.57895,25.2532844 89.594054,24.5373976 89.594054,21.5303975 C89.5954334,18.9247905 91.1789362,16.6185042 93.3196996,16.6171248 L93.3196996,16.6171248 L93.3196996,16.6171248 Z M98.4826361,25.1070724 L96.2977332,25.1070724 L97.6260549,16.8557537 L99.6081921,16.8557537 L99.4178407,18.051657 C99.4178407,18.051657 100.124072,16.7509225 101.077208,16.7509225 C101.354459,16.7509225 101.488257,16.7785097 101.488257,16.7785097 C101.205489,17.3550813 100.955825,17.8833753 100.696506,19.2475602 C99.2178338,18.7220249 99.1047265,21.5814337 98.4826361,25.1070724 L98.4826361,25.1070724 L98.4826361,25.1070724 Z M106.807061,24.9787922 C106.807061,24.9787922 105.662194,25.271216 104.944928,25.271216 C102.404151,25.271216 101.114451,23.5180522 101.114451,20.8627883 C101.114451,16.8585124 103.504878,14.7260252 105.961514,14.7260252 C107.071898,14.7260252 108.358838,15.2474224 108.358838,15.2474224 L108.01124,17.5026725 C108.01124,17.5026725 107.140865,16.8943757 106.05807,16.8943757 C104.609744,16.8943757 103.310389,18.2764923 103.310389,20.788303 C103.310389,22.025587 103.915927,23.1787301 105.427703,23.1787301 C106.146348,23.1787301 107.187764,22.6559535 107.187764,22.6559535 L106.807061,24.9787922 L106.807061,24.9787922 L106.807061,24.9787922 Z M111.931375,25.0808646 L112.003102,24.2656641 C111.968618,24.2698022 111.32032,25.2436289 109.819578,25.2436289 C109.033344,25.2436289 107.764335,24.8146486 107.764335,22.9497567 C107.764335,20.5786406 109.698195,19.7924066 111.538258,19.7924066 C111.827923,19.7924066 112.454152,19.8448222 112.454152,19.8448222 C112.454152,19.8448222 112.525879,19.701369 112.525879,19.3096313 C112.525879,18.6654712 111.946548,18.5771923 111.152038,18.5771923 C109.754749,18.5771923 108.833338,18.9509983 108.833338,18.9509983 L109.142314,17.1164523 C109.142314,17.1164523 110.262352,16.6474707 111.721713,16.6474707 C112.474842,16.6474707 114.645952,16.7274734 114.644572,19.2144557 L113.808681,25.0767266 C113.807302,25.0808646 111.931375,25.0808646 111.931375,25.0808646 L111.931375,25.0808646 L111.931375,25.0808646 Z M116.354976,25.1070724 L114.170073,25.1070724 L115.498395,16.8557537 L117.481911,16.8557537 L117.29156,18.051657 C117.29156,18.051657 117.99917,16.7509225 118.952307,16.7509225 C119.229558,16.7509225 119.361976,16.7785097 119.361976,16.7785097 C119.080587,17.3550813 118.828164,17.8833753 118.570225,19.2475602 C117.090174,18.7220249 116.977066,21.5814337 116.354976,25.1070724 L116.354976,25.1070724 L116.354976,25.1070724 Z M127.089139,24.1566949 C127.148451,24.2601467 127.174659,24.3677366 127.174659,24.4794646 C127.174659,24.5911926 127.147072,24.6960238 127.089139,24.7994756 C127.032585,24.9015481 126.952582,24.9801715 126.85051,25.0408633 C126.749817,25.0974169 126.642227,25.1263834 126.52912,25.1263834 C126.418771,25.1263834 126.31256,25.0974169 126.210488,25.0408633 C126.108415,24.9801715 126.028413,24.9015481 125.971859,24.7994756 C125.913926,24.6960238 125.886339,24.5911926 125.886339,24.4794646 C125.886339,24.3663573 125.915305,24.2587674 125.971859,24.1566949 C126.028413,24.0546224 126.112553,23.9718609 126.213246,23.9166866 C126.318078,23.8601329 126.42153,23.8311664 126.52912,23.8311664 C126.639468,23.8311664 126.744299,23.8601329 126.846372,23.9166866 C126.951203,23.9732403 127.031206,24.0518637 127.089139,24.1566949 L127.089139,24.1566949 L127.089139,24.1566949 Z M123.982825,17.8144074 L124.44353,14.9660334 L126.577397,14.9618954 L124.949755,25.0836234 L122.879339,25.0836234 L122.971756,24.3235972 C122.971756,24.3235972 122.265524,25.2146624 120.988239,25.2146624 C119.218523,25.2146624 118.350907,23.505638 118.350907,21.7593709 C118.350907,19.0585882 119.97579,16.7040243 121.926202,16.7040243 C123.181418,16.7067831 123.982825,17.8144074 123.982825,17.8144074 L123.982825,17.8144074 L123.982825,17.8144074 Z M94.3073198,19.982758 L91.9444798,19.982758 C91.9444798,19.8434428 92.1679358,18.5233974 93.3279758,18.5233974 C94.5293965,18.5233974 94.3073198,19.8751681 94.3073198,19.982758 L94.3073198,19.982758 L94.3073198,19.982758 Z M122.294491,18.7551295 C123.060035,18.7551295 123.453152,19.2806648 123.453152,20.5193282 C123.453152,21.6407461 122.89727,23.1456256 121.744127,23.1456256 C120.977204,23.1456256 120.618571,22.5000861 120.618571,21.4931548 C120.617192,19.8420635 121.357907,18.7551295 122.294491,18.7551295 L122.294491,18.7551295 L122.294491,18.7551295 Z"></path>
        </g>
    </g>
</svg>