<?xml version="1.0" encoding="UTF-8"?>
<svg width="507px" height="123px" viewBox="0 0 507 123" version="1.1" xmlns="http://www.w3.org/2000/svg" xmlns:xlink="http://www.w3.org/1999/xlink">
    <!-- Generator: Sketch 63.1 (92452) - https://sketch.com -->
    <title>niubiz</title>
    <desc>Created with Sketch.</desc>
    <g id="Page-1" stroke="none" stroke-width="1" fill="none" fill-rule="evenodd">
        <g id="Group-8" transform="translate(0.000000, -1.000000)" fill="#346275">
            <path d="M251.8663,0.9998 L251.8663,36.4728 C259.9293,30.4178 269.9433,26.8248 280.7783,26.8248 C307.3763,26.8248 329.0143,48.4628 329.0143,75.0608 C329.0143,101.6598 307.3763,123.2978 280.7783,123.2978 C254.1793,123.2978 232.5413,101.6598 232.5413,75.0608 L232.5413,75.0608 L232.5413,0.9998 L251.8663,0.9998 Z M152.4753,26.2058 L152.4753,80.3468 C152.4753,93.3708 163.0723,103.9658 176.0973,103.9658 C189.1193,103.9658 199.7153,93.3708 199.7153,80.3468 L199.7153,80.3468 L199.7153,26.2058 L219.0403,26.2058 L219.0403,80.3468 C219.0403,104.0258 199.7753,123.2908 176.0973,123.2908 C152.4173,123.2908 133.1523,104.0258 133.1523,80.3468 L133.1523,80.3468 L133.1523,26.2058 L152.4753,26.2058 Z M42.9473,25.1058 C66.6253,25.1058 85.8893,44.3708 85.8893,68.0498 L85.8893,68.0498 L85.8893,122.1918 L66.5643,122.1918 L66.5643,68.0498 C66.5643,55.0268 55.9693,44.4308 42.9473,44.4308 C29.9223,44.4308 19.3253,55.0268 19.3253,68.0498 L19.3253,68.0498 L19.3253,122.1918 L0.0003,122.1918 L0.0003,68.0498 C0.0003,44.3708 19.2643,25.1058 42.9473,25.1058 Z M361.5873,26.2058 L361.5873,122.1918 L342.2623,122.1918 L342.2623,26.2058 L361.5873,26.2058 Z M119.4793,26.2058 L119.4793,122.1918 L100.1543,122.1918 L100.1543,26.2058 L119.4793,26.2058 Z M463.4603,27.0908 L463.4603,49.5598 L403.1223,102.0338 L463.4603,102.0338 L463.4603,121.3588 L377.2843,121.3588 L377.2843,98.8898 L437.6223,46.4168 L377.2843,46.4168 L377.2843,27.0908 L463.4603,27.0908 Z M494.4894,96.9174 C500.9294,96.9174 506.1534,102.1394 506.1534,108.5804 C506.1534,115.0234 500.9294,120.2454 494.4894,120.2454 C488.0474,120.2454 482.8254,115.0234 482.8254,108.5804 C482.8254,102.1394 488.0474,96.9174 494.4894,96.9174 Z M280.7783,46.1498 C264.8363,46.1498 251.8663,59.1198 251.8663,75.0608 C251.8663,91.0028 264.8363,103.9728 280.7783,103.9728 C296.7203,103.9728 309.6893,91.0028 309.6893,75.0608 C309.6893,59.1198 296.7203,46.1498 280.7783,46.1498 Z M494.4894,46.5882 C500.9294,46.5882 506.1534,51.8102 506.1534,58.2532 C506.1534,64.6942 500.9294,69.9162 494.4894,69.9162 C488.0474,69.9162 482.8254,64.6942 482.8254,58.2532 C482.8254,51.8102 488.0474,46.5882 494.4894,46.5882 Z" id="niubiz"></path>
        </g>
    </g>
</svg>