<?xml version="1.0" encoding="UTF-8"?>
<svg width="190px" height="40px" viewBox="0 0 190 40" version="1.1" xmlns="http://www.w3.org/2000/svg" xmlns:xlink="http://www.w3.org/1999/xlink">
    <!-- Generator: Sketch 46.2 (44496) - http://www.bohemiancoding.com/sketch -->
    <title>pagoefectivo</title>
    <desc>Created with Sketch.</desc>
    <defs></defs>
    <g id="Page-1" stroke="none" stroke-width="1" fill="none" fill-rule="evenodd">
        <g id="pagoefectivo" fill-rule="nonzero" fill="#346275">
            <g id="logo">
                <path d="M3.08571429,5.86666667 C3.08571429,14.7428571 3.80952381,33.1809524 10.3238095,37.5619048 C10.3238095,37.5619048 31.3904762,28 34.5904762,15.0857143 C9.67619048,1.40952381 3.2,5.82857143 3.08571429,5.86666667 Z M36.6095238,15.9238095 L34.6666667,14.4380952 C32.7111111,12.9142857 30.6920635,11.4920635 28.6095238,10.1714286 C22.6261802,6.31546829 16.2067737,3.18249101 9.48571429,0.838095238 C7.27084925,-0.253564366 4.59108954,0.424447127 3.16190476,2.43809524 C3.16190476,3.27619048 3.16190476,4.45714286 3.16190476,5.86666667 C3.2,5.82857143 9.67619048,1.40952381 34.6666667,15.0857143 L37.4857143,16.647619 L36.6095238,15.9238095 Z M38.4761905,17.5238095 L37.6,16.647619 L34.6666667,15.0857143 C31.4666667,28 10.4,37.5619048 10.4,37.5619048 C3.80952381,33.2190476 3.08571429,14.7809524 3.08571429,5.86666667 C3.08571429,4.45714286 3.08571429,3.27619048 3.08571429,2.43809524 C2.66384325,3.12999314 2.36724142,3.89084132 2.20952381,4.68571429 L2.20952381,4.99047619 L2.20952381,5.71428571 C1.04209277,10.9174331 0.429148715,16.2296149 0.380952381,21.5619048 C0.304789368,26.3581192 0.751876461,31.148338 1.71428571,35.847619 C1.9741585,38.1837835 4.05997323,39.8795678 6.4,39.6571429 C7.23172619,39.6343405 8.05460318,39.4800511 8.83809524,39.2 C13.4988814,37.64415 18.0435906,35.7600689 22.4380952,33.5619048 C27.854477,30.8704727 32.9636019,27.6006327 37.6761905,23.8095238 C38.7342024,23.1721729 39.4423345,22.0856571 39.5982779,20.8603869 C39.7542214,19.6351167 39.3408239,18.4058607 38.4761905,17.5238095 Z M15.9238095,22.8571429 L20.647619,19.047619 L22.4380952,17.6 C22.7047619,17.4095238 22.7809524,17.2571429 22.4380952,16.9904762 L17.7904762,11.5428571 C17.5775824,12.0501961 17.4613036,12.5928305 17.447619,13.1428571 C17.447619,13.6380952 17.2571429,13.8285714 16.7238095,13.8285714 L9.94285714,13.8285714 C9.48571429,13.8285714 9.33333333,13.8285714 9.48571429,13.2190476 C9.64327283,12.7607995 9.75804877,12.2889428 9.82857143,11.8095238 C9.84919296,11.0880629 10.4401493,10.5139911 11.1619048,10.5142857 C14.6425455,10.1148418 18.1574545,10.1148418 21.6380952,10.5142857 C22.9766425,10.6098396 24.2775179,11.0001022 25.447619,11.6571429 C27.1656829,12.7343354 27.9958768,14.7944461 27.5047619,16.7619048 C27.2380952,17.6761905 26.9333333,18.552381 26.6285714,19.4285714 C25.6468327,22.3145399 23.0393958,24.3375513 20,24.5714286 C17.658546,24.9537245 15.2799176,25.0560311 12.9142857,24.8761905 C12.4190476,24.8761905 12.2285714,24.8761905 12.1142857,25.4857143 C11.6571429,27.3904762 11.1619048,29.2952381 10.7047619,31.2380952 C10.6257299,31.8135782 10.1007425,32.22002 9.52380952,32.152381 L6.36190476,32.152381 C5.56190476,32.152381 5.37142857,31.9238095 5.52380952,31.2 L8,20.9142857 C8,20.5333333 8.26666667,20.4190476 8.64761905,20.4190476 L15.6190476,20.4190476 C16.0380952,20.4190476 16.1904762,20.4190476 16.0761905,20.952381 C15.9619048,21.4857143 15.847619,22.1714286 15.7333333,22.7428571 L15.9238095,22.8571429 Z" id="Combined-Shape"></path>
                <path d="M61.752381,10.3238095 C60.0676099,9.42908893 58.1718115,9.00780041 56.2666667,9.1047619 C54.2929813,9.08773174 52.3203553,9.20227132 50.3619048,9.44761905 C50.1070722,9.47120507 49.8602569,9.54914673 49.6380952,9.67619048 C49.4468976,9.7979918 49.3103503,9.98915801 49.2571429,10.2095238 L48.8,12.4952381 L55.2761905,12.4952381 L55.6190476,10.4 L59.8095238,15.6190476 L53.9809524,20.5714286 L54.3619048,18.247619 L47.6571429,18.247619 L45.6761905,27.9619048 L45.6761905,27.9619048 L45.6761905,27.9619048 C45.6337855,28.0590668 45.6337855,28.1695046 45.6761905,28.2666667 C45.7868308,28.307489 45.9084073,28.307489 46.0190476,28.2666667 L48.9904762,28.2666667 C49.1271031,28.3079856 49.2728969,28.3079856 49.4095238,28.2666667 C49.5339787,28.1757104 49.6164067,28.0383304 49.6380952,27.8857143 L51.0095238,22.0571429 L53.7142857,22.0571429 C55.2041723,22.0713026 56.6895958,21.8920273 58.1333333,21.5238095 C59.3878988,21.2087431 60.5415943,20.5794546 61.4857143,19.6952381 C62.4990715,18.3456511 63.1897568,16.7818353 63.5047619,15.1238095 L63.5047619,14.8952381 C63.5438275,14.5917281 63.5438275,14.2844624 63.5047619,13.9809524 L63.5047619,13.7904762 C63.5978928,12.4015411 62.9260191,11.0723998 61.752381,10.3238095 Z" id="Shape"></path>
                <path d="M68.7238095,17.4095238 C68.0650073,17.3462604 67.4016593,17.3462604 66.7428571,17.4095238 L64.7238095,17.8666667 L64.3047619,17.8666667 C64.3047619,17.8666667 64.0761905,17.8666667 64.0761905,17.6380952 C64.0621617,17.4351628 64.0621617,17.2315039 64.0761905,17.0285714 L64.3047619,15.7714286 C64.2873114,15.6833961 64.2873114,15.5927943 64.3047619,15.5047619 L64.3047619,15.3142857 L64.6857143,15.3142857 C66.1483965,14.8321456 67.6789531,14.587771 69.2190476,14.5904762 C70.4869291,14.4796953 71.7504652,14.8465284 72.7619048,15.6190476 C73.5493759,16.3053508 73.9719375,17.3194988 73.9047619,18.3619048 C73.9390485,18.7420857 73.9390485,19.124581 73.9047619,19.5047619 L72.3809524,28.1142857 C72.4066084,28.2399739 72.4066084,28.3695499 72.3809524,28.4952381 C72.2808115,28.5194813 72.1763314,28.5194813 72.0761905,28.4952381 L70.6285714,28.8380952 L68.952381,29.1809524 L66.9714286,29.1809524 C63.4666667,29.1809524 61.7142857,28 61.7142857,25.6380952 C61.6814619,25.2705727 61.6814619,24.9008559 61.7142857,24.5333333 C61.8082269,23.8806015 62.0144457,23.2490564 62.3238095,22.6666667 C62.6078854,22.1567304 63.0135581,21.7248853 63.5047619,21.4095238 C64.0900811,21.0614416 64.7366475,20.8286777 65.4095238,20.7238095 C66.3275666,20.5627282 67.2584524,20.4862171 68.1904762,20.4952381 L70.1333333,20.4952381 C70.3111111,19.5047619 70.4,18.9206349 70.4,18.7428571 C70.4510667,18.3200309 70.2777613,17.9012094 69.9428571,17.6380952 C69.5581467,17.4735614 69.1419934,17.3955327 68.7238095,17.4095238 L68.7238095,17.4095238 Z M69.3333333,26.5142857 L70.0190476,22.7047619 L68.152381,22.7047619 C67.4282934,22.6417066 66.7012794,22.7871095 66.0571429,23.1238095 C65.5976253,23.488057 65.3082939,24.0253867 65.2571429,24.6095238 C65.2401265,24.8250615 65.2401265,25.0416052 65.2571429,25.2571429 C65.2291532,25.6829416 65.4330434,26.090722 65.7904762,26.3238095 C66.3454256,26.5975776 66.9641226,26.7160515 67.5809524,26.6666667 C68.1693087,26.6967692 68.7590039,26.6454914 69.3333333,26.5142857 L69.3333333,26.5142857 Z" id="Shape"></path>
                <path d="M79.6571429,34.0952381 C78.8103449,34.0871166 77.9670728,33.9849018 77.1428571,33.7904762 C76.3697936,33.6307664 75.616224,33.3880915 74.8952381,33.0666667 C74.615873,32.9142857 74.4761905,32.7492063 74.4761905,32.5714286 L74.4761905,32.5714286 L74.7047619,31.3904762 C74.7047619,31.0857143 74.7047619,30.9714286 75.0857143,30.9714286 L75.3142857,30.9714286 L77.4857143,31.3904762 C78.2719145,31.4493689 79.0614188,31.4493689 79.847619,31.3904762 C80.5602531,31.4322003 81.2676003,31.2453539 81.8666667,30.8571429 C82.337957,30.393704 82.611086,29.7655072 82.6285714,29.1047619 L82.6285714,28.9904762 C81.8751469,29.1356342 81.1101065,29.2121383 80.3428571,29.2190476 C78.973652,29.2856264 77.6247901,28.8674792 76.5333333,28.0380952 C75.5111548,27.1246719 74.9754632,25.7854428 75.0857143,24.4190476 C75.0416544,23.9120666 75.0416544,23.4022191 75.0857143,22.8952381 L75.4285714,20.952381 C75.6003172,19.6084915 76.0408112,18.3129207 76.7238095,17.1428571 C77.2781483,16.260904 78.0890396,15.5696525 79.047619,15.1619048 C80.1754938,14.7222882 81.3805322,14.5149697 82.5904762,14.552381 C83.4403355,14.4959918 84.2929978,14.4959918 85.1428571,14.552381 C85.9520496,14.651754 86.7537948,14.8044674 87.5428571,15.0095238 L88,15.6190476 C88.042405,15.7162097 88.042405,15.8266474 88,15.9238095 L88,15.9238095 L85.6761905,28.952381 C85.5169687,29.9971859 85.1684008,31.0041599 84.647619,31.9238095 C84.1999729,32.6618537 83.5149477,33.2259921 82.7047619,33.5238095 C81.7286341,33.8856967 80.6980664,34.0789281 79.6571429,34.0952381 Z M84.6857143,17.5619048 L83.6571429,17.5619048 L82.3238095,17.5619048 C81.7412997,17.5392665 81.1631232,17.6706703 80.647619,17.9428571 C80.1831721,18.2224482 79.8119913,18.6333983 79.5809524,19.1238095 C79.2767106,19.775436 79.0712796,20.4687657 78.9714286,21.1809524 L78.6285714,23.1238095 C78.5893577,23.6564221 78.5893577,24.191197 78.6285714,24.7238095 C78.5809268,25.2778022 78.7595744,25.8274873 79.1238095,26.247619 C79.6121295,26.623388 80.2246169,26.8003288 80.8380952,26.7428571 C81.6540347,26.7316557 82.4684112,26.6680325 83.2761905,26.552381 L84.6857143,17.5619048 Z" id="Shape"></path>
                <path d="M101.485714,19.4285714 C101.524678,19.8721619 101.524678,20.3183143 101.485714,20.7619048 L101.104762,22.7809524 C100.997032,24.5604461 100.185043,26.2237686 98.8482684,27.4032757 C97.5114938,28.5827827 95.7600117,29.1813466 93.9809524,29.0666667 C93.0085773,29.0979028 92.046391,28.8606514 91.2,28.3809524 C90.4612744,27.9531597 89.8650074,27.3171415 89.4857143,26.552381 C89.1004668,25.7572087 88.9048672,24.8835303 88.9142857,24 C88.8782949,23.5944477 88.8782949,23.1865047 88.9142857,22.7809524 L89.2952381,20.7619048 C89.6041614,19.0126277 90.4891884,17.4168972 91.8095238,16.2285714 C93.1483509,15.1356841 94.8453971,14.5790529 96.5714286,14.6666667 C97.5644036,14.6251843 98.5505304,14.8487063 99.4285714,15.3142857 C100.169401,15.7100148 100.758685,16.3394774 101.104762,17.1047619 C101.387498,17.8456568 101.517092,18.6361823 101.485714,19.4285714 Z M98.1333333,19.6190476 C98.184029,19.00014 97.9928618,18.3856739 97.6,17.9047619 C97.145379,17.4889144 96.537773,17.281776 95.9238095,17.3333333 C95.1477095,17.3160694 94.3956697,17.6032119 93.8285714,18.1333333 C93.1736289,18.8520284 92.7605938,19.7580409 92.647619,20.7238095 L92.2666667,22.7428571 C92.2344383,23.110406 92.2344383,23.4800702 92.2666667,23.847619 C92.1651065,24.465657 92.3618099,25.0953185 92.797121,25.5456402 C93.232432,25.995962 93.8550658,26.2138908 94.4761905,26.1333333 C96.2539683,26.1333333 97.3460317,24.9904762 97.752381,22.7047619 L98.1333333,20.6857143 C98.1570253,20.3941313 98.1570253,20.1011068 98.1333333,19.8095238 L98.1333333,19.6190476 Z" id="Shape"></path>
                <path d="M116.952381,10.4 L116.952381,10.4 L116.685714,12 C116.606553,12.2766025 116.36314,12.4743753 116.07619,12.4952381 L110.857143,12.4952381 C110.273616,12.4425608 109.690975,12.6051584 109.219048,12.952381 C108.80046,13.4315766 108.546745,14.0324813 108.495238,14.6666667 L108,17.4095238 L114.857143,17.4095238 C114.954305,17.3671188 115.064743,17.3671188 115.161905,17.4095238 C115.200155,17.5075106 115.200155,17.6162989 115.161905,17.7142857 L115.161905,17.7142857 L114.819048,19.5428571 C114.788149,19.6815924 114.706655,19.8038328 114.590476,19.8857143 C114.466754,19.926416 114.333246,19.926416 114.209524,19.8857143 L107.352381,19.8857143 L107.047619,23.6952381 C107.026395,23.9742001 107.026395,24.2543714 107.047619,24.5333333 C107.01045,24.9164299 107.150826,25.2954432 107.428571,25.5619048 C107.816785,25.7989825 108.270614,25.9057658 108.72381,25.8666667 L113.866667,25.8666667 C113.971015,25.8542551 114.075293,25.8903817 114.149598,25.9646873 C114.223904,26.038993 114.260031,26.1432705 114.247619,26.247619 L114.247619,26.247619 L114.247619,26.247619 L113.980952,27.847619 C113.942337,28.1541967 113.680419,28.3833748 113.371429,28.3809524 L112.685714,28.3809524 L111.466667,28.3809524 L110.171429,28.3809524 L108.533333,28.3809524 C107.193903,28.4839305 105.857199,28.1497545 104.72381,27.4285714 C103.868744,26.8456046 103.322746,25.9076074 103.238095,24.8761905 C103.203944,24.4832804 103.203944,24.0881482 103.238095,23.6952381 L104.761905,14.8952381 C104.90824,13.947631 105.217572,13.032523 105.67619,12.1904762 C106.025437,11.5605192 106.522154,11.0245879 107.12381,10.6285714 C107.7041,10.2626766 108.35173,10.0165771 109.028571,9.9047619 C109.865097,9.83222542 110.706331,9.83222542 111.542857,9.9047619 C112.888889,9.9047619 113.866667,9.9047619 114.47619,9.9047619 L116.304762,10.1714286 C116.8,10.0952381 116.952381,10.2095238 116.952381,10.4 Z" id="Shape"></path>
                <path d="M127.009524,9.71428571 L127.009524,9.71428571 L126.742857,11.2 C126.7725,11.2994249 126.7725,11.405337 126.742857,11.5047619 C126.655944,11.531264 126.563104,11.531264 126.47619,11.5047619 L125.333333,11.5047619 C125.005383,11.4507522 124.670807,11.4507522 124.342857,11.5047619 C124.127576,11.5916856 123.95146,11.754254 123.847619,11.9619048 C123.696159,12.2611902 123.593285,12.5826698 123.542857,12.9142857 L123.314286,14.1333333 L125.714286,14.1333333 C125.91416,14.0281363 126.16147,14.1048875 126.266667,14.3047619 C126.371864,14.5046364 126.295113,14.7519457 126.095238,14.8571429 L126.095238,14.8571429 L125.828571,16.3809524 C125.807518,16.514131 125.740049,16.6355751 125.638095,16.7238095 C125.514849,16.7673836 125.380389,16.7673836 125.257143,16.7238095 L122.819048,16.7238095 L120.72381,28.6095238 C120.601178,29.5386937 120.261898,30.4260397 119.733333,31.2 C119.331066,31.7621223 118.755676,32.1769379 118.095238,32.3809524 C117.298622,32.5812728 116.478227,32.6710036 115.657143,32.647619 C115.156851,32.6330802 114.659208,32.5692799 114.171429,32.4571429 L113.904762,32.4571429 C113.875108,32.3838377 113.875108,32.3018766 113.904762,32.2285714 L113.904762,32.2285714 L113.980952,30.8571429 C113.980952,30.5777778 114.133333,30.4380952 114.438095,30.4380952 L115.580952,30.4380952 C116.022297,30.480043 116.464956,30.3727317 116.838095,30.1333333 C117.132183,29.7921608 117.306166,29.3638949 117.333333,28.9142857 L119.428571,17.0285714 L117.219048,16.6857143 C116.965079,16.6857143 116.838095,16.5460317 116.838095,16.2666667 L116.838095,16.2666667 L117.028571,15.1238095 C117.044188,14.978052 117.111811,14.8428048 117.219048,14.7428571 C117.342294,14.6992831 117.476754,14.6992831 117.6,14.7428571 L119.847619,14.7428571 L120.07619,13.5238095 C120.193234,12.781557 120.424548,12.0619139 120.761905,11.3904762 C121.00844,10.9003211 121.37548,10.4808474 121.828571,10.1714286 C122.25821,9.90156251 122.737426,9.72023721 123.238095,9.63809524 C123.87184,9.58344777 124.509112,9.58344777 125.142857,9.63809524 C125.642962,9.65498276 126.14038,9.71875428 126.628571,9.82857143 L126.895238,9.82857143 C126.922353,9.78088484 126.961837,9.74140106 127.009524,9.71428571 Z" id="Shape"></path>
                <path d="M130.247619,28.8380952 C129.499715,28.852521 128.754168,28.7496869 128.038095,28.5333333 C127.413201,28.3307316 126.840817,27.9925046 126.361905,27.5428571 C125.874369,27.1025773 125.496116,26.5547635 125.257143,25.9428571 C124.995841,25.249142 124.866634,24.5126627 124.87619,23.7714286 C124.829276,23.2645753 124.829276,22.7544723 124.87619,22.247619 L125.142857,20.6857143 C125.352944,18.7437374 126.259727,16.9437056 127.695238,15.6190476 C129.059642,14.5498646 130.763973,14.008807 132.495238,14.0952381 C133.913309,13.9616551 135.315153,14.4803375 136.304762,15.5047619 C137.207692,16.6034445 137.645194,18.0116553 137.52381,19.4285714 C137.560684,19.9104067 137.560684,20.3943552 137.52381,20.8761905 L137.295238,22.0952381 C137.295238,22.5269841 137.092063,22.7428571 136.685714,22.7428571 L128.266667,22.7428571 C128.266667,23.3142857 128.266667,23.6571429 128.266667,23.7714286 C128.230381,24.3974601 128.466508,25.0086121 128.914286,25.447619 C129.559919,25.8936651 130.342878,26.0961543 131.12381,26.0190476 C132.641076,25.9758594 134.143375,25.706216 135.580952,25.2190476 L135.809524,25.2190476 C135.809524,25.2190476 136.038095,25.2190476 136.038095,25.4857143 L135.771429,27.0857143 C135.809621,27.2098266 135.809621,27.3425544 135.771429,27.4666667 L135.27619,27.7714286 L133.714286,28.3809524 L132.114286,28.7238095 C131.496231,28.8128362 130.871919,28.8510594 130.247619,28.8380952 L130.247619,28.8380952 Z M134.057143,19.352381 C134.164161,18.7703341 134.041257,18.1694668 133.714286,17.6761905 C133.27137,17.266382 132.677901,17.0593579 132.07619,17.1047619 C130.273016,17.1047619 129.180952,18.1714286 128.8,20.3047619 L134.133333,20.3047619 C134.170065,20.0142395 134.182806,19.7211855 134.171429,19.4285714 L134.057143,19.352381 Z" id="Shape"></path>
                <path d="M143.161905,28.8380952 C142.539325,28.8432503 141.920588,28.7401276 141.333333,28.5333333 C140.160684,28.0805257 139.23376,27.1536014 138.780952,25.9809524 C138.547694,25.3600558 138.431448,24.7013279 138.438095,24.0380952 C138.404683,23.6069956 138.404683,23.1739567 138.438095,22.7428571 L138.857143,20.3809524 C139.035394,19.0214857 139.517123,17.7195169 140.266667,16.5714286 C140.847392,15.7312176 141.652628,15.0711883 142.590476,14.6666667 C143.544619,14.2744083 144.568485,14.0800035 145.6,14.0952381 C146.728012,14.0974734 147.838824,14.3719092 148.838095,14.8952381 C149.142857,14.8952381 149.295238,15.2380952 149.295238,15.3904762 L149.295238,15.6190476 L148.990476,17.1428571 C148.990476,17.447619 148.990476,17.5619048 148.571429,17.5619048 L148.380952,17.5619048 C147.444624,17.2471038 146.471434,17.0550267 145.485714,16.9904762 C144.707714,16.9464593 143.942968,17.2059265 143.352381,17.7142857 C142.727976,18.4296905 142.341847,19.3217821 142.247619,20.2666667 L141.828571,22.6285714 C141.800145,23.0344235 141.800145,23.441767 141.828571,23.847619 C141.77572,24.420459 141.969734,24.9886428 142.361905,25.4095238 C142.838527,25.7794171 143.436979,25.9562322 144.038095,25.9047619 C145.102698,25.8482821 146.154161,25.6431185 147.161905,25.2952381 L147.390476,25.2952381 C147.516713,25.2952381 147.619048,25.397573 147.619048,25.5238095 L147.314286,27.2380952 C147.354987,27.3618179 147.354987,27.495325 147.314286,27.6190476 L146.819048,27.8857143 C146.34069,28.0883486 145.842861,28.2415266 145.333333,28.3428571 C144.633775,28.6004365 143.903968,28.7668839 143.161905,28.8380952 L143.161905,28.8380952 Z" id="Shape"></path>
                <path d="M158.895238,14.8571429 L158.895238,14.8571429 L158.666667,16.3428571 C158.632589,16.4802122 158.551778,16.6014289 158.438095,16.6857143 C158.314849,16.7292883 158.180389,16.7292883 158.057143,16.6857143 L155.771429,16.6857143 L154.361905,24.6095238 C154.337345,24.901071 154.337345,25.1941671 154.361905,25.4857143 C154.294114,25.6171717 154.294114,25.7733045 154.361905,25.9047619 C154.575151,25.9523836 154.796277,25.9523836 155.009524,25.9047619 L156.571429,25.9047619 C156.87619,25.9047619 157.028571,25.9047619 157.028571,26.2095238 L157.028571,26.2095238 L156.571429,28.2285714 C156.516301,28.4989276 156.275863,28.6912775 156,28.6857143 C155.416669,28.7288336 154.83095,28.7288336 154.247619,28.6857143 C153.336844,28.7552965 152.428023,28.5280913 151.657143,28.0380952 C151.036933,27.5107669 150.710423,26.7157868 150.780952,25.9047619 C150.750241,25.498993 150.750241,25.0914832 150.780952,24.6857143 L152.190476,16.7619048 L149.866667,16.4190476 C149.752233,16.4311986 149.638439,16.3909705 149.557068,16.3095989 C149.475696,16.2282273 149.435468,16.1144335 149.447619,16 L149.447619,16 L149.638095,14.8571429 C149.653712,14.7113853 149.721335,14.5761381 149.828571,14.4761905 C149.951817,14.4326164 150.086278,14.4326164 150.209524,14.4761905 L152.761905,14.4761905 L153.142857,12.4190476 C153.141478,12.2432818 153.216044,12.0754769 153.347417,11.9587008 C153.47879,11.8419247 153.654179,11.787547 153.828571,11.8095238 L156.228571,11.3904762 L156.228571,11.3904762 C156.457143,11.3904762 156.571429,11.3904762 156.571429,11.6952381 L156.571429,11.8095238 L156.07619,14.4 L158.361905,14.4 C158.459892,14.3617499 158.56868,14.3617499 158.666667,14.4 C158.837722,14.4829023 158.931549,14.6705574 158.895238,14.8571429 L158.895238,14.8571429 Z" id="Shape"></path>
                <path d="M163.657143,14.8571429 L163.657143,14.8571429 L161.333333,28.0761905 C161.307781,28.2274079 161.226165,28.3634358 161.104762,28.4571429 C160.981516,28.5007169 160.847056,28.5007169 160.72381,28.4571429 L158.4,28.4571429 C158.302838,28.4995479 158.1924,28.4995479 158.095238,28.4571429 C158.060379,28.358546 158.060379,28.2509778 158.095238,28.152381 L158.095238,28.152381 L160.380952,14.9333333 C160.39298,14.7865478 160.461216,14.650074 160.571429,14.552381 C160.694675,14.5088069 160.829135,14.5088069 160.952381,14.552381 L163.27619,14.552381 C163.460099,14.5486721 163.620391,14.6769054 163.657143,14.8571429 L163.657143,14.8571429 Z M164.647619,9.71428571 L164.647619,9.71428571 L164.190476,12 C164.13779,12.2775598 163.901278,12.482537 163.619048,12.4952381 L161.180952,12.4952381 C161.081891,12.5272728 160.975252,12.5272728 160.87619,12.4952381 C160.833785,12.398076 160.833785,12.2876383 160.87619,12.1904762 L160.87619,12.1904762 L161.295238,9.98095238 C161.374399,9.70434984 161.617812,9.50657703 161.904762,9.48571429 L164.190476,9.48571429 C164.378943,9.43321617 164.576537,9.53201331 164.647619,9.71428571 L164.647619,9.71428571 Z" id="Shape"></path>
                <path d="M177.67619,14.7428571 C177.691584,14.8182701 177.691584,14.8960156 177.67619,14.9714286 L172.457143,26.4 C172.157554,27.1566358 171.623541,27.797451 170.933333,28.2285714 C170.307538,28.5868346 169.597224,28.7709899 168.87619,28.7619048 C168.189308,28.8610588 167.493133,28.6580237 166.96724,28.2051714 C166.441347,27.752319 166.13723,27.093991 166.133333,26.4 L164.990476,14.9714286 L164.990476,14.9714286 C164.943578,14.8487745 164.943578,14.7131302 164.990476,14.5904762 C165.099533,14.5415837 165.224277,14.5415837 165.333333,14.5904762 L168,14.5904762 C168.266667,14.5904762 168.419048,14.5904762 168.419048,15.0857143 L168.990476,25.6761905 C168.990476,26.0952381 168.990476,26.2857143 169.371429,26.2857143 C169.752381,26.2857143 169.752381,26.0571429 169.942857,25.6761905 L174.095238,14.9333333 C174.095238,14.6031746 174.298413,14.4380952 174.704762,14.4380952 L177.333333,14.4380952 C177.420529,14.4271068 177.508224,14.4542957 177.573911,14.5126837 C177.639597,14.5710718 177.67688,14.6549742 177.67619,14.7428571 Z" id="Shape"></path>
                <path d="M189.066667,19.2 C189.10563,19.6435905 189.10563,20.0897429 189.066667,20.5333333 L188.685714,22.552381 C188.577985,24.3318746 187.765996,25.9951972 186.429221,27.1747042 C185.092446,28.3542113 183.340964,28.9527752 181.561905,28.8380952 C180.58953,28.8693314 179.627343,28.63208 178.780952,28.152381 C178.042227,27.7245883 177.44596,27.0885701 177.066667,26.3238095 C176.681419,25.5286372 176.48582,24.6549589 176.495238,23.7714286 C176.458638,23.3659035 176.458638,22.957906 176.495238,22.552381 L176.87619,20.5333333 C177.103109,18.7358655 177.936272,17.0695392 179.238095,15.8095238 C180.575133,14.7133716 182.273476,14.1563151 184,14.247619 C184.992808,14.2079642 185.978464,14.4313796 186.857143,14.8952381 C187.597972,15.2909672 188.187256,15.9204298 188.533333,16.6857143 C188.893571,17.4744817 189.075662,18.3329106 189.066667,19.2 Z M185.714286,19.4285714 C185.764981,18.8096638 185.573814,18.1951977 185.180952,17.7142857 C184.726331,17.2984383 184.118725,17.0912998 183.504762,17.1428571 C182.728662,17.1255932 181.976622,17.4127357 181.409524,17.9428571 C180.754581,18.6615522 180.341546,19.5675648 180.228571,20.5333333 L179.847619,22.552381 C179.815584,22.9199382 179.815584,23.2895856 179.847619,23.6571429 C179.746059,24.2751808 179.942762,24.9048423 180.378073,25.355164 C180.813384,25.8054858 181.436018,26.0234146 182.057143,25.9428571 C183.834921,25.9428571 184.926984,24.8 185.333333,22.5142857 L185.714286,20.4952381 C185.750188,20.1405889 185.750188,19.7832207 185.714286,19.4285714 L185.714286,19.4285714 Z" id="Shape"></path>
            </g>
        </g>
    </g>
</svg>