<?xml version="1.0" encoding="UTF-8" standalone="no"?>
<svg width="190px" height="33px" viewBox="0 0 190 33" version="1.1" xmlns="http://www.w3.org/2000/svg" xmlns:xlink="http://www.w3.org/1999/xlink">
    <!-- Generator: Sketch 39.1 (31720) - http://www.bohemiancoding.com/sketch -->
    <title>paysafe</title>
    <desc>Created with Sketch.</desc>
    <defs></defs>
    <g id="Payments" stroke="none" stroke-width="1" fill="none" fill-rule="evenodd">
        <g id="paysafe" transform="translate(0.000000, -4.000000)" fill="#346275">
            <path d="M17.7471667,16.5596538 C17.7980629,16.9355038 17.8058932,17.2996085 17.8058932,17.6754585 L17.8058932,25.4821759 C17.8058932,26.1399134 17.7315062,26.7819905 17.5396662,27.4084071 C17.3830619,27.9095404 17.1403255,28.3715227 16.7762209,28.759118 C16.3181537,29.2563362 15.7465484,29.5382237 15.1044715,29.6987429 C14.67381,29.8044508 14.2274882,29.851432 13.7811662,29.851432 C10.4650731,29.851432 7.15289509,29.851432 3.84071707,29.8436018 C2.8071296,29.8436018 1.92231609,29.4520914 1.13538017,28.8021842 C0.990521324,28.6808159 0.888728618,28.5281268 0.786935913,28.3754378 C0.505048422,27.9330311 0.328868739,27.4514732 0.215330723,26.9385946 C0.156604162,26.6841128 0.117453121,26.4218008 0.0978776012,26.163404 C0.090047393,26.0576962 0.0978776012,25.9402431 0,25.8658561 L0,17.0725324 C0.109622913,17.0020606 0.0861322891,16.8885225 0.0978776012,16.7828147 C0.129198434,16.4461158 0.18400989,16.117247 0.266227076,15.7883783 C0.391510404,15.3146507 0.575520294,14.8644137 0.857407786,14.4494127 C0.951370283,14.3123841 1.0649083,14.1910158 1.19802184,14.0813929 C1.80486297,13.5998351 2.49000618,13.2787966 3.25736657,13.1417679 C3.41397073,13.1104471 3.57840509,13.1104471 3.73500926,13.1104471 L13.8947042,13.1104471 C14.411498,13.1104471 14.9243766,13.1730888 15.4137646,13.3336081 C16.3377292,13.631156 16.9915516,14.234082 17.3830619,15.1228106 C17.5827323,15.5808778 17.6884401,16.0702658 17.7471667,16.5596538 L17.7471667,16.5596538 L17.7471667,16.5596538 Z M38.2897176,17.5893262 C38.2897176,20.3729651 38.2818874,23.1487739 38.2936327,25.9324129 C38.2975478,26.989491 37.9177827,27.8743045 37.177828,28.606429 C36.8841952,28.9039768 36.5631567,29.1780341 36.1990521,29.3777044 C35.7448999,29.6282711 35.2515968,29.77313 34.7308879,29.8201112 C34.4215948,29.851432 34.1083864,29.851432 33.7990933,29.851432 L29.2145064,29.851432 L28.9756851,29.851432 C28.8817226,29.8592623 28.8582319,29.8827528 28.8543168,29.9884607 C28.8504018,30.0667628 28.8504018,30.14898 28.8504018,30.227282 L28.8504018,35.7475788 C28.8504018,35.8297959 28.8543168,35.9002678 28.8504018,35.9903152 C28.8425715,36.0842777 28.822996,36.0999381 28.7172882,36.1077683 L28.560684,36.1077683 L25.0410055,36.1077683 L24.8491654,36.1077683 C24.7669482,36.0999381 24.7434576,36.0764475 24.7356273,36.0059755 L24.7356273,35.7436636 L24.7356273,26.4687821 L24.7356273,17.5619204 C24.7356273,16.9511642 24.798269,16.3364928 24.9587883,15.741397 C25.0527508,15.3812075 25.1936946,15.0366783 25.3737893,14.7078096 C25.5460539,14.4024315 25.7692149,14.1401195 26.0628477,13.9365341 C26.6266226,13.5528539 27.2295486,13.2709664 27.9068617,13.1574284 C28.0556357,13.1261075 28.2083247,13.1182773 28.3610137,13.1182773 L34.468576,13.1182773 C34.8757468,13.1182773 35.2790026,13.1730888 35.6783432,13.2787966 C36.7941479,13.5606841 37.553678,14.2419122 37.9608489,15.3185658 C38.1057077,15.7100762 38.1957551,16.1211621 38.2427363,16.5361632 C38.2858025,16.8885225 38.2897176,17.2369668 38.2897176,17.5893262 L38.2897176,17.5893262 L38.2897176,17.5893262 Z M34.167113,18.4937152 C34.167113,18.3331959 34.1553677,18.1726767 34.1123015,18.0199876 C34.0300844,17.6832886 33.8304141,17.4522975 33.4819698,17.3779106 C33.376262,17.3465898 33.266639,17.3387595 33.1648464,17.3387595 L30.0993199,17.3387595 C29.9466308,17.3387595 29.7978569,17.3622501 29.652998,17.4014011 C29.2458272,17.5149391 28.9991757,17.7850814 28.9052132,18.188337 C28.862147,18.3645167 28.8504018,18.5406964 28.8504018,18.7247064 C28.8543168,19.8170204 28.8504018,20.9289099 28.8504018,22.0290541 C28.8504018,22.7690088 28.8543168,23.5207087 28.8504018,24.2684937 C28.8504018,24.4368432 28.8660621,24.6051926 28.9091283,24.7657119 C28.9952606,25.1102411 29.1949308,25.3529775 29.5237997,25.486091 C29.72347,25.5683082 29.9309705,25.6074593 30.1502163,25.6074593 L33.0826292,25.6074593 C33.5446115,25.6074593 33.8421594,25.3490624 34.0653203,24.9888727 C34.1553677,24.8440139 34.1631979,24.6678342 34.1631979,24.4994848 L34.1631979,21.4848547 C34.1631979,20.4904183 34.1631979,19.4881517 34.167113,18.4937152 L34.167113,18.4937152 L34.167113,18.4937152 Z M117.194725,20.1615496 C117.179064,19.1201318 117.163404,18.0826293 117.171234,17.0412116 C117.179064,16.4069647 117.261281,15.7883783 117.500103,15.1893674 C117.828971,14.3789408 118.396661,13.8112507 119.195343,13.4706367 C119.672985,13.2709664 120.174119,13.1652586 120.694828,13.1261075 C120.851432,13.1104471 121.011951,13.1104471 121.17247,13.1104471 L126.774984,13.1104471 C127.236967,13.1104471 127.695034,13.1574284 128.14527,13.2866268 C129.331547,13.6076653 130.087162,14.34762 130.439521,15.5182361 C130.592211,16.0232845 130.670512,16.5439933 130.670512,17.0647022 L130.670512,20.3220688 C130.670512,20.3612198 130.670512,20.404286 130.662683,20.4512673 C130.662683,20.4904183 130.639191,20.5217391 130.60004,20.5334844 C130.55306,20.556975 130.509993,20.5726355 130.455182,20.596126 C128.779518,21.2538635 127.119513,21.911601 125.447764,22.5615083 C124.155779,23.0743869 122.855965,23.5872656 121.563981,24.1001442 C121.516999,24.1158046 121.481764,24.131465 121.442613,24.1549556 C121.411291,24.170616 121.387801,24.1941066 121.387801,24.2371729 C121.364311,24.5660416 121.387801,24.8949103 121.603132,25.1767978 C121.654028,25.2394395 121.685349,25.3059962 121.74016,25.3686378 C121.845868,25.521327 121.998557,25.6074593 122.190397,25.6074593 L122.433133,25.6074593 L130.329898,25.6074593 C130.701834,25.6074593 130.658767,25.5683082 130.658767,25.9284977 L130.658767,29.5538841 C130.658767,29.8592623 130.682258,29.8592623 130.353389,29.8592623 L125.87451,29.8592623 L121.665773,29.8592623 C121.125489,29.851432 120.600865,29.8279415 120.076241,29.7144034 C119.316711,29.5460539 118.682464,29.1584586 118.169585,28.5751081 C117.832887,28.1796826 117.566659,27.7646815 117.433546,27.2596332 C117.363074,26.9934061 117.320008,26.7232639 117.288687,26.4492066 C117.20647,25.8384503 117.241706,25.223779 117.233876,24.6130229 C117.194725,23.1252833 117.2143,21.6414588 117.194725,20.1615496 L117.194725,20.1615496 L117.194725,20.1615496 Z M121.301669,19.8248505 C121.301669,19.8874922 121.309499,19.9462188 121.317329,20.0088604 C121.317329,20.0480115 121.34865,20.0793323 121.391717,20.0715022 C121.485679,20.0401812 121.583556,20.0166907 121.669688,19.9814547 C123.02823,19.4764063 124.37111,18.9635277 125.729651,18.450649 C125.937152,18.372347 126.136822,18.2901298 126.344323,18.2118277 C126.42654,18.1805069 126.45003,18.1296105 126.45003,18.0513085 C126.442201,17.7929116 126.313002,17.6167319 126.089841,17.4914485 C125.898001,17.3779106 125.68267,17.3387595 125.455594,17.3387595 C124.53163,17.3387595 123.58809,17.3465898 122.656295,17.3387595 C122.221718,17.3309293 121.861528,17.4836183 121.563981,17.7889965 C121.387801,17.9651762 121.301669,18.1648464 121.301669,18.4075829 C121.309499,18.6464043 121.301669,18.8891407 121.301669,19.127962 L121.301669,19.8248505 L121.301669,19.8248505 L121.301669,19.8248505 Z M55.0189572,15.7844632 C55.1285801,16.2347002 55.1794764,16.6927673 55.1794764,17.1625798 C55.1794764,20.0440964 55.1833916,22.9373582 55.1755613,25.8267051 C55.1755613,26.5079331 55.0581082,27.1656707 54.7605603,27.7842571 C54.4277765,28.4850607 53.9383885,29.02143 53.2649906,29.4051101 C52.8499895,29.6478466 52.4036677,29.7770451 51.9260249,29.8161961 C51.6167318,29.8553471 51.3074385,29.8553471 50.9942303,29.8553471 L45.8771892,29.8553471 C45.2390273,29.8475169 44.6008653,29.7848752 43.9822788,29.6008654 C43.4772304,29.4481764 43.0152481,29.2054398 42.6237378,28.8452503 C42.181331,28.4302493 41.9072737,27.9017102 41.7584997,27.3066143 C41.652792,26.8994436 41.6018956,26.4883577 41.5979805,26.0694415 C41.5940654,24.9144858 41.5901503,23.7595301 41.5979805,22.6045744 C41.6058107,22.0603749 41.6762825,21.5279208 41.844632,20.9993817 C42.1774159,19.9736245 42.8547289,19.2923964 43.8765711,18.9439521 C44.3424684,18.7834329 44.8240262,18.712961 45.3134143,18.6855553 C45.4426127,18.6777251 45.5796413,18.6777251 45.7127548,18.6777251 L50.724088,18.6777251 C51.1351739,18.6777251 51.0803624,18.7325365 51.0842777,18.3018751 C51.0881927,18.1726767 51.0803624,18.035648 51.0412114,17.9025345 C50.9668245,17.6715434 50.8180506,17.5188542 50.6027198,17.4366371 C50.4578609,17.3818257 50.3130021,17.3544199 50.160313,17.3544199 C50.0741807,17.3465898 49.9841334,17.3465898 49.894086,17.3465898 L42.0325571,17.3465898 C41.9581701,17.3465898 41.8876982,17.3544199 41.8133112,17.3465898 C41.6841128,17.3465898 41.6723674,17.3309293 41.6684523,17.1860704 C41.6645373,17.131259 41.6684523,17.0803626 41.6684523,17.0255512 C41.6684523,15.8314444 41.6645373,14.649083 41.6684523,13.4549763 C41.6684523,13.0791263 41.6371315,13.1182773 41.9894909,13.1182773 L46.7071913,13.1182773 L51.0020604,13.1182773 C51.5188541,13.1182773 52.0317328,13.1652586 52.528951,13.294457 C53.0809807,13.4393159 53.5899442,13.670307 54.0166906,14.0422419 C54.5413145,14.5081393 54.8584379,15.1071502 55.0189572,15.7844632 L55.0189572,15.7844632 L55.0189572,15.7844632 Z M51.0842777,23.8613228 C51.0803624,23.7321243 51.0842777,23.5950958 51.0764474,23.4619822 C51.0451265,23.0508963 50.8063052,22.7650936 50.4069645,22.6672161 C50.2581906,22.6358953 50.1094167,22.6124046 49.9606427,22.6124046 C49.4242735,22.6202349 48.8918194,22.6202349 48.3593652,22.6202349 L46.7659178,22.6202349 C46.6406345,22.6202349 46.5192663,22.6280651 46.3978981,22.6515557 C45.9202553,22.7220276 45.8380382,22.8942921 45.7597361,23.3092932 C45.7519059,23.3327838 45.7519059,23.3641046 45.7519059,23.3915104 C45.7479907,23.8730681 45.7401606,24.354626 45.7401606,24.8283535 C45.7401606,24.9810426 45.8028022,25.1102411 45.9085101,25.2120337 C46.1551616,25.4586852 46.4409642,25.6192046 46.8050689,25.6113744 C47.2279001,25.6035441 47.6546465,25.6113744 48.0813928,25.6113744 L50.0271996,25.6113744 C50.2307849,25.6113744 50.4343703,25.5800536 50.6222953,25.4900061 C50.837626,25.3999587 50.9785698,25.2433545 51.0372964,25.0084483 C51.0686172,24.9105707 51.0803624,24.8009478 51.0803624,24.6952399 C51.0842777,24.4094374 51.0842777,24.1353801 51.0842777,23.8613228 L51.0842777,23.8613228 L51.0842777,23.8613228 Z M107.970739,29.8553471 L111.517824,29.8553471 L111.678343,29.8553471 C111.784051,29.8475169 111.799711,29.8318565 111.807541,29.7339789 C111.815372,29.6556769 111.807541,29.58912 111.807541,29.5186482 L111.807541,26.5588295 L111.807541,17.6519678 C111.807541,17.3230991 111.784051,17.3465898 112.105089,17.3465898 L114.469812,17.3465898 C114.724294,17.3465898 114.724294,17.3465898 114.724294,17.0999381 L114.724294,13.368844 C114.724294,13.3218627 114.724294,13.2787966 114.716464,13.2318153 C114.716464,13.1417679 114.685143,13.1182773 114.587265,13.1104471 L114.454152,13.1104471 L112.798063,13.1104471 L111.948485,13.1104471 C111.827117,13.1104471 111.803626,13.0869565 111.803626,12.9734185 C111.795796,12.6837008 111.795796,12.3939831 111.803626,12.0925201 C111.811456,11.978982 111.838862,11.8615289 111.870183,11.7558211 C111.964146,11.4269524 112.183391,11.2037914 112.50443,11.0824232 C112.71193,11.0041211 112.911601,10.9767154 113.126931,10.9767154 L114.493303,10.9767154 C114.728209,10.9767154 114.736039,10.9767154 114.736039,10.7300639 L114.736039,7.10467751 C114.736039,6.87368637 114.728209,6.87368637 114.493303,6.87368637 C113.698537,6.86585616 112.89594,6.86585616 112.101174,6.87368637 C111.846692,6.87368637 111.580465,6.88934678 111.329899,6.92849783 C110.42551,7.04986605 109.607253,7.37873479 108.910364,7.98557592 C108.37008,8.45930351 108.00206,9.0348238 107.81805,9.71996701 C107.724088,10.1193076 107.681022,10.5225633 107.681022,10.9375644 L107.681022,20.1576343 L107.681022,29.5460539 C107.673191,29.8631774 107.657531,29.8553471 107.970739,29.8553471 L107.970739,29.8553471 L107.970739,29.8553471 Z M0.571605191,13.2396456 C0.59901092,13.2239851 0.626416647,13.2004945 0.653822376,13.1770039 C1.02184216,12.8951164 1.40943746,12.6484648 1.8400989,12.4644549 C2.11415619,12.3430867 2.39995878,12.241294 2.69359158,12.166907 C2.77580876,12.1512466 2.8071296,12.1120956 2.82670512,12.0298784 C2.88934678,11.7636513 2.96764887,11.4935091 3.06552646,11.2429425 C4.01689675,8.69029465 6.54996908,7.0067999 9.32577784,7.1908098 C10.1949309,7.24562126 11.0171028,7.45703687 11.776633,7.8642077 C13.4366371,8.7372759 14.5132907,10.0801566 14.9909334,11.90068 C15.0574902,12.1473315 15.0535751,12.1473315 15.2884813,12.1982279 C16.0127756,12.3665774 16.670513,12.6719555 17.2303729,13.1535133 C17.2616937,13.1770039 17.2851844,13.2318153 17.3517411,13.1848341 C17.3556562,13.0791263 17.3634865,12.9616732 17.3634865,12.8481351 C17.3634865,12.4409643 17.3243354,12.0377086 17.2812693,11.6227076 C17.2264578,11.1176592 17.1403255,10.6204409 17.0032968,10.1388831 C16.2046156,7.30043271 13.9573459,5.07665361 11.1149804,4.31320832 C10.6569132,4.1918401 10.198846,4.10570781 9.72903356,4.05481146 C9.68205231,4.05481146 9.62332575,4.07047187 9.59592002,4 L8.58190807,4 L8.04553882,4 C8.04553882,4.02349062 8.04945392,4.03915104 8.04945392,4.05481146 C7.78714195,4.10179271 7.51699977,4.13311354 7.2586029,4.18400989 C5.28930556,4.59118071 3.66453739,5.57387182 2.39604368,7.13599834 C1.4564187,8.28312383 0.865237994,9.606429 0.622501544,11.074593 C0.540284358,11.5953018 0.524623943,12.1160107 0.49330311,12.6406346 C0.485472902,12.8246445 0.49330311,13.0086544 0.497218214,13.2004945 C0.49330311,13.2396456 0.536369255,13.2631362 0.571605191,13.2396456 L0.571605191,13.2396456 L0.571605191,13.2396456 Z M101.107562,29.8161961 C100.802184,29.8553471 100.508551,29.8553471 100.203173,29.8553471 L95.0861319,29.8553471 C94.4362247,29.8553471 93.7941476,29.7927054 93.167731,29.6008654 C92.6509372,29.4481764 92.1772097,29.1976096 91.7856993,28.8295898 C91.3393775,28.3989284 91.0692352,27.8664743 90.9204612,27.2635482 C90.8264988,26.8798681 90.7795175,26.4922728 90.7795175,26.1085926 C90.7677722,24.9066557 90.7638571,23.7086338 90.7795175,22.5066969 C90.7873478,21.8802801 90.8813102,21.2695239 91.1357921,20.6861735 C91.4490003,19.9501338 91.9657941,19.4176797 92.6940034,19.0809808 C93.1246649,18.8891407 93.582732,18.7834329 94.0525445,18.7207912 C94.3892435,18.67381 94.7259424,18.67381 95.0665565,18.67381 L99.8625589,18.67381 L100.050484,18.67381 C100.254069,18.67381 100.257984,18.67381 100.2619,18.4663095 C100.2619,18.3449413 100.26973,18.2274882 100.257984,18.1139501 C100.211003,17.6793736 99.9956725,17.4875334 99.6589736,17.3935709 C99.4827939,17.3465898 99.3066142,17.3387595 99.1304344,17.3387595 L91.1866883,17.3387595 L90.9439519,17.3387595 C90.8813102,17.3387595 90.8421592,17.2996085 90.8421592,17.2487121 L90.8421592,17.056872 L90.8421592,13.4001648 C90.8421592,13.0947867 90.8304139,13.1104471 91.1240467,13.1104471 L95.9004736,13.1104471 L100.191428,13.1104471 C100.712136,13.1104471 101.2211,13.1574284 101.722233,13.294457 C102.266433,13.4314856 102.763651,13.6624768 103.186482,14.0344117 C103.730682,14.5081393 104.04389,15.1110653 104.21224,15.8001236 C104.317947,16.266021 104.364929,16.7319184 104.364929,17.1978157 L104.364929,25.783639 C104.364929,26.5196785 104.24356,27.2361425 103.891201,27.8938801 C103.562332,28.5202967 103.104265,29.025345 102.485679,29.3855346 C102.043272,29.6321862 101.58912,29.7652997 101.107562,29.8161961 L101.107562,29.8161961 L101.107562,29.8161961 Z M100.254069,23.9004738 C100.254069,23.755615 100.254069,23.6185864 100.250154,23.4737276 C100.222749,23.0743869 99.9995875,22.7924994 99.6159074,22.6867916 C99.4788787,22.6476405 99.3418501,22.6163197 99.2009064,22.6163197 C98.0890168,22.62415 96.9810423,22.62415 95.8691528,22.62415 C95.7164637,22.6163197 95.5676898,22.6476405 95.4228309,22.6867916 C95.1918398,22.7337728 95.0430658,22.8708015 94.9843393,23.0978776 C94.9530185,23.2035853 94.9216976,23.3210384 94.9216976,23.4345764 C94.9177825,23.8926437 94.9138675,24.3585411 94.9138675,24.8205234 C94.9138675,24.9810426 94.9843393,25.1102411 95.0939622,25.2276942 C95.3484439,25.4743457 95.6342465,25.6192046 95.9944361,25.6113744 C96.5268903,25.5957139 97.0554294,25.6113744 97.5957137,25.6113744 L99.1891611,25.6113744 C99.3340198,25.6113744 99.4710485,25.5957139 99.6080772,25.5565629 C100.019163,25.4508551 100.238409,25.1807129 100.250154,24.7539665 C100.254069,24.4642488 100.254069,24.1823614 100.254069,23.9004738 L100.254069,23.9004738 L100.254069,23.9004738 Z M162.449413,28.2266639 C161.740778,29.3659591 160.718936,30.078508 159.376056,30.3447351 C159.039356,30.4191221 158.686997,30.4426128 158.334638,30.4426128 L153.429013,30.4426128 C152.669483,30.4426128 152.011745,30.3369049 151.408819,30.1059138 C150.183392,29.6321862 149.298577,28.8021842 148.80136,27.6393983 C148.63301,27.2439727 148.527302,26.8133113 148.449001,26.2730269 C148.409849,25.8932618 148.402019,25.5291572 148.402019,25.1650524 L148.402019,23.1291984 C148.402019,22.5654234 148.46466,22.025139 148.570369,21.5200906 C148.668247,21.0189573 148.836595,20.5648052 149.091078,20.1380589 C149.549144,19.3237172 150.246033,18.7325365 151.154338,18.3840923 C151.706367,18.1687616 152.301463,18.0473933 152.92788,18.0239027 C153.11972,18.0121574 153.303729,18.0043272 153.487739,18.0043272 L160.918607,18.0043272 C160.918607,17.8320626 160.918607,17.659798 160.910776,17.4875334 C160.902946,16.9511642 160.820729,16.5048423 160.652379,16.117247 C160.452709,15.6670101 160.202142,15.3146507 159.888934,15.0445085 C159.665773,14.8487533 159.454358,14.7352153 159.192046,14.688234 C158.792705,14.6060169 158.43643,14.5707809 158.060581,14.5707809 L155.186894,14.5668658 L149.396455,14.5707809 C149.298577,14.5707809 149.196785,14.5668658 149.098907,14.5590356 C148.707397,14.5277148 148.46466,14.2693179 148.44117,13.8621471 L148.44117,13.1261075 C148.449001,12.8716258 148.546877,12.4605398 149.098907,12.390068 L149.349474,12.3822378 C152.078302,12.3822378 154.811044,12.3822378 157.539872,12.390068 C158.303317,12.390068 158.992376,12.4409643 159.618792,12.542757 C160.260869,12.6445497 160.83639,12.9303523 161.317947,13.3845044 C161.768184,13.8034205 162.151864,14.3280445 162.465072,14.985782 C162.762621,15.5965382 162.94663,16.2503605 163.024932,16.9355038 C163.056253,17.2134762 163.067998,17.507109 163.067998,17.7968267 L163.056253,20.2672573 L163.067998,25.2081186 C163.067998,25.7405728 163.024932,26.3004326 162.954461,26.875953 C162.887903,27.3340201 162.719555,27.7764269 162.449413,28.2266639 L162.449413,28.2266639 L162.449413,28.2266639 Z M160.887286,20.1693797 C158.393365,20.1654646 155.907274,20.1654646 153.393777,20.1654646 C153.080568,20.1654646 152.794765,20.1928704 152.520708,20.255512 C151.6633,20.443437 151.099526,20.9289099 150.801977,21.7315062 C150.676694,22.0642901 150.602307,22.4205646 150.602307,22.7846692 C150.594478,23.7751905 150.594478,24.769627 150.602307,25.7601483 C150.602307,26.0537811 150.657119,26.3709046 150.739336,26.7154336 C150.778487,26.8485472 150.829383,26.9777456 150.915516,27.0912837 C150.997733,27.2243972 151.130846,27.3496805 151.314857,27.5023696 C151.933442,28.0152483 152.60684,28.2618998 153.362456,28.2618998 L154.098495,28.2618998 L155.57449,28.2618998 C156.49454,28.2618998 157.418504,28.2618998 158.342468,28.2540696 C158.79662,28.2540696 159.192046,28.1835976 159.552236,28.0465691 C160.092519,27.8429837 160.448794,27.4827941 160.66021,26.9503399 C160.812898,26.5549144 160.887286,26.1399134 160.887286,25.674016 L160.887286,20.1693797 L160.887286,20.1693797 L160.887286,20.1693797 Z M139.397279,30.4426128 L145.230784,30.4426128 L145.262106,30.4426128 C145.64187,30.4034617 145.888522,30.1372346 145.912012,29.7378939 L145.912012,29.0801565 C145.912012,28.3989284 145.504842,28.2618998 145.160312,28.2618998 L139.557799,28.2618998 C139.248505,28.2618998 138.927467,28.2384091 138.614259,28.1992581 C138.371522,28.1757675 138.148362,28.1444466 137.936946,28.0778899 C137.431897,27.9017102 137.103028,27.7020399 136.872037,27.4279827 C136.609725,27.1226045 136.410055,26.7467545 136.288687,26.3278384 C136.175149,25.9050072 136.112508,25.4351947 136.112508,24.8714196 L136.104677,20.2907479 L136.112508,17.996497 C136.112508,17.5893262 136.104677,17.1899855 136.135998,16.7828147 C136.159488,16.5439933 136.190809,16.3130022 136.249536,16.0859262 C136.343499,15.7100762 136.511848,15.4242736 136.754585,15.2050278 C136.915104,15.064084 137.106944,14.9466309 137.388831,14.8291778 C137.850814,14.649083 138.383268,14.5668658 138.982279,14.5668658 L140.947661,14.5629507 L144.898001,14.5668658 C144.991964,14.5668658 145.097671,14.5629507 145.140737,14.5590356 L145.837626,14.4689882 L145.837626,13.0791263 L145.739748,12.4448794 L145.203379,12.3939831 C145.113332,12.3861529 145.003709,12.3822378 144.913661,12.3822378 L139.651762,12.3822378 C139.162373,12.3822378 138.665155,12.3861529 138.167937,12.4253039 C137.792087,12.4566247 137.34968,12.5075211 136.915104,12.6445497 C136.163404,12.8912013 135.521327,13.3531836 134.926231,14.0422419 C134.491654,14.5629507 134.190192,15.1697918 134.060993,15.8471049 C133.990521,16.2072945 133.963115,16.5831443 133.963115,16.9942304 L133.963115,25.4508551 C133.963115,25.9950546 134.045332,26.5509993 134.205851,27.103029 C134.487739,28.1131258 135.07109,28.9392128 135.920667,29.549969 C136.394395,29.8788377 136.868122,30.1019987 137.34185,30.1998763 C137.972182,30.3682258 138.641665,30.4426128 139.397279,30.4426128 L139.397279,30.4426128 L139.397279,30.4426128 Z M168.940654,29.5343087 L168.940654,17.812487 C168.940654,17.5188542 168.940654,17.2252214 168.979805,16.9276735 C169.030702,16.5361632 169.109004,16.2151246 169.234288,15.929322 C169.410467,15.5182361 169.676694,15.2011127 170.044713,14.9818668 C170.27179,14.8565835 170.487121,14.762621 170.725943,14.7078096 C171.03132,14.6255924 171.36802,14.5864413 171.794765,14.5786111 L172.084483,14.574696 L172.70307,14.5786111 C172.785287,14.5786111 172.879249,14.574696 172.984957,14.5629507 L173.556562,14.3946012 L173.556562,13.0712961 L173.474345,12.46837 L172.953637,12.4057284 C172.401607,12.3274263 171.861322,12.3861529 171.332783,12.4253039 C170.851225,12.4527096 170.428394,12.5153513 170.040799,12.6249742 C169.191221,12.84422 168.490417,13.2474758 167.957963,13.8347414 C167.484236,14.3632804 167.163197,14.9779517 166.967443,15.7139913 C166.818669,16.3169173 166.736452,16.9629094 166.736452,17.6832886 L166.736452,29.5421388 L166.87348,30.4426128 L168.118483,30.4426128 C168.247681,30.4426128 168.513909,30.4426128 168.705749,30.2351122 C168.940654,30.039357 168.940654,29.7848752 168.940654,29.5343087 L168.940654,29.5343087 L168.940654,29.5343087 Z M190,7.67236759 L190,25.0671749 C190,25.9245826 189.870801,26.7232639 189.596744,27.4318977 C189.130846,28.7160519 188.226457,29.6047805 186.934473,30.0667628 C186.468575,30.2468575 185.947867,30.3486502 185.305789,30.4034617 C184.898619,30.4386976 184.511023,30.4465279 184.111683,30.4465279 L181.617761,30.4465279 L180.380589,30.4465279 C179.808984,30.4308674 179.225633,30.3721408 178.661859,30.2703482 C178.286008,30.1959612 177.957139,30.0902534 177.651762,29.9140736 C176.465484,29.2759118 175.694209,28.3088811 175.388831,27.0403873 C175.243972,26.4413764 175.165671,25.8658561 175.165671,25.2864208 L175.165671,17.8242324 C175.165671,17.0764475 175.263547,16.3638986 175.463218,15.7139913 C175.686378,14.9701215 176.034823,14.3554502 176.524211,13.8464867 C177.060581,13.294457 177.741809,12.9029466 178.544405,12.6680404 C179.123841,12.4957758 179.765918,12.4174737 180.548938,12.4174737 L187.811457,12.4174737 L187.819286,7.67236759 C187.811457,7.21430042 188.081598,6.94024314 188.578817,6.94024314 L189.2483,6.94024314 C189.714196,6.94024314 189.984339,7.20647021 190,7.67236759 L190,7.67236759 L190,7.67236759 Z M187.827117,14.5786111 L181.328043,14.5786111 L181.288893,14.5786111 C180.913043,14.5786111 180.552853,14.5786111 180.188749,14.5981867 C179.85988,14.6216773 179.550587,14.6725736 179.260869,14.7469606 C178.963322,14.8252627 178.704924,14.950546 178.473933,15.1541314 C178.274263,15.326396 178.098083,15.5182361 177.929733,15.7139913 C177.761385,15.9254069 177.632186,16.1407376 177.549969,16.3560684 C177.424685,16.7358335 177.358128,17.0842778 177.358128,17.4170616 L177.358128,25.4900061 C177.358128,25.7053369 177.358128,25.8149598 177.365958,25.9284977 C177.381619,26.2730269 177.448175,26.5666597 177.534308,26.8289717 C177.702658,27.2831238 177.968884,27.5845868 178.376056,27.7842571 C178.528744,27.858644 178.704924,27.9369461 178.881104,27.9995878 C179.437049,28.1796826 180.004738,28.2658149 180.576343,28.2658149 L183.9864,28.2658149 C184.417061,28.2658149 184.835978,28.234494 185.207912,28.1757675 C185.920461,28.0465691 186.492066,27.7920873 186.973624,27.404492 C187.059757,27.3261899 187.157634,27.2400576 187.228105,27.1460951 C187.427776,26.9033587 187.580466,26.6018956 187.674428,26.237791 C187.772306,25.8697712 187.827117,25.4821759 187.827117,25.0475993 L187.827117,14.5786111 L187.827117,14.5786111 L187.827117,14.5786111 Z M71.6738097,13.1104471 L68.2872448,13.1104471 C67.880074,13.1104471 67.9270552,13.0634659 67.9270552,13.4628065 L67.9270552,24.3115598 L67.9270552,24.5503811 C67.919225,24.7343911 67.8683286,24.9105707 67.7508755,25.0475993 C67.4885636,25.3842983 67.1518646,25.599629 66.7055428,25.6074593 L63.6909126,25.6074593 C63.1623736,25.599629 62.8295897,25.3177416 62.7003913,24.8048629 C62.6455798,24.5895322 62.6455798,24.3702863 62.6455798,24.1471255 L62.6455798,13.4275705 C62.6455798,13.0908716 62.6729856,13.1143622 62.3245413,13.1143622 L58.8283534,13.1143622 C58.4681639,13.1143622 58.5033998,13.0830414 58.5033998,13.443231 L58.5033998,20.8310322 L58.5033998,25.4430249 C58.5033998,25.8854316 58.5268904,26.3160931 58.6208529,26.7428394 C58.7617967,27.3849165 59.0475992,27.968267 59.4704305,28.4694003 C60.0067997,29.1036472 60.660622,29.5617143 61.4867091,29.7378939 C61.8782195,29.8279415 62.273645,29.8592623 62.6769007,29.8592623 L67.5590354,29.8592623 L67.7978568,29.8592623 C67.8918192,29.8670925 67.919225,29.8905831 67.919225,29.9962908 C67.9231401,30.2742633 67.9270552,30.563981 67.919225,30.8458684 C67.9153099,31.0729445 67.8330927,31.2530392 67.6804037,31.4174737 C67.4689881,31.656295 67.2145063,31.808984 66.9052131,31.8442199 C66.7642693,31.8677106 66.6233256,31.8755408 66.4823818,31.8755408 L58.8048628,31.8755408 C58.4838242,31.8755408 58.5073149,31.8598804 58.5073149,32.1809189 L58.5073149,35.8141355 C58.5073149,35.8611167 58.5033998,35.9120131 58.5073149,35.9668245 C58.5073149,36.0725324 58.5308055,36.0960229 58.624768,36.1038532 L58.8440138,36.1038532 L67.9622912,36.1038532 C68.2363484,36.1038532 68.5104057,36.0960229 68.784463,36.0490417 C69.4970119,35.9433339 70.1273437,35.6536162 70.6558828,35.156398 C71.2079124,34.6317741 71.5524415,33.9936121 71.7677723,33.2810631 C71.9556973,32.6624767 72.0144238,32.0282299 72.0144238,31.3861528 C72.0183389,28.4106737 72.0144238,25.4312795 72.0144238,22.4558005 L72.0144238,13.4471461 C72.0183389,13.0712961 72.0535748,13.1104471 71.6738097,13.1104471 L71.6738097,13.1104471 L71.6738097,13.1104471 Z M83.8615286,29.8553471 C84.2373787,29.8553471 84.6053985,29.8240262 84.9734182,29.7692149 C85.3610136,29.6948279 85.7094577,29.5577992 86.018751,29.3189778 C86.7547906,28.7473727 87.3107353,28.0348237 87.6474344,27.1539253 C87.7727176,26.8328868 87.8392744,26.4883577 87.8392744,26.1359983 C87.8353593,25.0945806 87.8392744,24.0570781 87.8392744,23.0156604 C87.8392744,22.7494333 87.8079536,22.4871213 87.749227,22.2287244 C87.5299812,21.2969296 87.0092724,20.5608901 86.2497422,19.9971151 C85.6468161,19.5312177 84.9420974,19.3315474 84.1864823,19.3237172 L80.7177001,19.3237172 C80.5767564,19.3237172 80.4358126,19.3237172 80.2948689,19.3158871 C80.1147741,19.3002266 79.9425096,19.2532454 79.7819903,19.1866886 C79.5157632,19.0653203 79.3669892,18.8499897 79.355244,18.560272 C79.3513288,18.4075829 79.3474137,18.2548939 79.355244,18.1022047 C79.3709043,17.8281475 79.5040179,17.620647 79.7624147,17.4992788 C79.8681226,17.4522975 79.9816606,17.4170616 80.0912835,17.3935709 C80.2831236,17.3544199 80.4788788,17.3465898 80.674634,17.3465898 L87.5534718,17.3465898 C87.8549349,17.3465898 87.8392744,17.3700803 87.8392744,17.056872 L87.8392744,13.4314856 C87.8392744,13.0947867 87.862765,13.1182773 87.5182358,13.1182773 L83.2272819,13.1182773 L79.4139705,13.1182773 C79.241706,13.1182773 79.0733564,13.1182773 78.9010919,13.1261075 C78.3686377,13.1574284 77.8440138,13.255306 77.3507106,13.4549763 C76.4698122,13.7995054 75.8668862,14.4102617 75.5536779,15.3068205 C75.3931586,15.7648877 75.3070263,16.2386153 75.3070263,16.7123429 C75.2913659,17.8281475 75.2913659,18.936122 75.3031112,20.0480115 C75.3109414,20.6822583 75.5106117,21.2695239 75.8747165,21.7980629 C76.0704716,22.0721203 76.3171232,22.3031115 76.5676898,22.5341026 C77.3350503,23.2153307 78.2355241,23.56769 79.2612814,23.5911807 L79.6058106,23.5911807 C80.6785491,23.5911807 81.7552027,23.5990109 82.8318563,23.5911807 C83.0980834,23.5833504 83.2860084,23.6890582 83.4347824,23.9043889 C83.6931793,24.2802389 83.646198,24.6756645 83.5757261,25.0906655 C83.5718109,25.0984957 83.5678958,25.1063259 83.5678958,25.1141562 C83.4856788,25.3216567 83.3290745,25.4430249 83.1294042,25.521327 C82.9219037,25.599629 82.706573,25.6192046 82.4794969,25.6192046 L75.5223571,25.6192046 C75.2326394,25.6192046 75.2443847,25.5957139 75.2443847,25.8854316 L75.2443847,29.58912 C75.2443847,29.8710075 75.2248092,29.8631774 75.5145268,29.8631774 C78.302081,29.8553471 81.0778897,29.8553471 83.8615286,29.8553471 L83.8615286,29.8553471 L83.8615286,29.8553471 Z"></path>
        </g>
    </g>
</svg>