<?xml version="1.0" encoding="UTF-8"?>
<svg width="210px" height="40px" viewBox="0 0 210 40" version="1.1" xmlns="http://www.w3.org/2000/svg" xmlns:xlink="http://www.w3.org/1999/xlink">
    <!-- Generator: Sketch 46.2 (44496) - http://www.bohemiancoding.com/sketch -->
    <title>safetypay</title>
    <desc>Created with Sketch.</desc>
    <defs>
        <polygon id="path-1" points="53.5604091 39.0909091 0 39.0909091 0 0.709090909 53.5604091 0.709090909 107.120818 0.709090909 107.120818 39.0909091"></polygon>
        <polygon id="path-3" points="23.3269091 0.709090909 0.0505454545 0.709090909 0.0505454545 19.9001818 23.3269091 19.9001818 23.3269091 0.709090909"></polygon>
    </defs>
    <g id="Footer" stroke="none" stroke-width="1" fill="none" fill-rule="evenodd">
        <g id="safetypay">
            <g id="logo">
                <g id="Group-3" transform="translate(0.000000, 0.200364)">
                    <mask id="mask-2" fill="white">
                        <use xlink:href="#path-1"></use>
                    </mask>
                    <g id="Clip-2"></g>
                    <path d="M86.1362727,37.7981818 C86.1362727,37.7981818 87.8444545,39.0909091 90.2199091,39.0909091 C93.1780909,39.0909091 95.7626364,37.3818182 97.0544545,34.1309091 L107.120818,8.75181818 L102.735364,8.75181818 L97.4299091,23.0881818 C97.0544545,24.1718182 96.7217273,25.5881818 96.7217273,25.5881818 L96.6380909,25.5881818 C96.6380909,25.5881818 96.2635455,24.1290909 95.8453636,23.0454545 L90.3571818,8.75181818 L85.7935455,8.75181818 L94.8444545,30.0890909 L93.8044545,32.5054545 C93.0126364,34.4236364 91.6371818,35.59 90.0126364,35.59 C88.7199091,35.59 87.5535455,34.7145455 87.5535455,34.7145455 L86.1362727,37.7981818 Z M76.0935455,22.9509091 C76.0935455,29.9945455 81.4699091,30.8281818 84.1780909,30.8281818 C85.0117273,30.8281818 85.5944545,30.7436364 85.5944545,30.7436364 L85.5944545,27.1609091 C85.5944545,27.1609091 85.219,27.2427273 84.6362727,27.2427273 C83.0944545,27.2427273 80.1344545,26.7018182 80.1344545,22.4927273 L80.1344545,12.0027273 L85.219,12.0027273 L85.219,8.75181818 L80.1344545,8.75181818 L80.1344545,0.709090909 L76.2199091,0.709090909 L76.2199091,8.75181818 L73.3435455,8.75181818 L73.3435455,12.0027273 L76.0935455,12.0027273 L76.0935455,22.9509091 Z M55.5880909,17.3372727 C56.1717273,13.8781818 58.6717273,11.9609091 61.7562727,11.9609091 C64.4653636,11.9609091 66.7144545,13.71 66.8399091,17.3372727 L55.5880909,17.3372727 Z M61.839,8.75181818 C55.8380909,8.75181818 51.2971818,13.0863636 51.2971818,19.7963636 C51.2971818,26.0472727 55.8380909,30.8390909 62.4644545,30.8390909 C67.5071818,30.8390909 70.6326364,27.8381818 70.6326364,27.8381818 L68.9662727,24.8809091 C68.9662727,24.8809091 66.3399091,27.3381818 62.7153636,27.3381818 C58.9644545,27.3381818 55.6717273,25.0045455 55.4635455,20.38 L70.8408182,20.38 C70.8408182,20.38 70.9662727,19.17 70.9662727,18.6290909 C70.9662727,13.17 67.799,8.75181818 61.839,8.75181818 L61.839,8.75181818 Z M41.2980909,30.8163636 L45.2980909,30.8163636 L45.2980909,12.0027273 L50.299,12.0027273 L50.299,8.75181818 L45.2980909,8.75181818 L45.2980909,8.62727273 C45.2980909,4.71 48.1744545,4.21 49.7153636,4.21 C50.3399091,4.21 50.7562727,4.29272727 50.7562727,4.29272727 L50.7562727,0.834545455 C50.7562727,0.834545455 50.1326364,0.709090909 49.2153636,0.709090909 C46.5480909,0.709090909 41.2980909,1.58545455 41.2980909,8.54363636 L41.2980909,8.75181818 L38.6726364,8.75181818 L38.6726364,12.0027273 L41.2980909,12.0027273 L41.2980909,30.8163636 Z M25.6699091,27.5890909 C23.0453636,27.5890909 21.7108182,25.9218182 21.7108182,24.2127273 C21.7108182,20.4209091 27.2126364,20.2118182 30.2535455,20.2118182 L31.2971818,20.2118182 L31.2971818,20.88 C31.2971818,24.0045455 29.0880909,27.5890909 25.6699091,27.5890909 L25.6699091,27.5890909 Z M30.3371818,17.1709091 C26.7953636,17.1709091 17.6271818,17.4609091 17.6271818,24.4218182 C17.6271818,28.63 21.1699091,30.8390909 24.7953636,30.8390909 C29.8371818,30.8390909 31.5453636,26.6718182 31.5453636,26.6718182 L31.6299091,26.6718182 C31.6299091,26.6718182 31.5453636,27.3809091 31.5453636,28.3390909 L31.5453636,30.8163636 L35.2953636,30.8163636 L35.2953636,17.0036364 C35.2953636,11.67 32.2962727,8.75272727 26.9626364,8.75272727 C22.129,8.75272727 19.0862727,11.2527273 19.0862727,11.2527273 L20.7526364,14.2109091 C20.7526364,14.2109091 23.379,12.17 26.6299091,12.17 C29.2971818,12.17 31.2544545,13.3363636 31.2544545,16.7945455 L31.2544545,17.1709091 L30.3371818,17.1709091 L30.3371818,17.1709091 Z M1.959,24.88 C1.959,24.88 4.33445455,27.3390909 8.00172727,27.3390909 C9.75172727,27.3390909 11.5017273,26.4218182 11.5017273,24.7127273 C11.5017273,20.8381818 0.666272727,21.6290909 0.666272727,14.7527273 C0.666272727,10.9190909 4.08445455,8.75181818 8.29354545,8.75181818 C12.919,8.75181818 15.0862727,11.0863636 15.0862727,11.0863636 L13.4617273,14.1281818 C13.4617273,14.1281818 11.5853636,12.2527273 8.25081818,12.2527273 C6.50081818,12.2527273 4.79263636,13.0036364 4.79263636,14.8372727 C4.79263636,18.6281818 15.6271818,17.7954545 15.6271818,24.7127273 C15.6271818,28.2136364 12.6280909,30.84 8.00172727,30.84 C2.83354545,30.84 -9.09090909e-05,27.7545455 -9.09090909e-05,27.7545455 L1.959,24.88 Z" id="Fill-1" fill="#346275" mask="url(#mask-2)"></path>
                </g>
                <g id="Group-6" transform="translate(111.818182, 0.200364)">
                    <mask id="mask-4" fill="white">
                        <use xlink:href="#path-3"></use>
                    </mask>
                    <g id="Clip-5"></g>
                    <path d="M0.0505454545,12.0147273 L0.0505454545,19.9001818 L10.1496364,19.9001818 L0.0505454545,12.0147273 Z M23.3269091,19.9001818 C23.3269091,9.48018182 14.956,1.00472727 4.49781818,0.708363636 L4.49781818,5.962 C12.0250909,6.25745455 18.0250909,12.3838182 18.0250909,19.9001818 L23.3269091,19.9001818 L23.3269091,19.9001818 Z" id="Fill-4" fill="#346275" mask="url(#mask-4)"></path>
                </g>
                <path d="M129.842818,20.0999091 L135.147364,20.0999091 C135.147364,30.519 126.774636,38.9962727 116.316455,39.2908182 L116.316455,34.0380909 C123.843727,33.7426364 129.842818,27.6162727 129.842818,20.0999091 L129.842818,20.0999091 Z M111.869182,20.0999091 L121.967364,20.0999091 L111.869182,27.9853636 L111.869182,20.0999091 Z" id="Fill-7" fill="#346275"></path>
                <path d="M164.469,17.6039091 C164.469,25.5639091 158.830818,31.023 153.067182,31.023 C150.288091,31.023 147.843545,29.8148182 146.809909,27.3557273 L146.723545,27.3557273 C146.723545,27.3557273 146.642636,28.2302727 146.434455,29.3148182 L144.544455,39.2911818 L140.618091,39.2911818 L146.361727,8.95209091 L150.113545,8.95209091 L149.669909,11.2266364 C149.501727,12.0611818 149.212636,12.8948182 149.212636,12.8948182 L149.295364,12.8948182 C150.746273,10.6866364 153.317182,8.93572727 156.592636,8.93572727 C161.609,8.93572727 164.469,12.3111818 164.469,17.6039091 M152.612636,27.4248182 C156.259909,27.4248182 160.364455,23.8575455 160.364455,17.8475455 C160.364455,14.4902727 158.580818,12.4593636 155.638091,12.4593636 C151.325364,12.4593636 147.929,17.1439091 147.929,22.0348182 C147.929,24.9775455 149.419,27.4248182 152.612636,27.4248182 M186.562636,35.8102727 C188.344455,35.8102727 189.838091,34.6911818 190.997182,32.783 L192.530818,30.2966364 L187.594455,8.95209091 L191.769909,8.95209091 L194.729,23.7875455 C194.937182,24.8648182 195.058091,26.2757273 195.058091,26.2757273 L195.101727,26.2757273 C195.101727,26.2757273 195.723545,24.9066364 196.303545,23.8711818 L204.551727,8.95209091 L209.090818,8.95209091 L193.982636,34.4411818 C192.033545,37.7166364 189.379909,39.2911818 186.727182,39.2911818 C184.156273,39.2911818 182.415364,37.923 182.415364,37.923 L184.281727,35.063 C184.281727,35.063 185.154455,35.8102727 186.562636,35.8102727 M172.922636,27.673 C176.279909,27.673 179.058091,24.1493636 179.801727,21.0402727 L179.969909,20.3339091 L178.932636,20.3339091 C175.990818,20.3339091 169.564455,20.6675455 169.564455,24.9357273 C169.564455,26.3875455 170.601727,27.673 172.922636,27.673 M179.429909,17.3511818 L180.467182,17.3511818 C180.631727,16.5184545 180.631727,16.0184545 180.631727,15.643 C180.631727,13.6848182 179.679909,12.3520909 176.859909,12.3520909 C173.626273,12.3520909 170.601727,14.3511818 170.601727,14.3511818 L169.522636,11.1439091 C169.522636,11.1439091 173.005364,8.93572727 177.441727,8.93572727 C181.460818,8.93572727 184.736273,10.6439091 184.736273,15.1848182 C184.736273,15.8511818 184.654455,16.7266364 184.489,17.5175455 L181.866273,31.0166364 L178.129,31.0166364 L178.643545,28.3911818 C178.808091,27.4339091 179.058091,26.7257273 179.098091,26.7257273 L179.015364,26.7257273 C179.058091,26.7257273 176.487182,31.0166364 171.721727,31.0166364 C168.402636,31.0166364 165.460818,29.1011818 165.460818,25.6839091 C165.460818,18.8502727 173.751727,17.3511818 179.429909,17.3511818" id="Fill-9" fill="#346275"></path>
            </g>
        </g>
    </g>
</svg>