<?xml version="1.0" encoding="UTF-8"?>
<svg width="217px" height="40px" viewBox="0 0 217 40" version="1.1" xmlns="http://www.w3.org/2000/svg" xmlns:xlink="http://www.w3.org/1999/xlink">
    <!-- Generator: Sketch 46.2 (44496) - http://www.bohemiancoding.com/sketch -->
    <title>scotiabank</title>
    <desc>Created with Sketch.</desc>
    <defs>
        <polygon id="path-1" points="36.1021176 1.56235294 0.000941176471 1.56235294 0.000941176471 37.6468235 36.1021176 37.6468235 36.1021176 1.56235294"></polygon>
    </defs>
    <g id="Footer" stroke="none" stroke-width="1" fill="none" fill-rule="evenodd">
        <g id="scotiabank">
            <g id="logo">
                <g id="Group-3" transform="translate(0.000000, 0.790353)">
                    <mask id="mask-2" fill="white">
                        <use xlink:href="#path-1"></use>
                    </mask>
                    <g id="Clip-2"></g>
                    <path d="M28.8785882,19.6162353 C28.9844706,25.7668235 23.4197647,30.4656471 18.7350588,30.4656471 L7.20094118,30.4656471 L0.000941176471,37.6468235 L18.6174118,37.6468235 C24.5727059,37.6468235 30.2527059,32.2821176 30.2527059,25.8821176 C30.2527059,24.0209412 30.0456471,21.6303529 28.8785882,19.7197647 L28.8785882,19.6162353 Z M26.8691765,24.1503529 C27.5774118,22.8703529 27.9374118,21.4256471 28.0244706,20.1032941 L22.848,20.1032941 C22.848,21.3456471 22.5727059,22.7668235 22.0809412,24.1503529 L26.8691765,24.1503529 Z M21.8009412,24.9832941 C21.2221176,26.4397647 19.7609412,28.4421176 18.4244706,29.5127059 C21.0197647,29.5127059 24.0950588,28.3597647 26.2997647,24.9832941 L21.8009412,24.9832941 Z M21.2221176,24.1503529 C21.6809412,22.8703529 21.8691765,21.4256471 21.9891765,20.1032941 L14.0997647,20.1032941 C14.2009412,21.4256471 14.3985882,22.8703529 14.8762353,24.1503529 L21.2221176,24.1503529 Z M14.0127059,24.1503529 C13.5374118,22.7668235 13.248,21.3456471 13.248,20.1032941 L8.06447059,20.1032941 C8.17505882,21.4256471 8.53741176,22.8703529 9.21976471,24.1503529 L14.0127059,24.1503529 Z M18.0597647,28.6491765 C19.0997647,27.7574118 20.2432941,26.2444706 20.8174118,24.9832941 L15.2432941,24.9832941 C15.8409412,26.2444706 17.0032941,27.7574118 18.0597647,28.6491765 L18.0597647,28.6491765 Z M9.69270588,24.9832941 C11.9891765,28.3597647 14.9821176,29.5127059 17.6785882,29.5127059 C16.3091765,28.4421176 14.7985882,26.4397647 14.3068235,24.9832941 L9.69270588,24.9832941 Z M22.0809412,15.2209412 C22.5727059,16.4327059 22.848,17.8915294 22.848,19.2350588 L28.0244706,19.2350588 C27.9374118,17.8915294 27.5774118,16.4327059 26.8691765,15.2209412 L22.0809412,15.2209412 Z M26.2997647,14.2562353 C24.0950588,10.9950588 21.0197647,9.72917647 18.4244706,9.72917647 C19.7609412,10.7668235 21.2221176,12.7150588 21.8009412,14.2562353 L26.2997647,14.2562353 Z M14.8762353,15.2209412 C14.3985882,16.4327059 14.2009412,17.8915294 14.0997647,19.2350588 L21.9891765,19.2350588 C21.8691765,17.8915294 21.6809412,16.4327059 21.2221176,15.2209412 L14.8762353,15.2209412 Z M9.21976471,15.2209412 C8.53741176,16.4327059 8.17505882,17.8915294 8.06447059,19.2350588 L13.248,19.2350588 C13.248,17.8915294 13.5374118,16.4327059 14.0127059,15.2209412 L9.21976471,15.2209412 Z M18.0597647,10.6609412 C17.0032941,11.5527059 15.8409412,12.9738824 15.2432941,14.2562353 L20.8174118,14.2562353 C20.2432941,12.9738824 19.0997647,11.5527059 18.0597647,10.6609412 L18.0597647,10.6609412 Z M14.3068235,14.2562353 C14.7985882,12.7150588 16.3091765,10.7668235 17.6785882,9.72917647 C14.9821176,9.72917647 11.9891765,10.9950588 9.69270588,14.2562353 L14.3068235,14.2562353 Z M7.20094118,19.5127059 C6.05270588,17.6138824 5.83623529,15.2209412 5.83623529,13.3644706 C5.83623529,6.95035294 11.5021176,1.56211765 17.4715294,1.56211765 L36.1021176,1.56211765 L28.8785882,8.828 L17.3538824,8.828 C12.6785882,8.828 7.09505882,13.5409412 7.20094118,19.5127059 L7.20094118,19.5127059 Z" id="Fill-1" fill="#346275" mask="url(#mask-2)"></path>
                </g>
                <polygon id="Fill-4" fill="#346275" points="205.491529 9.98847059 210.077412 9.98847059 210.077412 10.6849412 208.197412 10.6849412 208.197412 15.7037647 207.366824 15.7037647 207.366824 10.6849412 205.491529 10.6849412"></polygon>
                <path d="M215.519294,15.7030588 L215.519294,12.3242353 C215.519294,12.1642353 215.533412,11.4677647 215.533412,10.9407059 L215.519294,10.9407059 L213.905176,15.7030588 L213.171059,15.7030588 L211.561647,10.9477647 L211.549882,10.9477647 C211.549882,11.4677647 211.561647,12.1642353 211.561647,12.3242353 L211.561647,15.7030588 L210.841647,15.7030588 L210.841647,9.98776471 L211.942824,9.98776471 L213.571059,14.8371765 L213.589882,14.8371765 L215.211059,9.98776471 L216.309882,9.98776471 L216.309882,15.7030588 L215.519294,15.7030588 Z" id="Fill-6" fill="#346275"></path>
                <path d="M142.807765,22.7985882 C142.807765,20.9232941 141.727765,19.2362353 139.765412,19.2362353 C138.106588,19.2362353 136.810118,20.6056471 136.810118,22.7985882 C136.810118,24.9209412 137.885412,26.4338824 139.765412,26.4338824 C141.563059,26.4338824 142.807765,24.9938824 142.807765,22.7985882 L142.807765,22.7985882 Z M107.758353,8.44094118 C106.207765,8.44094118 104.963059,9.77505882 104.963059,11.248 C104.963059,12.7985882 106.207765,14.0291765 107.758353,14.0291765 C109.287765,14.0291765 110.541882,12.7985882 110.541882,11.248 C110.541882,9.77505882 109.287765,8.44094118 107.758353,8.44094118 L107.758353,8.44094118 Z M169.181882,29.9468235 L174.026588,29.9468235 L174.026588,22.6032941 C174.026588,20.888 175.141882,19.7185882 176.577176,19.7185882 C178.245412,19.7185882 179.219529,20.8056471 179.219529,22.6032941 L179.219529,29.9468235 L184.071294,29.9468235 L184.071294,21.4009412 C184.071294,18.1609412 181.958353,15.3797647 178.139529,15.3797647 C175.624235,15.3797647 174.250118,16.7327059 173.657176,17.2832941 L173.570118,17.2832941 L173.530118,15.7562353 L169.181882,15.7562353 L169.181882,29.9468235 Z M187.099529,29.9468235 L192.064235,29.9468235 L192.064235,23.3538824 L192.146588,23.3538824 L196.558353,29.9468235 L202.054824,29.9468235 L196.723059,22.4456471 L201.871294,15.7021176 L196.351294,15.7021176 L192.146588,21.5868235 L192.064235,21.5868235 L192.064235,9.86447059 L187.099529,9.86447059 L187.099529,29.9468235 Z M73.6854118,15.9421176 C73.3536471,15.8362353 71.9724706,15.3491765 70.1701176,15.3491765 C65.7254118,15.3491765 62.3536471,18.1656471 62.3536471,22.7656471 C62.3536471,27.0621176 65.3301176,30.2950588 69.9301176,30.2950588 C71.9301176,30.2950588 73.4007059,29.7609412 73.6854118,29.6738824 L73.4736471,25.4832941 C73.0783529,25.6974118 72.0548235,26.2597647 70.9277647,26.2597647 C68.9701176,26.2597647 67.4807059,24.808 67.4807059,22.7656471 C67.4807059,20.7562353 69.0571765,19.3491765 70.9889412,19.3491765 C72.0854118,19.3491765 73.0877647,19.8762353 73.4736471,20.0315294 L73.6854118,15.9421176 Z M117.711294,22.6668235 C117.711294,25.0221176 119.090118,26.5327059 120.767765,26.5327059 C122.339529,26.5327059 123.786588,25.0550588 123.786588,22.8621176 C123.786588,20.6338824 122.476,19.1868235 120.767765,19.1868235 C119.017176,19.1868235 117.711294,20.7821176 117.711294,22.6668235 L117.711294,22.6668235 Z M154.967765,22.6644706 C154.967765,25.0174118 156.254824,26.5327059 158.028941,26.5327059 C159.518353,26.5327059 161.038353,25.0527059 161.038353,22.8621176 C161.038353,20.6174118 159.737176,19.1868235 158.028941,19.1868235 C156.188941,19.1868235 154.967765,20.7774118 154.967765,22.6644706 L154.967765,22.6644706 Z M46.4007059,29.4127059 C47.7654118,29.8574118 49.9042353,30.2715294 52.1230588,30.2715294 C56.3912941,30.2715294 60.556,28.7421176 60.556,24.1209412 C60.556,17.7115294 51.7701176,18.6315294 51.7701176,16.0574118 C51.7701176,14.7703529 53.156,14.4527059 54.4477647,14.4527059 C56.3371765,14.4527059 58.6524706,15.3491765 59.1677647,15.5515294 L59.5630588,11.1303529 C58.2712941,10.7021176 56.3465882,10.4738824 54.4854118,10.4738824 C50.3301176,10.4738824 46.1630588,12.1115294 46.1630588,16.2221176 C46.1630588,22.5468235 54.9489412,21.208 54.9489412,24.5068235 C54.9489412,25.7938824 53.6948235,26.2950588 52.0807059,26.2950588 C49.8712941,26.2950588 47.7654118,25.1821176 46.8430588,24.7562353 L46.4007059,29.4127059 Z M102.836,26.0597647 C102.647765,26.1209412 101.984235,26.3374118 101.520706,26.3374118 C100.497176,26.3374118 99.3936471,25.8574118 99.3936471,24.1232941 L99.3936471,19.2927059 L102.546588,19.2927059 L102.546588,15.6644706 L99.3936471,15.6644706 L99.3936471,11.0832941 L94.4124706,11.0832941 L94.4124706,15.6644706 L92.2524706,15.6644706 L92.2524706,19.2927059 L94.4124706,19.2927059 L94.4124706,24.9209412 C94.4124706,28.0291765 95.8830588,30.2762353 99.5183529,30.2762353 C100.593647,30.2762353 101.588941,30.128 102.238353,29.9585882 L102.836,26.0597647 Z M83.276,26.6715294 C85.2712941,26.6715294 86.4336471,24.9115294 86.4336471,22.7797647 C86.4336471,20.6338824 85.3112941,18.8856471 83.276,18.8856471 C81.116,18.8856471 80.0736471,20.6338824 80.0736471,22.7797647 C80.0736471,24.9115294 81.2407059,26.6715294 83.276,26.6715294 L83.276,26.6715294 Z M131.901882,29.9397647 L131.901882,9.848 L136.876,9.848 L136.876,16.7068235 L136.920706,16.7068235 C137.273647,16.5350588 138.901882,15.3656471 141.240706,15.3656471 C145.097176,15.3656471 147.927765,18.4150588 147.927765,22.5821176 C147.927765,27.6856471 144.824235,30.2950588 141.207765,30.2950588 C138.497176,30.2950588 137.151294,29.0432941 136.791294,28.6621176 L136.699529,28.6621176 L136.659529,29.9397647 L131.901882,29.9397647 Z M105.311294,29.9585882 L110.268941,29.9585882 L110.268941,15.6715294 L105.311294,15.6715294 L105.311294,29.9585882 Z M128.690118,15.6668235 L128.690118,29.9468235 L123.878353,29.9468235 L123.786588,28.5397647 L123.708941,28.5397647 C123.165412,29.0432941 122.045412,30.2950588 118.984235,30.2950588 C115.478353,30.2950588 112.504235,27.2691765 112.504235,22.7985882 C112.504235,18.6997647 115.193647,15.3727059 119.254824,15.3727059 C122.045412,15.3727059 123.188941,16.6032941 123.631294,17.0244706 L123.744235,17.0244706 L123.777176,15.6668235 L128.690118,15.6668235 Z M165.946588,15.6644706 L165.946588,29.9397647 L161.120706,29.9397647 L161.038353,28.5350588 L160.941882,28.5350588 C160.417176,29.0385882 159.292471,30.2950588 156.163059,30.2950588 C152.748941,30.2950588 149.692471,27.2527059 149.692471,22.7703529 C149.692471,18.6903529 152.365412,15.3656471 156.516,15.3656471 C159.297176,15.3656471 160.445412,16.5915294 160.878353,17.0127059 L160.979529,17.0127059 L161.038353,15.6644706 L165.946588,15.6644706 Z M83.276,30.2832941 C78.4501176,30.2832941 75.0054118,27.3891765 75.0054118,22.7797647 C75.0054118,18.3091765 78.5442353,15.3491765 83.276,15.3491765 C87.9583529,15.3491765 91.5889412,18.2997647 91.5889412,22.7797647 C91.5889412,27.3891765 88.0383529,30.2832941 83.276,30.2832941 L83.276,30.2832941 Z" id="Fill-8" fill="#346275"></path>
            </g>
        </g>
    </g>
</svg>