<?xml version="1.0" encoding="UTF-8"?>
<svg id="Layer_2" data-name="Layer 2" xmlns="http://www.w3.org/2000/svg" viewBox="0 0 1187.6 361.2">
  <defs>
    <style>
      .cls-1 {
        fill: #346275;
      }
    </style>
  </defs>
  <g id="Capa_1" data-name="Capa 1">
    <g>
      <path class="cls-1" d="M145.8,0C65.3,0,0,65.3,0,145.8s113.3,186.7,140.1,213.2c3.2,3.1,8.2,3.1,11.3,0,26.9-26.4,140.1-142.2,140.1-213.1C291.5,65.3,226.3,0,145.8,0Zm0,234.4c-48.9,0-88.6-39.8-88.6-88.6S96.9,57.1,145.8,57.1s88.6,39.8,88.6,88.6c0,48.9-39.8,88.6-88.6,88.6Zm37.2-87c-2.3-2.7-5.1-5-8.3-6.9-3.2-1.9-6.7-3.6-10.7-5.1-4.1-1.5-7.9-2.8-11.5-3.9-3.6-1.1-6.4-2.3-8.5-3.7-2.2-1.3-3.2-3.2-3.2-5.5s.3-2.1,.9-3.1c.6-.9,1.4-1.8,2.7-2.4,1.2-.7,2.8-1.1,4.8-1.1s3.6,.5,5.5,1.3c1.9,.9,3.7,2.2,5.4,4.1,1.8,1.8,3.4,4.2,4.8,7l23.8-13.1c-2.4-3.9-5.2-7.4-8.6-10.6-3.4-3.3-7.5-5.9-12.6-7.8-2.6-1-5.4-1.7-8.7-2.2l2.1-14c-4.9-1.1-10-1.7-15.1-1.7s-6.3,.3-9.4,.7l1.5,15.2c-4,.7-7.6,1.7-11,3.2-6,2.7-10.6,6.3-14,10.7-3.4,4.4-5.1,9.2-5.1,14.4s1,9.6,3,13.4,4.5,6.9,7.6,9.5c3.1,2.7,6.2,4.9,9.5,6.5,3.2,1.7,6.2,3,8.7,4,4.1,1.6,7.6,3,10.5,4,2.9,1.1,5.1,2.3,6.7,3.4,1.5,1.2,2.3,2.6,2.3,4.4s-.3,2.6-1,3.5c-.6,.9-1.6,1.7-3,2.1-1.3,.4-3.1,.7-5.4,.7-3.3,0-6.2-.6-8.8-1.7-2.6-1-5.1-2.8-7.5-5.1-2.3-2.4-4.8-5.4-7.4-9l-21.6,15.8c2.2,4.2,5.5,8.1,10,11.8,4.5,3.7,9.8,6.8,15.8,9.1,3.4,1.4,7,2.3,10.7,2.9l-1.4,14.1c3,.4,6.1,.7,9.2,.7,5.1,0,10-.6,14.8-1.6l-2-13.4c3.8-.6,7.3-1.4,10.5-2.5,6.6-2.3,11.8-5.6,15.5-10.3,3.6-4.6,5.5-10.2,5.5-17h0c0-4.3-.6-8.2-1.8-11.6-1.3-3.3-3-6.4-5.4-9.1Z"/>
      <path class="cls-1" d="M428.1,55.7h-45.3v55.5h-28.6v39.5h28.6v127.2h45.3v-127.2h29v-39.5h-29V55.7Zm155.1,157c0,7-1.4,13-4.2,18.1-2.8,5.1-6.7,9-11.6,11.8-5,2.8-10.8,4.2-17.6,4.2-9.7,0-16.7-3-21-8.9-4.3-5.9-6.5-14.3-6.5-25.2V111.2h-48.6v106.5c0,19.8,4.9,35.4,14.7,46.8,9.8,11.4,24.6,17,44.4,17s21.9-2.5,30.1-7.4c8.2-5,15-12.1,20.3-21.6v25.4h46.8V111.2h-46.8v101.5Zm210.1-96.4c-12.2-6.8-25.3-10.1-39.3-10.1s-26.6,3.6-37.2,10.9c-8,5.5-14.6,12.7-19.8,21.6v-27.4h-47.1v246.5h47.1v-107.2c5.2,9,11.8,16.2,19.8,21.7,10.5,7.2,22.9,10.9,37.2,10.9s27.1-3.4,39.3-10.2,22-16.8,29.5-30.1c7.5-13.3,11.2-29.4,11.2-48.2s-3.8-35.2-11.2-48.4c-7.5-13.2-17.3-23.1-29.5-29.9Zm-14,103.6c-4.1,7-9.6,12.3-16.5,16-6.9,3.6-14.4,5.4-22.7,5.4s-13.8-1.8-20.5-5.2c-6.7-3.5-12.1-8.8-16.3-15.8-4.2-7-6.3-15.6-6.3-25.7s2.1-18.7,6.3-25.7c4.2-7,9.7-12.3,16.3-15.8,6.6-3.5,13.5-5.3,20.5-5.3s15.8,1.8,22.7,5.4c6.9,3.6,12.4,8.9,16.5,16s6.2,15.5,6.2,25.4-2.1,18.4-6.2,25.4Zm190.2-106.9c-11.1-4.1-23.8-6.2-38.1-6.2s-29.5,2.1-42,6.3c-12.6,4.2-23.2,8.6-31.9,13.2l17.4,31.9c2.4-1.7,6.2-3.7,11.2-6.2,5.1-2.4,11.1-4.5,18.1-6.2,7-1.7,14.4-2.5,22.1-2.5s9.7,.5,13.8,1.5c4.1,1,7.7,2.5,10.7,4.7,3,2.2,5.3,4.9,6.7,8.1,1.4,3.3,2.2,7.2,2.2,11.8v17.8c-5.6-3.1-12.4-5.8-20.5-8s-17.5-3.3-28.1-3.3c-20.8,0-36.8,4.7-48.2,14.1-11.4,9.4-17,22.2-17,38.4s2.7,21,8.2,28.8c5.4,7.8,12.6,13.8,21.6,17.9,8.9,4.1,18.6,6.2,29,6.2s19.9-1.8,29.2-5.4c9.3-3.6,16.9-9.1,22.8-16.3,1.1-1.4,2.2-2.9,3.1-4.4v22.5h45.3v-118.1c0-11.4-3.1-21-9.4-28.8-6.3-7.9-15-13.8-26.1-17.9Zm-9.8,98.2c0,8-1.8,14.8-5.4,20.5-3.6,5.7-8.3,10-14.1,13-5.8,3-12.3,4.5-19.6,4.5s-9.7-.9-13.9-2.7c-4.2-1.8-7.6-4.5-10-8-2.4-3.5-3.6-7.7-3.6-12.5s1.1-8.9,3.3-12.1,5.6-5.8,10.2-7.6,10.5-2.7,17.8-2.7,17.4,1.2,25.6,3.6c3.5,1,6.8,2.3,10,3.8v.2h0Zm178.9-100l-41.2,103.4-41.8-103.4h-52.2l69.2,150-42,96.4h48.2l108.7-246.5h-48.9s0,0,0,0Z"/>
    </g>
  </g>
</svg>