<?xml version="1.0" encoding="UTF-8" standalone="no"?>
<svg width="124px" height="40px" viewBox="0 0 124 40" version="1.1" xmlns="http://www.w3.org/2000/svg" xmlns:xlink="http://www.w3.org/1999/xlink">
    <!-- Generator: Sketch 39.1 (31720) - http://www.bohemiancoding.com/sketch -->
    <title>visa</title>
    <desc>Created with Sketch.</desc>
    <defs></defs>
    <g id="Payments" stroke="none" stroke-width="1" fill="none" fill-rule="evenodd">
        <g id="visa" transform="translate(-33.000000, 0.000000)" fill="#346275">
            <path d="M70.3977695,38.8847584 L81.9219331,0.74349442 L92.2565056,0.74349442 L80.6579926,38.8847584 L70.3977695,38.8847584 L70.3977695,38.8847584 L70.3977695,38.8847584 Z M65.7137546,0.81784387 L56.4944238,16.9516729 C54.1152416,21.1895911 52.7769517,23.3457249 52.1078067,26.0223048 L51.9591078,26.0223048 C52.1078067,22.6022305 51.66171,18.4386617 51.5873606,16.133829 L50.5464684,0.81784387 L33.1486989,0.81784387 L33,1.85873606 C37.4609665,1.85873606 40.1375465,4.08921933 40.8066915,8.6988848 L44.2267658,38.9591078 L54.9330855,38.9591078 L76.4944238,0.81784387 L65.7137546,0.81784387 L65.7137546,0.81784387 L65.7137546,0.81784387 Z M145.936803,38.8847584 L145.639405,33.2342007 L132.776952,33.2342007 L130.174721,38.8847584 L118.947955,38.8847584 L139.245353,0.81784387 L153,0.81784387 L156.420074,38.8847584 L145.936803,38.8847584 L145.936803,38.8847584 L145.936803,38.8847584 Z M144.747212,16.4312268 C144.598513,13.605948 144.524164,9.8141264 144.747212,7.5092937 L144.598513,7.5092937 C144.003717,9.3680297 141.252788,15.0929368 140.063197,17.8438662 L136.271375,26.1710037 L145.342007,26.1710037 L144.747212,16.4312268 L144.747212,16.4312268 L144.747212,16.4312268 Z M103.037175,40 C95.7509294,40 90.9182156,37.6951673 87.4981413,35.6133829 L92.4052045,28.1040892 C95.527881,29.8141264 97.9070632,31.8215613 103.557621,31.8215613 C105.342007,31.8215613 107.126394,31.3754647 108.092937,29.6654275 C109.505576,27.2118959 107.795539,25.8736059 103.70632,23.5687732 L101.698885,22.3048327 C95.7509294,18.2156134 93.1486989,14.3494424 95.9739777,7.5836431 C97.7583643,3.27137546 102.516729,0 110.32342,0 C115.750929,0 120.806691,2.30483271 123.70632,4.60966543 L118.055762,11.2267658 C115.156134,8.9219331 112.776952,7.732342 110.026022,7.732342 C107.869889,7.732342 106.159851,8.5501859 105.639405,9.739777 C104.598513,11.8959108 106.011152,13.3085502 109.133829,15.2416357 L111.513011,16.7286245 C118.799256,21.33829 120.509294,26.0966543 118.650558,30.5576208 C115.60223,38.2899628 109.431227,40 103.037175,40 L103.037175,40 L103.037175,40 Z"></path>
        </g>
    </g>
</svg>