<?xml version="1.0" encoding="UTF-8"?>
<svg width="172px" height="40px" viewBox="0 0 172 40" version="1.1" xmlns="http://www.w3.org/2000/svg" xmlns:xlink="http://www.w3.org/1999/xlink">
    <!-- Generator: Sketch 46.2 (44496) - http://www.bohemiancoding.com/sketch -->
    <title>western_union</title>
    <desc>Created with Sketch.</desc>
    <defs></defs>
    <g id="Footer" stroke="none" stroke-width="1" fill="none" fill-rule="evenodd">
        <g id="western_union" fill="#346275">
            <g id="logo">
                <path d="M48.4735135,2.73945946 C46.8395367,4.05220077 46.5306564,6.62517375 47.2905019,8.47227799 C47.6951351,9.68926641 48.8410811,10.4707336 49.9221622,10.8105019 C51.2379923,11.2614672 52.575444,11.5796139 53.8016988,12.0151351 C54.5059459,12.2128185 55.2719691,12.3178378 55.9237066,12.7379151 C56.5260232,13.0900386 56.4796911,14.0475676 56.0194595,14.4830888 C55.5190734,15.1595367 54.3854826,15.1811583 53.6441699,14.8166795 C53.0758301,14.4522008 52.9924324,13.7572201 52.8905019,13.256834 L46.5924324,13.256834 C46.59861,14.9309653 47.3646332,16.6730502 48.8657915,17.5255598 C50.9723552,18.8290347 53.4557529,18.9587645 55.8217761,18.8135907 C57.7275676,18.6560618 59.6271815,18.1680309 61.0758301,16.8398456 C62.4812355,15.6043243 62.9630888,13.4637838 62.5121236,11.6043243 C62.2155985,10.3966023 61.2333591,9.2846332 60.1059459,8.80586873 C58.113668,7.73714286 55.9051737,7.46841699 53.783166,6.7796139 C53.1962934,6.65915058 52.763861,5.93328185 53.0634749,5.28772201 C53.6503475,4.62362934 54.6943629,4.65451737 55.4480309,4.81822394 C55.9422394,5.11166023 56.0194595,5.62131274 56.2140541,6.15258687 L62.0704247,6.15258687 C62.0642471,4.75644788 61.6565251,3.30779923 60.4858687,2.46146718 C58.9105792,1.25374517 56.7515058,0.923243243 54.8271815,0.926332046 C52.6248649,0.923243243 50.2835521,1.29698842 48.4735135,2.73945946" id="Fill-1"></path>
                <path d="M147.22471,1.09559846 C147.212355,13.6423166 147.22471,26.1797683 147.22471,38.6029344 C147.925869,38.6060232 148.630116,38.6060232 149.306564,38.6060232 L149.306564,1.08324324 C148.630116,1.08324324 147.925869,1.08324324 147.22471,1.09559846" id="Fill-4"></path>
                <path d="M0,1.41528958 C1.13976834,6.98440154 2.47413127,12.7017761 3.66332046,18.3326641 C6.07567568,18.3789961 8.48185328,18.3326641 10.8756757,18.3542857 C11.5181467,14.7650965 11.9320463,11.0430888 12.5374517,7.37667954 C13.192278,11.0430888 13.6648649,14.7620077 14.2610039,18.3481081 C16.6671815,18.3481081 19.0702703,18.3604633 21.4826255,18.3326641 C22.7181467,12.7141313 24,7.01220077 25.1459459,1.42764479 C23.215444,1.41528958 21.192278,1.39057915 19.1660232,1.42764479 C18.7490347,4.86548263 18.3104247,8.46702703 17.6895753,12.043861 C17.3930502,10.8948263 17.3250965,9.76432432 17.1644788,8.57822394 C16.753668,6.17822394 16.4200772,3.79675676 16.0123552,1.41528958 C13.7235521,1.42764479 11.419305,1.39057915 9.11505792,1.42764479 C8.56525097,5.0415444 8.13281853,8.49791506 7.52432432,12.0932819 C7.15984556,11.1882625 7.13204633,10.2430888 6.9992278,9.18671815 C6.67181467,6.64772201 6.2980695,3.96046332 5.97992278,1.41528958 C3.96293436,1.41528958 1.93667954,1.42764479 0,1.41528958" id="Fill-6"></path>
                <path d="M29.2589961,1.42733591 L29.2589961,18.3323552 C33.5678764,18.3786873 37.9632432,18.350888 42.3493436,18.350888 L42.3493436,14.0698069 L35.6589961,14.0698069 C35.6342857,13.3902703 35.6126641,12.7138224 35.6466409,12.0466409 C37.6450965,12.0157529 39.708417,12.0682625 41.6574517,12.0157529 C41.6574517,10.554749 41.6698069,9.09065637 41.6389189,7.64200772 C39.6898842,7.62965251 37.6450965,7.62965251 35.6126641,7.62965251 C35.6126641,6.97173745 35.6342857,6.33235521 35.6466409,5.8165251 C37.8180695,5.82579151 39.9925869,5.8165251 42.1918147,5.82579151 C42.1918147,4.34625483 42.1887259,2.89451737 42.1918147,1.42733591 C37.8366023,1.41498069 33.4999228,1.41498069 29.2589961,1.42733591" id="Fill-8"></path>
                <path d="M66.3789961,5.90980695 C67.809112,5.94378378 69.220695,5.91598456 70.6384556,5.93451737 C70.6508108,10.0179151 70.6384556,14.2217761 70.6508108,18.348417 C72.8716602,18.348417 75.1017761,18.3607722 77.3288031,18.3298842 C77.3535135,14.2217761 77.3040927,10.0179151 77.3473359,5.93451737 C78.7650965,5.91598456 80.0562162,5.93451737 81.4677992,5.91598456 C81.5141313,4.42718147 81.4677992,2.92293436 81.4925097,1.42795367 C76.5257143,1.37235521 71.463166,1.42795367 66.3789961,1.41559846 C66.3666409,2.90749035 66.3728185,4.41482625 66.3789961,5.90980695" id="Fill-10"></path>
                <path d="M85.9796139,1.42733591 L85.9796139,18.3323552 C90.3718919,18.3786873 94.7827027,18.3261776 99.1842471,18.3601544 C99.2151351,16.8960618 99.1842471,15.5369884 99.2027799,14.0698069 C96.9603089,14.0605405 94.6900386,14.0698069 92.44139,14.0698069 C92.44139,13.3902703 92.44139,12.7138224 92.4475676,12.0404633 C94.4923552,12.0404633 96.4290347,12.0589961 98.4614672,12.0157529 C98.4614672,10.5454826 98.4861776,9.08447876 98.4429344,7.62965251 C96.4290347,7.64200772 94.4738224,7.62965251 92.4475676,7.62965251 C92.44139,6.98409266 92.44139,6.33235521 92.44139,5.82579151 C94.6251737,5.82579151 96.8027799,5.82579151 98.9927413,5.8165251 C99.0174517,4.34625483 98.9927413,2.88216216 98.9927413,1.41498069 C94.668417,1.41498069 90.3286486,1.41498069 85.9796139,1.42733591" id="Fill-12"></path>
                <path d="M125.150579,1.42733591 C125.138224,7.01189189 125.144402,12.7261776 125.144402,18.350888 C126.997683,18.350888 128.789189,18.3601544 130.633205,18.3323552 C130.657915,14.9346718 130.605405,11.4350579 130.664093,8.08061776 C131.044015,8.80648649 131.297297,9.59413127 131.57529,10.3539768 C132.443243,12.9979923 133.462548,15.6821622 134.352124,18.3323552 C136.99305,18.3601544 139.738996,18.350888 142.342857,18.350888 L142.342857,1.42733591 C140.594595,1.41498069 138.85251,1.39027027 136.96834,1.42733591 C136.937452,4.76633205 137.023938,8.24741313 136.928185,11.6142085 C136.798456,11.3516602 136.677992,11.1230888 136.563707,10.7833205 C135.423938,7.62965251 134.352124,4.53158301 133.209266,1.42733591 C130.580695,1.41498069 127.871815,1.41498069 125.150579,1.42733591" id="Fill-14"></path>
                <path d="M162.39722,38.565251 L164.485251,38.565251 C164.466718,26.2409266 164.519228,13.8208494 164.466718,1.50579151 L162.403398,1.50579151 C162.39722,13.8301158 162.39722,26.2409266 162.39722,38.565251" id="Fill-16"></path>
                <path d="M46.392278,21.8665637 C46.2656371,25.6379923 46.3088803,29.406332 46.3088803,33.2148263 C46.2594595,34.7499614 46.8401544,36.3314286 48.0447876,37.4403089 C49.3976834,38.6016988 51.2169884,39.1206178 52.980695,39.2472587 C55.176834,39.3615444 57.4749035,39.2905019 59.5196911,38.3267954 C60.8169884,37.6966795 61.7992278,36.5939768 62.2471042,35.1916602 C62.5189189,34.2711969 62.5127413,33.2148263 62.5127413,32.2264093 C62.5127413,28.7391506 62.5189189,25.3661776 62.5127413,21.8665637 C60.2733591,21.8480309 58.0401544,21.8665637 55.8223938,21.8665637 C55.772973,25.5267954 55.8100386,29.1901158 55.7791506,32.8534363 C55.772973,33.3074903 55.7544402,33.8758301 55.5011583,34.3144402 C55.1150579,34.8055598 54.3088803,34.9044015 53.7405405,34.6727413 C53.2586873,34.3669498 52.9930502,33.6534363 52.9930502,33.0325869 C52.9930502,29.3167568 53.0054054,25.5885714 52.9930502,21.8665637 L46.392278,21.8665637" id="Fill-18"></path>
                <path d="M67.9777606,21.8665637 C67.9777606,27.5932046 67.9592278,33.2148263 67.9901158,38.9352896 L73.4727413,38.9352896 C73.5098069,35.4294981 73.32139,31.9298842 73.5283398,28.5198456 C73.9144402,29.3167568 74.0905019,30.1847104 74.4642471,31.0495753 C75.3692664,33.6812355 76.2248649,36.2542085 77.2256371,38.9260232 C79.8696525,38.9476448 82.6001544,38.9260232 85.2009266,38.9260232 C85.2256371,33.2086486 85.2256371,27.5808494 85.2009266,21.8665637 L79.8449421,21.8665637 C79.7955212,25.3661776 79.9159846,28.7515058 79.7584556,32.2356757 C78.4148263,28.779305 77.3275676,25.3569112 76.0611583,21.8480309 C73.4202317,21.8665637 70.7051737,21.8480309 67.9777606,21.8665637" id="Fill-20"></path>
                <path d="M90.8905019,21.8665637 C90.8843243,27.5808494 90.8905019,33.202471 90.8905019,38.8951351 C93.1113514,38.9476448 95.3476448,38.9260232 97.5932046,38.9260232 L97.5932046,21.8665637 L90.8905019,21.8665637" id="Fill-22"></path>
                <path d="M125.150579,21.8665637 C125.113514,27.5808494 125.144402,33.2086486 125.150579,38.9260232 C126.997683,38.9476448 128.789189,38.9260232 130.633205,38.9260232 L130.633205,30.3545946 C130.64556,29.8171429 130.580695,29.1746718 130.74749,28.5569112 C132.016988,31.9545946 133.156757,35.4047876 134.355212,38.8951351 C136.99305,38.9476448 139.738996,38.9352896 142.342857,38.8951351 L142.342857,21.8665637 C140.613127,21.8480309 138.867954,21.8665637 136.980695,21.8480309 C136.928185,25.3105792 137.023938,28.6433977 136.937452,32.0997683 C136.551351,31.5592278 136.42471,30.8796911 136.177606,30.3113514 C135.207722,27.5499614 134.321236,24.6711969 133.187645,21.8480309 C130.562162,21.8943629 127.859459,21.8480309 125.150579,21.8665637" id="Fill-24"></path>
                <path d="M168.997375,5.38779923 C167.910116,5.57003861 166.850656,4.78857143 166.757992,3.79706564 C166.637529,2.90749035 167.110116,1.82640927 168.08,1.61328185 C169.003552,1.27042471 170.192741,1.82640927 170.464556,2.94764479 C170.745637,3.93297297 170.078456,5.25189189 168.997375,5.38779923 M170.733282,2.87969112 C170.433668,1.62872587 168.997375,0.924478764 167.820541,1.4588417 C167.168803,1.65034749 166.730193,2.23722008 166.560309,2.89204633 C166.078456,4.19552124 167.156448,5.77081081 168.574208,5.61945946 C170.01668,5.82640927 171.252201,4.19552124 170.733282,2.87969112" id="Fill-26"></path>
                <path d="M113.097143,7.77976834 C112.559691,8.48710425 111.497143,8.4376834 110.672432,8.45312741 C110.697143,7.42764479 110.672432,6.26625483 110.690965,5.22841699 C111.438456,5.25312741 112.241544,5.18208494 112.939614,5.49405405 C113.653127,6.0407722 113.640772,7.26702703 113.097143,7.77976834 M119.704093,13.4878764 C119.577452,12.5519691 119.509498,11.3627799 118.743475,10.6461776 C118.134981,10.0345946 117.294826,9.9388417 116.547336,9.75660232 C117.452355,9.51876448 118.508726,9.10177606 119.052355,8.32957529 C120.04695,7.33189189 120.142703,5.82455598 119.78749,4.48710425 C119.599073,3.29791506 118.792896,2.38671815 117.767413,1.99444015 C116.349653,1.42610039 114.817606,1.41374517 113.331892,1.41374517 L104.034595,1.41374517 L104.034595,18.3311197 C106.224556,18.3620077 108.445405,18.3558301 110.672432,18.3496525 L110.672432,12.2739768 C111.361236,12.2832432 112.108726,12.2152896 112.723398,12.6291892 C113.0261,12.8237838 113.072432,13.3365251 113.140386,13.667027 C113.44,15.2330502 113.616062,16.7898069 114.026873,18.3249421 C116.121081,18.3990734 118.304865,18.3311197 120.51027,18.3496525 C120.142703,16.7620077 119.843089,15.1372973 119.704093,13.4878764" id="Fill-31"></path>
                <path d="M168.134672,3.28555985 C168.128494,3.0384556 168.128494,2.7388417 168.128494,2.41142857 C168.55166,2.46084942 169.570965,2.2384556 169.469035,2.99521236 C169.237375,3.56972973 168.545483,3.22069498 168.134672,3.28555985 M169.033514,3.69019305 C169.601853,3.59444015 170.015753,3.00756757 169.685251,2.42996139 C169.153977,2.09945946 168.412664,2.28478764 167.773282,2.2384556 C167.773282,3.08169884 167.773282,3.93420849 167.80417,4.78671815 C168.326178,4.60756757 168.051274,3.90640927 168.134672,3.57590734 C169.058224,3.31027027 168.962471,4.67861004 169.781004,4.7403861 C169.58332,4.42532819 169.27444,3.98671815 169.033514,3.69019305" id="Fill-28"></path>
                <path d="M113.097143,32.043861 C113.041544,32.828417 112.97668,33.6500386 112.584402,34.3419305 C112.167413,34.9535135 111.216062,35.1017761 110.582857,34.7156757 C109.965097,34.3233977 109.810656,33.5388417 109.72417,32.828417 C109.538842,31.0369112 109.520309,29.2855598 109.779768,27.605251 C109.887876,26.9010039 110.202934,26.082471 111.021467,25.8137452 C111.463166,25.7396139 112.077838,25.7735907 112.476293,26.2647104 C112.880927,26.8330502 112.964324,27.5496525 113.041544,28.1396139 C113.267027,29.4029344 113.254672,30.7156757 113.097143,32.043861 M119.991351,27.9511969 C119.565097,25.8662548 118.477838,23.9789961 116.633822,22.7774517 C114.484015,21.3504247 111.812201,21.2021622 109.28556,21.6407722 C107.589807,21.87861 105.958919,22.6137452 104.754286,23.9450193 C103.268571,25.4986873 102.623012,27.7040927 102.545792,29.8415444 C102.450039,32.2261004 103.009112,34.7650965 104.596757,36.6616216 C106.097915,38.4037066 108.40834,39.2037066 110.690965,39.2778378 C112.880927,39.3612355 115.166641,39.0461776 117.013745,37.6963707 C118.573591,36.6214672 119.509498,34.7959846 119.843089,32.9983012 C120.256988,31.3797683 120.256988,29.6067954 119.991351,27.9511969" id="Fill-33"></path>
            </g>
        </g>
    </g>
</svg>