<?xml version="1.0" encoding="UTF-8"?>
<svg width="460px" height="460px" viewBox="0 0 460 460" version="1.1" xmlns="http://www.w3.org/2000/svg" xmlns:xlink="http://www.w3.org/1999/xlink">
    <title>Rectangle 2</title>
    <g id="Page-1" stroke="none" stroke-width="1" fill="none" fill-rule="evenodd">
        <path d="M370,0 C419.705627,-9.13077564e-15 460,40.2943725 460,90 L460,370 C460,419.705627 419.705627,460 370,460 L90,460 C78.9175699,460 68.3029896,457.996897 58.498561,454.332993 L58.222,454.7001 C73.373,434.8861 91.156,382.4291 94.222,371.7001 C109.55,367.1011 206.998,346.2831 233.222,345.7001 C229.142,366.6791 251.464,383.6941 260.222,340.7001 C294.857,333.9321 386.688,323.4951 400.222,322.7001 C417.339,324.6901 430.129,295.2811 398.222,294.7001 C367.906,293.3231 272.591,306.1071 266.222,307.7001 C269.008,288.9901 270.222,268.7001 270.222,268.7001 L270.257226,268.740655 C271.404078,270.051119 300.36394,302.41558 329.222,262.7001 C346.328,240.8841 356.998,186.1771 352.222,160.7001 C353.815,140.7951 329.118,119.2041 307.222,140.7001 C299.5,148.8191 298.123,151.6131 294.222,155.7001 C295.152,149.3821 295.222,149.4161 295.222,145.7001 C295.222,141.9841 294.08,141.8161 292.222,140.7001 C290.364,139.5841 286.982,137.8861 281.222,137.7001 C275.462,137.5141 273.593,141.2131 273.222,142.7001 C272.851,144.1871 253.222,237.6131 253.222,241.7001 C253.222,245.7871 250.938,249.4711 247.222,251.7001 C243.506,253.9291 233.106,262.0941 234.222,243.7001 C237.381,224.0051 246.506,182.2801 250.222,163.7001 C254.309,147.5351 246.222,145.7001 246.222,145.7001 C246.222,145.7001 242.495,143.6301 238.222,142.7001 C225.031,142.1431 226.709,154.5141 225.222,154.7001 C206.502,141.7591 195.487,148.2721 189.222,151.7001 C147.773,184.7401 145.523,237.0651 144.222,249.7001 C143.73,265.3351 145.769,276.4311 149.887,283.7281 C166.063,312.3991 201.785,294.7661 205.222,273.7001 C214.698,307.5161 245.222,280.7001 245.222,280.7001 L240.222,311.7001 C240.222,311.7001 116.813,331.5411 106.222,334.7001 C106.779,324.4801 144.718,195.2261 151.222,170.7001 C159.025,147.6601 143.61,153.5841 138.222,154.7001 C123.915,158.2301 117.222,175.7001 117.222,175.7001 C117.222,175.7001 94.054,241.9671 89.222,250.7001 C67.483,286.3741 60.523,267.8151 59.222,266.7001 C57.179,259.0831 61.222,244.7001 61.222,244.7001 C61.222,244.7001 71.877,208.3341 75.222,195.7001 C78.567,183.0661 66.222,175.7001 66.222,175.7001 L66.2348342,175.700837 C66.383852,175.708706 67.6831207,175.757428 62.222,174.7001 C51.817,172.0991 49.222,183.7001 49.222,183.7001 C49.222,183.7001 48.748,186.6941 49.222,191.7001 C45.923,208.8531 44.11,205.2551 34.222,240.7001 C16.701,300.6451 34.408,304.9381 45.222,308.7001 C61.375,314.3191 85.996,288.8191 88.222,283.7001 C84.692,295.0331 72.029,334.3331 71.222,336.7001 C69.714,342.9971 67.358,345.4121 65.222,344.7001 C47.9829254,349.493596 10.3336717,374.231615 1.16817761,384.551584 C0.400241302,379.814252 6.06673696e-16,374.953867 0,370 L0,90 C-6.08718376e-15,40.2943725 40.2943725,9.13077564e-15 90,0 L370,0 Z M32.679,439.1771 C34.9206875,441.08009 37.2536949,442.903877 39.670945,444.621479 C28.2235364,436.887138 18.6525522,426.587781 11.7809887,414.548548 C20.246053,405.55307 41.1076502,388.137905 57.205,381.7021 C59.451,380.8041 42.314,424.6391 32.679,439.1771 Z M395.222,131.7001 C368.805,152.5121 356.883,203.7611 356.222,211.7001 C355.561,219.6391 352.141,228.8011 357.222,254.7001 C362.665,270.8701 380.236,278.5051 396.222,275.7001 C417.493,272.7341 438.256,249.4671 447.222,239.7001 C448.984,230.0941 443.118,215.3021 438.222,215.7001 C422.734,229.7041 412.83,240.6581 399.222,243.7001 C386.894,245.4621 385.222,236.7001 385.222,236.7001 C385.222,236.7001 381.176,221.1071 388.222,210.7001 C401.51,209.2591 406.595,207.7851 419.222,199.7001 C452.502,181.0491 453.823,145.5451 452.222,137.7001 C450.141,126.4931 425.321,103.0411 395.222,131.7001 Z M219.222,190.7001 C215.334,208.2381 205.311,238.9041 199.222,250.7001 C182.198,280.4041 172.139,250.2221 172.222,239.7001 C170.565,227.2721 178.033,204.6551 184.222,196.7001 C191.014,180.3631 207.222,174.7001 207.222,174.7001 C207.222,174.7001 225.158,167.1721 219.222,190.7001 Z M326.222,181.7001 C325.216,204.8161 318.794,231.1171 304.222,247.7001 C288.2,263.1261 277.205,250.2381 279.222,248.7001 C278.474,244.9781 279.599,243.6301 280.222,239.7001 C280.845,239.7001 289.176,199.8101 298.222,177.7001 C312.917,153.4441 326.936,158.5841 326.222,181.7001 Z M427.222,152.7001 C419.533,176.6681 407.833,180.5971 393.222,184.7001 C395.016,172.1391 410.222,151.7001 410.222,151.7001 C410.222,151.7001 423.762,136.0371 427.222,152.7001 Z" id="Rectangle-2" fill="#346275"></path>
    </g>
</svg>